<?xml version="1.0" encoding="UTF-8" standalone="no"?>
<!-- Created with Inkscape (http://www.inkscape.org/) -->

<svg
   xmlns:dc="http://purl.org/dc/elements/1.1/"
   xmlns:cc="http://creativecommons.org/ns#"
   xmlns:rdf="http://www.w3.org/1999/02/22-rdf-syntax-ns#"
   xmlns:svg="http://www.w3.org/2000/svg"
   xmlns="http://www.w3.org/2000/svg"
   xmlns:sodipodi="http://sodipodi.sourceforge.net/DTD/sodipodi-0.dtd"
   xmlns:inkscape="http://www.inkscape.org/namespaces/inkscape"
   width="960"
   height="90"
   id="svg4293"
   version="1.1"
   inkscape:version="0.48.5 r10040"
   sodipodi:docname="i3.svg">
  <defs
     id="defs4295" />
  <sodipodi:namedview
     id="base"
     pagecolor="#ffffff"
     bordercolor="#666666"
     borderopacity="1.0"
     inkscape:pageopacity="0.0"
     inkscape:pageshadow="2"
     inkscape:zoom="5.5"
     inkscape:cx="869.36364"
     inkscape:cy="40.054279"
     inkscape:current-layer="layer1"
     showgrid="true"
     inkscape:document-units="px"
     inkscape:grid-bbox="true"
     inkscape:snap-grids="true"
     inkscape:snap-to-guides="false"
     inkscape:snap-bbox="true"
     inkscape:snap-nodes="false"
     inkscape:window-width="1920"
     inkscape:window-height="1060"
     inkscape:window-x="-3"
     inkscape:window-y="837"
     inkscape:window-maximized="1">
    <inkscape:grid
       type="xygrid"
       id="grid4305"
       empspacing="3"
       visible="true"
       enabled="true"
       snapvisiblegridlinesonly="true"
       spacingx="10px"
       spacingy="10px" />
  </sodipodi:namedview>
  <metadata
     id="metadata4298">
    <rdf:RDF>
      <cc:Work
         rdf:about="">
        <dc:format>image/svg+xml</dc:format>
        <dc:type
           rdf:resource="http://purl.org/dc/dcmitype/StillImage" />
        <dc:title></dc:title>
      </cc:Work>
    </rdf:RDF>
  </metadata>
  <g
     id="layer1"
     inkscape:label="Layer 1"
     inkscape:groupmode="layer"
     transform="translate(0,26)">
    <g
       transform="matrix(0,8.4507042,-8.4507042,0,497.11267,9.477593)"
       style="font-size:10px;font-style:normal;font-variant:normal;font-weight:normal;font-stretch:normal;line-height:125%;letter-spacing:0px;word-spacing:0px;fill:#000000;fill-opacity:1;stroke:none;font-family:Latin Modern Roman;-inkscape-font-specification:Latin Modern Roman"
       id="text4381">
      <path
         d="m 6.4518182,58.691212 c 0,-0.1 -0.06,-0.1 -0.16,-0.11 -0.7899992,-0.05 -1.16,-0.5 -1.25,-0.86 -0.03,-0.11 -0.03,-0.13 -0.03,-0.48 l 0,-53.2858885 c 0,-0.3 0,-0.81 -0.02,-0.91 -0.1299998,-0.659999 -0.7700003,-0.92 -1.16,-1.03 1.1799989,-0.34 1.18,-1.04999997 1.18,-1.32999999 l 0,-53.56653551 c 0,-0.719999 3e-7,-0.94 0.24,-1.19 0.1799999,-0.18 0.4100007,-0.42 1.11,-0.46 0.05,-0.01 0.09,-0.05 0.09,-0.11 0,-0.11 -0.08,-0.11 -0.2,-0.11 -0.999999,0 -1.89,0.510001 -1.91,1.23 l 0,53.59653551 c 0,0.93999899 -2e-7,1.09999999 -0.26,1.37999999 -0.1399998,0.14 -0.4100006,0.41 -1.04,0.45 -0.07,0 -0.14,0.01 -0.14,0.11 0,0.1 0.06,0.1 0.16,0.11 0.4299996,0.03 1.28,0.240001 1.28,1.24 l 0,53.7658885 c 0,0.579999 6e-7,0.92 0.52,1.29 0.4299996,0.3 1.0800004,0.38 1.39,0.38 0.1199999,0 0.2,0 0.2,-0.11"
         id="path4386"
         inkscape:connector-curvature="0"
         sodipodi:nodetypes="cccssccssccsscsccscsscsc" />
    </g>
  </g>
</svg>
