<?xml version="1.0" encoding="UTF-8" standalone="no"?>
<!-- Created with Inkscape (http://www.inkscape.org/) -->

<svg
   xmlns:dc="http://purl.org/dc/elements/1.1/"
   xmlns:cc="http://creativecommons.org/ns#"
   xmlns:rdf="http://www.w3.org/1999/02/22-rdf-syntax-ns#"
   xmlns:svg="http://www.w3.org/2000/svg"
   xmlns="http://www.w3.org/2000/svg"
   xmlns:sodipodi="http://sodipodi.sourceforge.net/DTD/sodipodi-0.dtd"
   xmlns:inkscape="http://www.inkscape.org/namespaces/inkscape"
   width="191.9776"
   height="133.47629"
   id="svg3155"
   version="1.1"
   inkscape:version="0.48.5 r10040"
   sodipodi:docname="logo.svg">
  <defs
     id="defs3157">
    <inkscape:path-effect
       effect="sketch"
       id="path-effect22212"
       is_visible="true"
       nbiter_approxstrokes="1"
       strokelength="1"
       strokelength_rdm="1;2147483646"
       strokeoverlap="1"
       strokeoverlap_rdm="1;1"
       ends_tolerance="1;1"
       parallel_offset="1;1"
       tremble_size="2.5;1"
       tremble_frequency="0.01"
       nbtangents="30"
       tgt_places_rdmness="0.1;1"
       tgtscale="5"
       tgtlength="1"
       tgtlength_rdm="0.3;1" />
  </defs>
  <sodipodi:namedview
     id="base"
     pagecolor="#ffffff"
     bordercolor="#666666"
     borderopacity="1.0"
     inkscape:pageopacity="0.0"
     inkscape:pageshadow="2"
     inkscape:zoom="5.73009"
     inkscape:cx="39.657423"
     inkscape:cy="84.396904"
     inkscape:document-units="px"
     inkscape:current-layer="layer1"
     showgrid="true"
     inkscape:snap-nodes="false"
     inkscape:snap-bbox="true"
     inkscape:window-width="1920"
     inkscape:window-height="1060"
     inkscape:window-x="-3"
     inkscape:window-y="837"
     inkscape:window-maximized="1"
     inkscape:object-paths="false"
     inkscape:snap-to-guides="false"
     inkscape:snap-grids="false"
     inkscape:object-nodes="true"
     inkscape:snap-global="true"
     width="96px"
     inkscape:snap-page="true"
     fit-margin-top="0"
     fit-margin-left="0"
     fit-margin-right="0"
     fit-margin-bottom="0">
    <inkscape:grid
       type="xygrid"
       id="grid3167"
       empspacing="5"
       visible="true"
       enabled="true"
       snapvisiblegridlinesonly="true"
       originx="3.12765e-07px"
       originy="-27.651094px" />
  </sodipodi:namedview>
  <metadata
     id="metadata3160">
    <rdf:RDF>
      <cc:Work
         rdf:about="">
        <dc:format>image/svg+xml</dc:format>
        <dc:type
           rdf:resource="http://purl.org/dc/dcmitype/StillImage" />
        <dc:title></dc:title>
      </cc:Work>
    </rdf:RDF>
  </metadata>
  <g
     inkscape:label="Layer 1"
     inkscape:groupmode="layer"
     id="layer1"
     transform="translate(3.12765e-7,-891.23481)">
    <path
       inkscape:connector-curvature="0"
       id="path22714"
       style="font-size:72px;font-style:normal;font-variant:normal;font-weight:normal;font-stretch:normal;line-height:125%;letter-spacing:0px;word-spacing:0px;fill:#aa4400;fill-opacity:1;stroke:none;font-family:Latin Modern Roman;-inkscape-font-specification:Latin Modern Roman"
       d="m 47.830184,1024.7111 c 1.875696,0 3.188679,0 3.188679,-2.4683 0,-2.0886 -1.125416,-2.0886 -3.001108,-2.2785 -26.822389,-1.519 -42.2031043,-21.83524 -42.2031043,-42.53122 0,-11.58215 6.3774143,-48.797 62.2730233,-48.797 56.083186,0 62.460596,37.02498 62.460596,48.60713 0,20.69598 -17.06884,37.59459 -44.453937,41.39199 -2.625969,0.3798 -3.188679,0.3798 -3.188679,3.038 0,3.0379 0.562713,3.0379 4.501665,3.0379 l 44.453931,0 c 3.18868,0 4.50167,0 4.50167,-2.0886 0,-0.7595 0,-1.519 -2.25083,-3.0379 l -13.88013,-9.4936 c 6.75249,-7.0252 16.13096,-16.70873 16.13096,-34.93638 0,-35.50595 -29.82356,-66.07531 -68.087675,-66.07531 C 29.448428,909.07931 -3.12765e-7,939.83854 -3.12765e-7,975.15462 -3.12765e-7,1006.1037 26.072163,1024.7111 47.830184,1024.7111" />
    <path
       d="m 85.808313,1024.7111 c 1.875696,0 3.188679,0 3.188679,-2.4683 0,-2.0886 -1.125416,-2.0886 -3.001108,-2.2785 -26.822389,-1.519 -42.203104,-21.83524 -42.203104,-42.53122 0,-11.58215 6.377414,-48.797 62.27302,-48.797 56.08319,0 62.4606,37.02498 62.4606,48.60713 0,20.69598 -17.06884,37.59459 -44.45394,41.39199 -2.62597,0.3798 -3.18868,0.3798 -3.18868,3.038 0,3.0379 0.56272,3.0379 4.50167,3.0379 l 44.45393,0 c 3.18868,0 4.50167,0 4.50167,-2.0886 0,-0.7595 0,-1.519 -2.25083,-3.0379 l -13.88014,-9.4936 c 6.7525,-7.0252 16.13097,-16.70873 16.13097,-34.93638 0,-35.50595 -29.82357,-66.07531 -68.08768,-66.07531 -38.826813,0 -68.275241,30.75923 -68.275241,66.07531 0,30.94908 26.072163,49.55648 47.830184,49.55648"
       style="font-size:72px;font-style:normal;font-variant:normal;font-weight:normal;font-stretch:normal;line-height:125%;letter-spacing:0px;word-spacing:0px;fill:#ff7f2a;fill-opacity:1;stroke:none;font-family:Latin Modern Roman;-inkscape-font-specification:Latin Modern Roman"
       id="path22721"
       inkscape:connector-curvature="0" />
    <path
       inkscape:connector-curvature="0"
       id="path22712"
       style="font-size:72px;font-style:normal;font-variant:normal;font-weight:normal;font-stretch:normal;line-height:125%;letter-spacing:0px;word-spacing:0px;fill:#803300;fill-opacity:1;stroke:none;font-family:Latin Modern Roman;-inkscape-font-specification:Latin Modern Roman"
       d="m 184.91368,891.23481 7.06393,0 -0.68361,29.75587 c 0,9.68795 0,29.98654 0.68361,38.75183 l -7.06393,0 0,-8.30396 c 0,-22.60521 -2.96231,-22.60524 -10.93771,-22.60524 l -65.93003,0 c -20.963904,0 -33.724577,11.5333 -33.724577,23.75856 0,1.384 1.3e-5,17.06927 13.216389,25.37323 0,-11.99461 6.836069,-14.76261 12.760648,-14.76261 8.20327,0 12.76065,6.45865 12.76065,12.91728 0,5.07464 -3.19017,12.91728 -13.216384,12.91728 -16.862271,0 -30.534416,-16.37729 -30.534416,-36.90651 0,-23.52787 15.950833,-40.36649 33.04097,-42.90381 1.82295,-0.23066 2.2787,-0.23066 10.02623,-0.23066 l 63.19561,0 c 9.34261,0 9.34262,-3.22934 9.34262,-17.76126"
       sodipodi:nodetypes="cccccsssscsssscssc" />
  </g>
</svg>
