<?xml version="1.0" standalone="no"?>
<!DOCTYPE svg PUBLIC "-//W3C//DTD SVG 1.1//EN" "http://www.w3.org/Graphics/SVG/1.1/DTD/svg11.dtd" >
<svg xmlns="http://www.w3.org/2000/svg" xmlns:xlink="http://www.w3.org/1999/xlink" version="1.1">
<metadata></metadata>
<defs>
<font id="latin_modern_sans12_regular" horiz-adv-x="1003" >
<font-face units-per-em="2048" ascent="1651" descent="-397" />
<missing-glyph horiz-adv-x="667" />
<glyph unicode="&#xfb01;" horiz-adv-x="1071" d="M53 791v118h150v189q0 149 76.5 246.5t191.5 97.5q45 0 65.5 -4t53.5 -17v-139q-54 37 -119 37q-49 0 -85 -38t-36 -122v-250h240v-118h-236v-791h-151v791h-150zM750 1257v166h165v-166h-165zM758 0v909h151v-909h-151z" />
<glyph unicode="&#xfb02;" horiz-adv-x="1071" d="M53 791v118h150v189q0 149 76.5 246.5t191.5 97.5q45 0 65.5 -4t53.5 -17v-135q-50 33 -119 33q-49 0 -85 -38t-36 -122v-250h240v-118h-236v-791h-151v791h-150zM758 0v1421h151v-1421h-151z" />
<glyph unicode="&#xfb04;" horiz-adv-x="1628" d="M53 791v118h150v187q0 148 85 247t216 99q74 0 137 -21v-135q-65 33 -139 33q-24 0 -47 -6.5t-48.5 -22.5t-41 -50.5t-15.5 -84.5v-246h240v-118h-236v-791h-151v791h-150zM760 0v1098q0 149 76.5 246.5t191.5 97.5q45 0 65.5 -4t53.5 -17v-135q-50 33 -119 33 q-49 0 -85 -38t-36 -122v-250h240v-118h-236v-791h-151zM1315 0v1421h151v-1421h-151z" />
<glyph horiz-adv-x="0" />
<glyph horiz-adv-x="682" />
<glyph unicode=" "  horiz-adv-x="667" />
<glyph unicode="&#x09;" horiz-adv-x="667" />
<glyph unicode="&#xa0;" horiz-adv-x="667" />
<glyph unicode="!" horiz-adv-x="636" d="M236 0v166h165v-166h-165zM236 1421h165l-16 -1067h-133z" />
<glyph unicode="&#x22;" horiz-adv-x="868" d="M201 879v585h155v-585h-155zM512 879v585h156v-585h-156z" />
<glyph unicode="#" horiz-adv-x="1671" d="M111 315q0 17 11.5 26t22.5 10t31 1h346l84 318h-430q-16 0 -24 0.5t-19.5 4t-16.5 12t-5 22.5q0 13 5 21t17 11t19.5 3.5t23.5 0.5h451l166 629q11 36 24 43q8 4 17 4q17 0 27.5 -11t10.5 -28q0 -7 -8 -36l-157 -601h383l165 629q11 36 24 43q8 4 17 4q17 0 28 -11 t11 -28q0 -7 -8 -36l-158 -601h324h19.5t16.5 -2t16 -5.5t9.5 -11.5t4.5 -19q0 -17 -12 -26t-23 -10t-31 -1h-346l-84 -318h430q16 0 24 -0.5t19.5 -4t17 -12t5.5 -22.5q0 -17 -12 -26t-23 -10t-31 -1h-451l-165 -626q-11 -36 -24 -43q-7 -4 -17 -4q-17 0 -28 11t-11 28 q0 7 8 36l158 598h-383l-166 -626q-11 -36 -24 -43q-7 -4 -17 -4q-17 0 -28 11t-11 28q0 7 8 36l158 598h-324q-16 0 -24 0.5t-19.5 4t-16.5 12t-5 22.5zM600 352h385l84 318h-385z" />
<glyph unicode="$" d="M90 121l25 139q145 -134 327 -149v553q-83 19 -146.5 58t-97 81.5t-54.5 93.5t-27 86.5t-6 67.5q0 142 92 252.5t239 134.5v98h119v-96q81 -6 153.5 -35t106 -53t33.5 -31l-23 -127q-124 108 -270 119v-498q91 -21 158.5 -69.5t103 -109.5t52 -120.5t16.5 -116.5 q0 -157 -94.5 -273t-235.5 -140v-101h-119v97q-190 18 -352 139zM254 1077q0 -75 47 -141.5t141 -89.5v463q-90 -23 -139 -89.5t-49 -142.5zM561 115q84 23 135.5 95t51.5 165q0 85 -49 159t-138 99v-518z" />
<glyph unicode="%" horiz-adv-x="1671" d="M111 1124q0 176 84.5 294t195.5 118t194 -118t83 -296q0 -174 -82.5 -292.5t-194.5 -118.5q-111 0 -195.5 117t-84.5 296zM264 1122q0 -72 9.5 -127t23 -84.5t32 -48t33 -23.5t29.5 -5q57 0 95 86t38 204q0 115 -37.5 202t-95.5 87q-14 0 -27.5 -4.5t-32.5 -22.5 t-33 -47.5t-24 -85.5t-10 -131zM354 -76q1 12 15 37l870 1538q20 37 45 37q14 0 25.5 -10t11.5 -29q0 -12 -14 -37l-873 -1540q-7 -13 -10.5 -18t-11.5 -11t-19 -6q-17 0 -28 11.5t-11 27.5zM1001 299q0 176 85 294t196 118t194 -118t83 -296q0 -174 -82.5 -293t-194.5 -119 q-111 0 -196 117.5t-85 296.5zM1155 297q0 -72 9.5 -127t23 -85t32 -48t33 -23.5t29.5 -5.5q57 0 95 86.5t38 204.5q0 115 -37.5 202t-95.5 87q-14 0 -27.5 -4.5t-32.5 -22.5t-33 -47.5t-24 -85.5t-10 -131z" />
<glyph unicode="&#x26;" horiz-adv-x="1517" d="M84 297q0 51 12.5 94t38 77.5t43 53t47.5 45.5l164 148q-8 21 -19.5 55.5t-28.5 123t-17 167.5q0 170 77 286.5t201 116.5q80 0 142 -48.5t92 -120t30 -148.5q0 -94 -75 -198.5t-232 -243.5q51 -115 157.5 -258.5t155.5 -196.5q235 203 338 581l125 -34 q-95 -375 -368 -633q100 -80 211 -80q114 0 227 41v-135q-121 -33 -229 -33q-172 0 -326 119q-187 -119 -397 -119q-160 0 -264.5 101t-104.5 239zM240 309q0 -85 56.5 -155t158.5 -70q83 0 163.5 24t133.5 56q-188 202 -312 432q-67 -56 -96.5 -83.5t-58 -63t-37 -66.5 t-8.5 -74zM457 1130q0 -149 53 -305q44 42 65.5 64t55 61t50 66.5t29.5 63t13 69.5q0 24 -4.5 52t-16.5 62t-38 56t-62 22q-58 0 -101.5 -53.5t-43.5 -157.5z" />
<glyph unicode="'" horiz-adv-x="557" d="M201 879v585h155v-585h-155z" />
<glyph unicode="(" horiz-adv-x="780" d="M160 512q0 107 10 209t37 216.5t69.5 216t111 202.5t157.5 180h123q-47 -44 -90 -97.5t-93 -145t-86 -198t-60 -259.5t-24 -326q0 -308 76 -559q49 -157 126 -277t151 -188h-123q-107 95 -184.5 219t-120 260t-61.5 270t-19 277z" />
<glyph unicode=")" horiz-adv-x="780" d="M111 -514q47 44 90 97.5t92.5 145t85.5 198t60 259.5t24 326q0 308 -76 559q-49 157 -126 277t-150 188h122q107 -95 184.5 -219t120 -260t61.5 -270t19 -277q0 -107 -10 -209t-37 -216.5t-69.5 -216t-111 -202.5t-157.5 -180h-122z" />
<glyph unicode="*" d="M129 891q0 42 43 65l231 125l-231 125q-43 23 -43 66q0 27 20 48t48 21q24 0 49 -18l203 -145l-17 288q0 32 20.5 51t49.5 19q26 0 46.5 -18.5t20.5 -51.5l-16 -288l205 145q24 18 47 18q28 0 47.5 -21t19.5 -48q0 -43 -43 -66l-231 -125l231 -125q43 -23 43 -65 q0 -27 -19.5 -48.5t-47.5 -21.5q-23 0 -49 19l-203 145l14 -270l2 -19q0 -32 -20 -50.5t-49 -18.5q-26 0 -47 18t-21 51l17 289l-205 -145q-25 -19 -47 -19q-28 0 -48 21.5t-20 48.5z" />
<glyph unicode="+" horiz-adv-x="1560" d="M111 512q0 17 11.5 26t22.5 10t31 1h565v565q0 16 0.5 24t4 19.5t12 17t22.5 5.5q17 0 26 -12t10 -23t1 -31v-565h565q16 0 24 -0.5t19.5 -4t17 -12t5.5 -22.5q0 -17 -12 -26t-23 -10t-31 -1h-565v-565q0 -16 -0.5 -24t-4 -19.5t-12 -17t-22.5 -5.5q-17 0 -26 12t-10 23 t-1 31v565h-565q-16 0 -24 0.5t-19.5 4t-16.5 12t-5 22.5z" />
<glyph unicode="," horiz-adv-x="557" d="M195 0v166h165v-164l-84 -258h-81l51 256h-51z" />
<glyph unicode="-" horiz-adv-x="667" d="M23 395v119h532v-119h-532z" />
<glyph unicode="." horiz-adv-x="557" d="M195 0v166h165v-166h-165z" />
<glyph unicode="/" d="M111 -473q0 8 10 35l690 1929q6 18 9.5 25t12 13.5t21.5 6.5q14 0 25.5 -10t11.5 -29q0 -8 -10 -35l-691 -1931q-11 -32 -22 -39q-7 -4 -18 -4q-17 0 -28 11t-11 28z" />
<glyph unicode="0" d="M84 668q0 152 16.5 269.5t63.5 217.5q55 116 143.5 172.5t194.5 56.5q36 0 70.5 -6.5t76 -25t77.5 -48t71.5 -80t60.5 -116.5q60 -164 60 -440q0 -165 -17.5 -279.5t-66.5 -216.5q-51 -103 -140.5 -159t-193.5 -56q-105 0 -196 58.5t-136 158.5q-48 105 -66 213.5 t-18 280.5zM240 692q0 -46 0.5 -73t2.5 -81.5t6.5 -91t13.5 -88.5t22 -87t33 -74.5t45.5 -62.5t61 -38.5t77.5 -15.5q25 0 50.5 7.5t59 27.5t64 67.5t49.5 116.5q17 59 26 133.5t10 123t1 136.5q0 44 -0.5 70t-2.5 77t-6.5 85t-13.5 82.5t-22 80.5t-33 68t-45.5 57.5 t-61 35.5t-77.5 14q-70 0 -130 -46.5t-94 -148.5q-17 -55 -25.5 -125t-9.5 -114t-1 -136z" />
<glyph unicode="1" d="M180 1130v82q0 28 4.5 33.5t26.5 5.5q223 4 352 133h39v-1265h250v-119h-659v119h249v1061q-119 -50 -262 -50z" />
<glyph unicode="2" d="M84 1049q97 335 389 335q98 0 180 -36t135.5 -97t83 -139t29.5 -164q0 -55 -15.5 -107t-38.5 -93t-62.5 -87.5t-75 -80.5t-88.5 -80q-197 -177 -377 -363h219q13 0 37 1t37 1h364v-139h-801v129l457 455q180 177 180 360q0 134 -80.5 223.5t-210.5 89.5 q-112 0 -175.5 -75.5t-102.5 -243.5q-45 63 -84 111z" />
<glyph unicode="3" d="M84 172l22 121q67 -104 174.5 -158.5t213.5 -54.5q109 0 178 82.5t69 208.5q0 37 -6.5 74t-25 77.5t-47 71t-76 50.5t-107.5 20h-145v122q6 1 46 4.5t75 6.5t39 4q85 19 144.5 96t59.5 178q0 94 -58.5 143.5t-143.5 49.5q-103 0 -189.5 -60.5t-124.5 -158.5l-71 110 q59 103 162.5 164t224.5 61q151 0 257.5 -89t106.5 -220q0 -103 -59 -198t-164 -152q130 -44 204.5 -140.5t74.5 -215.5q0 -81 -32 -156t-87.5 -131.5t-134 -90.5t-166.5 -34q-44 0 -90 8.5t-103.5 30t-115.5 67t-105 109.5z" />
<glyph unicode="4" d="M55 352v123l508 866h185v-866h198v-123h-198v-352h-162v352h-531zM213 475h383v774q-1 -34 -38 -123.5t-66.5 -147.5t-53.5 -104q-38 -73 -78.5 -145t-85.5 -149t-61 -105z" />
<glyph unicode="5" d="M78 160l67 110q47 -92 135 -141t179 -49q48 0 92.5 17.5t84.5 55t64.5 106.5t24.5 161q0 168 -61 249t-144 81q-68 0 -128.5 -39.5t-96.5 -122.5h-133v753h672v-127h-527v-423q91 81 215 81q156 0 267.5 -132.5t111.5 -323.5t-129 -325t-311 -134q-32 0 -66.5 5.5 t-92.5 23t-117.5 62.5t-106.5 112z" />
<glyph unicode="6" d="M86 659q0 160 44.5 298t118 230.5t170 144.5t199.5 52q105 0 216 -41v-118q-110 43 -211 43q-153 0 -253.5 -133.5t-117.5 -360.5q137 166 342 166q91 0 165 -66.5t115 -177.5t41 -241q0 -113 -26.5 -193.5t-93.5 -161.5q-62 -72 -131.5 -107.5t-159.5 -35.5 q-38 0 -74.5 7.5t-79 29t-79.5 54.5t-71.5 88t-59 126t-39.5 173t-15 224zM254 446q2 -22 4.5 -41.5t10.5 -59t18.5 -71.5t30.5 -70t44.5 -63.5t61 -43t80.5 -17.5q68 0 111.5 29t76.5 79q22 33 35.5 66.5t18.5 70.5t6.5 62t1.5 66q0 50 -2 82t-13 77.5t-32 83.5 q-41 70 -87.5 95.5t-105.5 25.5q-63 0 -114 -28.5t-81.5 -74.5t-46.5 -100.5t-16 -109.5q-2 -14 -2 -58z" />
<glyph unicode="7" d="M84 1202v139h834v-129q-89 -104 -165 -231t-141 -282t-102 -341t-37 -378h-166q0 138 21 272.5t51 238t78.5 209.5t86 173t93 144t81 108.5t66.5 78.5h-245q-13 0 -37 -1t-37 -1h-381z" />
<glyph unicode="8" d="M84 369q0 122 76 218t202 138q-103 30 -177 112t-74 191q0 143 113 249.5t278 106.5q162 0 275.5 -105t113.5 -251q0 -108 -74 -189.5t-178 -113.5q126 -42 202.5 -138t76.5 -218q0 -165 -120.5 -288.5t-297.5 -123.5q-114 0 -210 57t-151 152t-55 203zM246 371 q0 -138 73.5 -214.5t182.5 -76.5q105 0 179.5 75t74.5 216q0 76 -23.5 135t-62 92t-81.5 49.5t-89 16.5q-43 0 -85 -15.5t-81 -48t-63.5 -92t-24.5 -137.5zM252 1026q0 -103 66.5 -171.5t183.5 -68.5q113 0 180.5 67.5t67.5 172.5q0 111 -69 176.5t-181 65.5 q-107 0 -177.5 -64.5t-70.5 -177.5z" />
<glyph unicode="9" d="M86 889q0 99 24.5 180t92.5 162q61 73 132 113t173 40q58 0 112 -18.5t109 -67.5t95 -125t65.5 -201.5t25.5 -285.5q0 -163 -42 -302.5t-112 -231.5t-160.5 -143.5t-188.5 -51.5q-147 0 -267 94l64 109q83 -80 203 -80q140 0 233 136t105 353q-136 -168 -342 -168 q-137 0 -229.5 143.5t-92.5 344.5zM248 889q0 -87 9.5 -138.5t37.5 -105.5q68 -121 192 -121q120 0 189 95.5t69 222.5q0 35 -2 49q-1 30 -5.5 63t-13.5 78.5t-26.5 85t-41.5 74.5t-62.5 55.5t-85.5 20.5q-121 0 -197 -111q-29 -43 -43.5 -92.5t-17 -84t-2.5 -91.5z" />
<glyph unicode=":" horiz-adv-x="557" d="M195 0v166h165v-166h-165zM195 743v166h165v-166h-165z" />
<glyph unicode=";" horiz-adv-x="557" d="M195 0v166h165v-164l-84 -258h-81l51 256h-51zM195 743v166h165v-166h-165z" />
<glyph unicode="&#x3c;" horiz-adv-x="1560" d="M168 512q0 25 41 43l1108 510l35 14q17 0 28 -11t11 -28q0 -25 -41 -43l-1055 -487l1055 -485q41 -18 41 -43q0 -17 -11 -28t-28 -11q-8 2 -35 14l-1108 510q-18 8 -27.5 16.5t-11.5 14t-2 14.5z" />
<glyph unicode="=" horiz-adv-x="1560" d="M111 315q0 17 11.5 26t22.5 10t31 1h1206q16 0 24 -0.5t19.5 -4t17 -12t5.5 -22.5q0 -17 -12 -26t-23 -10t-31 -1h-1206q-16 0 -24 0.5t-19.5 4t-16.5 12t-5 22.5zM111 709q0 13 5 21t17 11t19.5 3.5t23.5 0.5h1206h19.5t16.5 -2t16 -5.5t9.5 -11.5t4.5 -19 q0 -17 -12 -26t-23 -10t-31 -1h-1206q-16 0 -24 0.5t-19.5 4t-16.5 12t-5 22.5z" />
<glyph unicode="&#x3e;" horiz-adv-x="1560" d="M168 -20q0 8 1.5 13t11 14.5t28.5 17.5l1055 487l-1053 485q-16 7 -23.5 11.5t-13.5 13t-6 20.5q0 13 11 25t28 12q8 -2 35 -14l1108 -510q41 -18 41 -43q0 -9 -2 -14.5t-11.5 -14t-27.5 -16.5l-1108 -510l-35 -14q-17 0 -28 12t-11 25z" />
<glyph unicode="?" horiz-adv-x="946" d="M111 1333q148 109 335 109q105 0 183 -27t121 -73.5t63.5 -100.5t20.5 -117q0 -147 -113 -243q-34 -28 -66.5 -64.5t-67.5 -90t-56 -125t-21 -148.5v-99h-133v105q0 159 64 292t159 216q23 19 37 34t27.5 48.5t13.5 76.5q0 59 -19.5 99.5t-54.5 59.5t-71.5 26.5 t-83.5 7.5q-166 0 -293 -113zM360 0v166h166v-166h-166z" />
<glyph unicode="@" horiz-adv-x="1337" d="M111 711q0 153 54.5 290t145.5 233t212.5 152t252.5 56q72 0 132.5 -19t104 -48.5t78 -76t56.5 -90t37.5 -103.5t23 -103.5t12 -102t5 -87.5t0.5 -71q0 -108 -26 -195.5t-66 -141.5t-91.5 -90.5t-98.5 -51t-91 -14.5q-151 0 -262 133.5t-111 329.5t111 329.5t262 133.5 q17 0 33.5 -2t31 -5.5t28 -8t24.5 -9t20.5 -9t15.5 -8t11 -6.5l4 -2q-71 195 -246 195q-96 0 -188.5 -45.5t-163.5 -124t-114.5 -193.5t-43.5 -245q0 -165 68 -305t187.5 -222t264.5 -82q140 0 293 64q16 8 51 8h97q-72 -81 -188.5 -137.5t-258.5 -56.5q-177 0 -330 95.5 t-245 264.5t-92 371zM633 711q0 -145 65 -242.5t154 -97.5t154 98t65 242q0 145 -65 242.5t-154 97.5t-154 -98t-65 -242z" />
<glyph unicode="A" horiz-adv-x="1325" d="M55 0l516 1421h181l516 -1421h-183l-151 416h-578l-149 -416h-152zM401 530h490l-246 744z" />
<glyph unicode="B" horiz-adv-x="1331" d="M190 0v1421h474q211 0 354 -107t143 -249q0 -99 -82 -187.5t-250 -134.5q163 -25 276.5 -125.5t113.5 -232.5q0 -100 -64 -188t-180 -142.5t-256 -54.5h-529zM356 115h306q168 0 281.5 81t113.5 191q0 114 -119.5 202.5t-308.5 88.5h-273v-563zM356 801h254 q162 0 278 77.5t116 184.5q0 101 -116 172.5t-280 71.5h-252v-506z" />
<glyph unicode="C" horiz-adv-x="1282" d="M135 711q0 146 48 280t141 238q88 101 206 158t248 57q104 0 193 -17q97 -18 186 -55l-31 -170q-83 60 -165 88q-82 25 -183 25q-95 0 -181.5 -47.5t-150.5 -128.5q-137 -176 -137 -428q0 -250 137 -426q64 -82 150.5 -130.5t181.5 -48.5q122 0 205 25q75 25 182 105 l13 -144q-110 -69 -191 -92q-87 -23 -209 -23q-129 0 -247.5 57.5t-206.5 158.5q-93 105 -141 239.5t-48 278.5z" />
<glyph unicode="D" horiz-adv-x="1441" d="M186 0v1421h527q169 0 311 -97t223.5 -263t81.5 -363q0 -143 -48.5 -272.5t-131 -222.5t-196.5 -148t-240 -55h-527zM358 115h308q100 0 188.5 39.5t156 112t107 184.5t39.5 249q0 136 -38.5 251t-104.5 192.5t-156 120.5t-192 43h-308v-1192z" />
<glyph unicode="E" horiz-adv-x="1193" d="M184 0v1417h897v-129h-368q-13 0 -37 1t-37 1h-279v-491h664v-123h-664v-539h406q12 0 36.5 1t37.5 1h268v-139h-924z" />
<glyph unicode="F" horiz-adv-x="1138" d="M184 0v1417h869v-129h-355q-12 0 -36 1t-37 1h-265v-520h609v-123h-609v-647h-176z" />
<glyph unicode="G" horiz-adv-x="1337" d="M135 711q0 146 48 280t141 238q88 101 206 158t248 57q111 0 209 -23q91 -21 197 -78l-29 -169q-93 79 -176 108q-83 33 -201 33q-95 0 -181.5 -47.5t-150.5 -128.5q-137 -176 -137 -428q0 -250 137 -426q64 -82 150.5 -130.5t181.5 -48.5q137 0 264 44v348h-264v123h422 v-543q-200 -101 -422 -101q-129 0 -247.5 57.5t-206.5 158.5q-93 105 -141 239.5t-48 278.5z" />
<glyph unicode="H" horiz-adv-x="1404" d="M184 0v1421h176v-620h682v620h177v-1421h-177v678h-682v-678h-176z" />
<glyph unicode="I" horiz-adv-x="544" d="M184 0v1421h176v-1421h-176z" />
<glyph unicode="J" horiz-adv-x="940" d="M84 43l29 154q42 -49 107.5 -81t146.5 -32q65 0 112.5 18.5t74 51t38.5 71.5t12 86v1110h172v-1118q0 -163 -94 -254.5t-256 -91.5q-174 0 -342 86z" />
<glyph unicode="K" horiz-adv-x="1380" d="M186 0v1421h172v-755l717 755h193l-535 -563l561 -858h-188l-483 741l-265 -278v-463h-172z" />
<glyph unicode="L" horiz-adv-x="1083" d="M184 0v1421h176v-1294h99l538 4v-131h-813z" />
<glyph unicode="M" horiz-adv-x="1740" d="M195 0v1421h233l311 -837q24 -62 70 -199q54 -159 59 -190h2q18 85 179 519q18 51 28 77l234 630h233v-1421h-158v1266h-2q-24 -99 -185.5 -538.5t-256.5 -684.5h-149q-408 1072 -439 1221h-2v-1264h-157z" />
<glyph unicode="N" horiz-adv-x="1404" d="M186 0v1421h252l453 -925l166 -344h2v1269h158v-1421h-252l-453 926l-166 344h-2v-1270h-158z" />
<glyph unicode="O" horiz-adv-x="1478" d="M111 707q0 157 50.5 298t135.5 241.5t200.5 159t241.5 58.5q123 0 237.5 -58t200.5 -157t137.5 -241t51.5 -301q0 -157 -51 -297t-136.5 -239t-201 -156.5t-240.5 -57.5q-123 0 -237 57t-200 155t-137.5 239t-51.5 299zM287 737q0 -144 37 -267.5t99.5 -206.5t144.5 -130 t171 -47q86 0 167 46t144.5 128t101.5 206.5t38 270.5q0 135 -38 249.5t-101 190t-144.5 118t-169.5 42.5q-86 0 -166.5 -41.5t-143.5 -116.5t-101.5 -190t-38.5 -252z" />
<glyph unicode="P" horiz-adv-x="1275" d="M186 0v1421h500q204 0 340.5 -123t136.5 -290q0 -80 -35 -155t-96.5 -133t-152 -93t-193.5 -35h-324v-592h-176zM358 711h285q168 0 263 85.5t95 213.5q0 124 -93.5 210.5t-264.5 86.5h-285v-596z" />
<glyph unicode="Q" horiz-adv-x="1478" d="M111 707q0 157 50.5 298t135.5 241.5t200.5 159t241.5 58.5q123 0 237.5 -58t200.5 -157t137.5 -241t51.5 -301q0 -399 -297 -639l240 -324h-207l-172 248q-95 -35 -191 -35q-125 0 -240.5 57.5t-200.5 156.5t-136 239t-51 297zM283 707q0 -139 38 -257.5t101 -197.5 t145.5 -123.5t171.5 -44.5q62 0 115 18l-205 295h178l160 -215q88 73 147.5 208t59.5 317q0 140 -37.5 259.5t-101 200t-146 125.5t-172.5 45q-87 0 -168.5 -44.5t-145 -124t-102 -200t-38.5 -261.5z" />
<glyph unicode="R" horiz-adv-x="1290" d="M186 0v1421h484q214 0 361 -113.5t147 -269.5q0 -119 -91 -221.5t-253 -148.5l399 -668h-176l-379 649h-320v-649h-172zM358 772h289q93 0 166 23.5t116 62.5t65 85t22 95q0 111 -96.5 190t-272.5 79h-289v-535z" />
<glyph unicode="S" horiz-adv-x="1114" d="M90 98l31 166q89 -82 202.5 -126t227.5 -44q128 0 210.5 81.5t82.5 191.5q0 51 -19 97.5t-47 76.5q-48 49 -89.5 66.5t-178.5 51.5q-114 29 -173 56.5t-128 97.5q-14 14 -31.5 37.5t-42 85.5t-24.5 127q0 77 32.5 149t90 128t143.5 90t186 34q65 0 120.5 -8.5t103.5 -26 t75 -30t70 -35.5l-31 -166q-70 62 -146.5 97.5t-193.5 35.5q-130 0 -211.5 -74t-81.5 -172q0 -13 1.5 -26.5t4 -24t7.5 -22t8 -19.5t10 -18l10.5 -15t11 -14.5t10.5 -12.5t10.5 -11t8.5 -9q31 -30 73.5 -45t162.5 -45q84 -21 123.5 -34t89 -43t94.5 -78q108 -122 108 -281 q0 -85 -33.5 -163t-92 -137t-143.5 -94.5t-181 -35.5q-248 0 -461 141z" />
<glyph unicode="T" horiz-adv-x="1368" d="M72 1282v129h1222v-129h-268q-12 0 -37 1t-37 1h-180v-1284h-176v1284h-180q-12 0 -37 -1t-37 -1h-270z" />
<glyph unicode="U" horiz-adv-x="1366" d="M184 477v944h176v-946q0 -100 28 -179t75.5 -126.5t105 -72.5t119.5 -25q63 0 122 25t107.5 73t77.5 127t29 178v946h156v-944q0 -145 -68 -265t-181 -187.5t-245 -67.5t-247 66.5t-185 187t-70 266.5z" />
<glyph unicode="V" horiz-adv-x="1325" d="M29 1421h184l328 -878q117 -313 133 -391h2q22 94 207 589l256 680h155l-540 -1421h-185z" />
<glyph unicode="W" horiz-adv-x="1882" d="M29 1421h174l172 -622l88 -328q1 -4 12.5 -51t21.5 -89.5t20 -93.5t13 -79h2q6 60 43.5 214t65 256.5t43.5 157.5l176 635h174l242 -880q76 -269 90 -385h2q9 83 66 290q14 50 26.5 98t24 91t31.5 115l186 671h149l-401 -1421h-180l-223 811q-43 156 -70.5 270t-34.5 151 l-6 36h-2q-12 -113 -141 -572l-193 -696h-170z" />
<glyph unicode="X" horiz-adv-x="1325" d="M29 0l532 750l-506 671h207l385 -536l375 536h190l-479 -671l561 -750h-204l-443 627l-430 -627h-188z" />
<glyph unicode="Y" horiz-adv-x="1325" d="M6 1421h205l348 -522q71 -107 117 -184q60 100 112 176l353 530h176l-569 -852v-569h-173v569z" />
<glyph unicode="Z" horiz-adv-x="1224" d="M111 0v84l778 1214h-275q-12 0 -36 -1t-37 -1h-402v125h973v-82l-778 -1212h65l531 4h192v-131h-1011z" />
<glyph unicode="[" horiz-adv-x="579" d="M203 -512v2048h332v-123h-187v-1802h187v-123h-332z" />
<glyph unicode="\" horiz-adv-x="1024" d="M115 1495q0 17 12 29t29 12q14 0 23 -7.5t13 -15t9 -22.5l696 -1925l10 -37q0 -17 -12 -29t-29 -12q-14 0 -23 7.5t-13 15t-9 22.5l-696 1925z" />
<glyph unicode="]" horiz-adv-x="579" d="M43 -389h186v1802h-186v123h332v-2048h-332v123z" />
<glyph unicode="^" horiz-adv-x="1138" d="M-10 1196l579 328l580 -328l-25 -45l-557 252l-555 -252z" />
<glyph unicode="_" horiz-adv-x="1325" d="M0 -178h1325v-156h-1325v156z" />
<glyph unicode="`" d="M221 1421h156l266 -342h-123z" />
<glyph unicode="a" horiz-adv-x="960" d="M111 236q0 75 56 132t161 93q125 42 338 51v84q0 107 -51 166t-126 59q-164 0 -303 -102l-12 135q151 86 315 86q143 0 237.5 -96.5t94.5 -243.5v-600h-151v76q-54 -45 -148 -70.5t-184 -25.5q-50 0 -90.5 18t-65 46t-41.5 63.5t-23.5 67.5t-6.5 61zM256 238 q0 -58 52 -97t134 -39q92 0 156 41q32 19 48 44.5t18 42t2 44.5v134q-56 0 -118.5 -7.5t-132 -25t-114.5 -53t-45 -84.5z" />
<glyph unicode="b" horiz-adv-x="1028" d="M160 0v1421h151v-606q143 115 318 115q92 0 167.5 -65.5t116.5 -173.5t41 -234q0 -204 -111 -340.5t-261 -136.5t-267 112v-92h-155zM315 266q0 -63 58 -114q64 -50 133 -50q40 0 79 11t78 37.5t69 66t48.5 101.5t18.5 139q0 92 -24.5 162t-65.5 109.5t-87 59t-96 19.5 q-69 0 -124 -34t-87 -83v-424z" />
<glyph unicode="c" horiz-adv-x="890" d="M72 457q0 89 30 174t84.5 154.5t140 112t187.5 42.5q93 0 156.5 -17.5t150.5 -68.5l-24 -133q-76 51 -132 71.5t-151 20.5q-74 0 -131 -31.5t-90 -83.5t-49.5 -113t-16.5 -128q0 -152 77.5 -251.5t203.5 -99.5q171 0 313 115l4 -57q1 -6 5 -39.5t4 -38.5 q-146 -106 -328 -106q-183 0 -308.5 139.5t-125.5 337.5z" />
<glyph unicode="d" horiz-adv-x="1028" d="M72 455q0 131 47.5 240.5t129 172t177.5 62.5q160 0 289 -107v598h151v-1421h-155v104q-126 -124 -293 -124q-96 0 -175.5 63.5t-125 172.5t-45.5 239zM227 453q0 -91 24.5 -161.5t65.5 -110t87.5 -59.5t95.5 -20q133 0 211 140v456q-72 109 -191 109q-38 0 -76.5 -10.5 t-78 -36.5t-70 -64.5t-49.5 -101.5t-19 -141z" />
<glyph unicode="e" horiz-adv-x="890" d="M68 461q0 199 119.5 339t285.5 140q28 0 59 -5.5t73.5 -20t84 -49t70.5 -83.5q74 -122 74 -321h-625q3 -159 89 -259t208 -100q164 0 303 117l6 -55q6 -68 6 -76q-149 -108 -319 -108q-179 0 -306.5 140t-127.5 341zM221 571h492q-10 62 -32.5 108.5t-48.5 72t-58 41 t-55 20t-46 4.5q-88 0 -156.5 -70t-95.5 -176z" />
<glyph unicode="f" horiz-adv-x="612" d="M53 791v118h150v185q0 150 94 249t240 99q83 0 157 -21v-135q-83 33 -159 33q-30 0 -58.5 -6.5t-59 -23t-49 -51t-18.5 -83.5v-246h223v-118h-219v-791h-151v791h-150z" />
<glyph unicode="g" d="M55 -145q0 53 29.5 110t99.5 103q-51 60 -51 153q0 92 60 176q-68 92 -68 203q0 136 94 233t227 97q110 0 191 -68q139 68 313 68l23 -125q-51 4 -105 4q-56 0 -163 -10l-7 8q68 -95 68 -207q0 -139 -94.5 -235.5t-227.5 -96.5q-100 0 -184 60q-20 -30 -20 -76 q0 -109 116 -109h174q30 0 50.5 -0.5t67.5 -6t81.5 -15.5t78 -31t71.5 -50.5t47.5 -76.5t19.5 -106q0 -117 -129 -197t-317 -80q-186 0 -315.5 81t-129.5 194zM199 -143q0 -73 89.5 -118.5t213.5 -45.5q123 0 212 46.5t89 115.5q0 33 -16 59t-45 40.5t-56.5 24t-64 12.5 t-53 4t-36.5 1h-178q-44 0 -76 -14.5t-46.5 -32t-22.5 -41.5t-9 -33.5t-1 -17.5zM266 598q0 -109 52.5 -163t127.5 -54q28 0 55.5 9.5t57 31.5t48 68t18.5 110q0 109 -53 163t-128 54q-28 0 -55.5 -9.5t-56.5 -31.5t-47.5 -68t-18.5 -110z" />
<glyph unicode="h" horiz-adv-x="1028" d="M158 0v1421h151v-633q46 58 118 100t167 42q71 0 123.5 -21.5t80.5 -52.5t44.5 -76.5t21 -82t4.5 -81.5v-616h-155v602q0 29 -2 50t-13 52.5t-30.5 52t-58.5 35.5t-93 15q-56 0 -97.5 -28t-63 -73.5t-32 -94.5t-10.5 -101v-510h-155z" />
<glyph unicode="i" horiz-adv-x="471" d="M147 1163v176h177v-176h-177zM160 0v909h151v-909h-151z" />
<glyph unicode="j" horiz-adv-x="528" d="M-127 -348l41 123q5 -7 20 -20t52 -28.5t77 -15.5q16 0 32.5 2t39.5 11t39.5 24t28.5 44t12 67v1050h152v-1030q0 -136 -74.5 -216.5t-177.5 -80.5q-124 0 -242 70zM190 1163v176h177v-176h-177z" />
<glyph unicode="k" horiz-adv-x="972" d="M160 0v1421h149v-923l396 411h188l-336 -350l381 -559h-168l-311 457l-156 -162v-295h-143z" />
<glyph unicode="l" horiz-adv-x="471" d="M160 0v1421h151v-1421h-151z" />
<glyph unicode="m" horiz-adv-x="1585" d="M158 0v920h145v-142q21 26 38.5 43.5t55 47t88 45.5t109.5 16q91 0 160.5 -38.5t95.5 -127.5q16 24 37 46t58.5 52.5t91 49t114.5 18.5q69 0 120.5 -19.5t80.5 -49.5t46.5 -74t23 -83.5t5.5 -87.5v-616h-155v602q0 29 -2.5 51t-14 53t-31 51.5t-58.5 35t-93 14.5 q-71 0 -118.5 -47.5t-66 -111.5t-18.5 -138v-510h-155v602q0 29 -2.5 51t-14 53t-31 51.5t-58.5 35t-93 14.5q-71 0 -118.5 -47.5t-66 -111.5t-18.5 -138v-510h-155z" />
<glyph unicode="n" horiz-adv-x="1028" d="M158 0v920h145v-140q119 150 291 150q71 0 123.5 -21.5t80.5 -52.5t44.5 -76.5t21 -82t4.5 -81.5v-616h-155v602q0 29 -2 50t-13 52.5t-30.5 52t-58.5 35.5t-93 15q-56 0 -97.5 -28t-63 -73.5t-32 -94.5t-10.5 -101v-510h-155z" />
<glyph unicode="o" d="M61 451q0 203 129.5 346t311.5 143q117 0 217.5 -64t160.5 -177t60 -248q0 -197 -129 -334t-311 -137q-86 0 -166.5 36.5t-140.5 98.5t-96 150t-36 186zM217 471q0 -172 83.5 -268.5t201.5 -96.5q53 0 102 22t90 65t65.5 115t24.5 163q0 87 -24.5 155t-65 108.5t-90 61.5 t-104.5 21q-51 0 -99 -20t-90.5 -59.5t-68 -108.5t-25.5 -158z" />
<glyph unicode="p" horiz-adv-x="1028" d="M160 -397v1306h151v-96q73 62 160 89.5t162 27.5q92 0 166.5 -66.5t114.5 -174.5t40 -232q0 -205 -110.5 -341t-261.5 -136q-143 0 -267 112v-489h-155zM315 266q0 -63 58 -114q64 -50 133 -50q117 0 205 101.5t88 251.5q0 146 -80.5 247t-194.5 101q-62 0 -117.5 -31 t-91.5 -84v-422z" />
<glyph unicode="q" horiz-adv-x="1028" d="M72 453q0 202 110.5 339.5t263.5 137.5q155 0 269 -131v131h151v-1327h-155v501q-21 -23 -54 -47t-101 -50.5t-140 -26.5q-144 0 -244 138.5t-100 334.5zM227 453q0 -144 80 -247.5t195 -103.5q117 0 190 111q17 23 20 32.5t3 39.5v303q0 45 -20.5 92.5t-67 85 t-107.5 37.5q-114 0 -203.5 -99t-89.5 -251z" />
<glyph unicode="r" horiz-adv-x="681" d="M160 0v920h141v-181q24 34 53 64t71.5 60t101 48t124.5 19v-137q-142 -2 -241 -97.5t-99 -246.5v-449h-151z" />
<glyph unicode="s" horiz-adv-x="768" d="M55 70l25 139q143 -103 311 -103q13 0 24.5 1t36.5 4.5t45 13t40 24t31.5 40.5t11.5 59q0 31 -14 56t-31 39t-47.5 26t-47.5 16t-47 10q-103 21 -149 38t-97 61q-79 74 -79 180q0 55 16.5 98.5t40.5 70.5t59.5 47t64 29t65 14.5t52 6t33.5 0.5q154 0 289 -63l-24 -134 q-134 76 -285 76q-15 0 -28.5 -1t-42 -7.5t-48 -18.5t-35.5 -38t-16 -62q0 -29 12.5 -52t28 -36t43.5 -24t46 -15t48 -10q77 -15 110.5 -24t74 -31t77.5 -60l5 -5q4 -5 7.5 -10t9.5 -13t11 -17t11.5 -20.5t11 -24t8.5 -27t6 -30.5t2 -33q0 -39 -8.5 -75.5t-31.5 -75 t-58.5 -66t-94.5 -45.5t-135 -18q-53 0 -107 9t-90.5 20.5t-72 26.5t-47.5 21.5t-21 12.5z" />
<glyph unicode="t" horiz-adv-x="724" d="M37 791v118h172v260h141v-260h283v-118h-283v-517q0 -168 103 -168q102 0 184 72l31 -119q-151 -79 -295 -79q-168 0 -168 260v551h-168z" />
<glyph unicode="u" horiz-adv-x="1028" d="M158 227v682h155v-673q0 -38 5 -61t20.5 -44t48 -30t84.5 -9q105 0 173.5 60t68.5 172v585h155v-909h-151v102q-57 -51 -133.5 -81t-122 -35.5t-88.5 -5.5q-119 0 -167 63.5t-48 183.5z" />
<glyph unicode="v" horiz-adv-x="917" d="M29 909h159l189 -526q73 -207 82 -272h2q13 84 123 391q11 30 149 407h154l-338 -909h-182z" />
<glyph unicode="w" horiz-adv-x="1363" d="M29 909h155l146 -506q59 -208 63 -284h2q7 96 92 389l117 401h141l136 -463q71 -238 82 -331h2q8 89 94 379l123 415h149l-274 -909h-180l-146 512q-54 183 -59 279h-2q-6 -66 -47 -225.5t-71.5 -263t-90.5 -302.5h-158z" />
<glyph unicode="x" horiz-adv-x="917" d="M0 0l383 469l-373 440h174l269 -331l258 331h172l-363 -440l395 -469h-172l-290 381l-283 -381h-170z" />
<glyph unicode="y" horiz-adv-x="917" d="M29 909h161l146 -358q126 -323 135 -432h2q3 52 27 141t74.5 228.5t75.5 205t83 215.5h154l-428 -1102q-25 -64 -54 -109.5t-51.5 -67.5t-51 -33.5t-42 -13t-35.5 -1.5q-43 0 -145 17l-12 133q78 -31 157 -31q32 0 57 21.5t56 91.5l72 186z" />
<glyph unicode="z" horiz-adv-x="870" d="M55 0v82l535 709h-156q-12 0 -37 -1.5t-37 -1.5h-276v121h715v-80l-535 -706h174q12 0 36.5 1t37.5 1h293v-125h-750z" />
<glyph unicode="{" horiz-adv-x="1024" d="M147 512q0 23 29 23q59 4 107 22.5t66 33t40 36.5q38 41 45.5 85t7.5 197v375q3 108 119 180t273 72q16 0 22.5 -1t12 -6t5.5 -16q0 -18 -18 -22q-51 -3 -89.5 -12t-65.5 -25t-39.5 -26.5t-32.5 -30.5q-34 -36 -41.5 -79t-7.5 -165v-369q0 -26 -1.5 -44t-14.5 -55 t-36 -64.5t-72 -58t-118 -50.5q207 -59 237 -211q5 -25 5 -186v-308q0 -75 6 -98q16 -65 80.5 -117t175.5 -59q11 -1 14 -1.5t9 -2.5t7.5 -6.5t1.5 -11.5q0 -16 -9 -19.5t-31 -3.5q-62 0 -144 18.5t-141 59.5q-73 52 -90 105t-17 159v406q0 72 -27.5 124t-72 78t-83.5 37 t-79 14q-13 1 -18 2.5t-10 6.5t-5 14z" />
<glyph unicode="|" horiz-adv-x="569" d="M244 -444v1912q0 15 1 23.5t4 20.5t12 18t24 6t24 -6t12 -18t4 -20.5t1 -23.5v-1912q0 -15 -1 -23.5t-4 -20.5t-12 -18t-24 -6t-24 6t-12 18t-4 20.5t-1 23.5z" />
<glyph unicode="}" horiz-adv-x="1024" d="M147 -489q0 18 19 22q51 3 89.5 12t65.5 25t39.5 26.5t32.5 30.5q34 36 41.5 79t7.5 165v369q0 26 1.5 44t14.5 55t36 64.5t72 58t118 50.5q-208 60 -238 211q-4 20 -4 186v308q0 75 -6 98q-16 65 -80.5 117t-175.5 59q-27 3 -31 11q-2 4 -2 11q0 11 7 16t14 6t20 1 q62 0 144 -19t141 -59q73 -52 90 -105t17 -159v-406q0 -72 27.5 -124t72 -78t83.5 -37t79 -14q13 -1 18 -2.5t9.5 -6t4.5 -14.5q0 -23 -28 -23q-59 -4 -107 -22.5t-66 -33t-40 -36.5q-38 -41 -45.5 -85t-7.5 -197v-375q-3 -108 -119 -180t-273 -72q-13 0 -20 1t-14 6t-7 16z " />
<glyph unicode="~" horiz-adv-x="1138" d="M0 430l111 90q45 37 116 72q83 37 150 37q38 0 77.5 -11.5t65 -24t62.5 -34.5q49 -28 72 -39.5t63 -24t78 -12.5q139 0 313 146l29 -35l-111 -90q-44 -36 -117 -72q-83 -37 -149 -37q-38 0 -77.5 11.5t-65 24t-62.5 34.5q-49 28 -72 39.5t-63 24t-78 12.5 q-139 0 -313 -146z" />
<glyph unicode="&#xa0;" />
<glyph unicode="&#xa1;" horiz-adv-x="636" d="M236 -397l16 1067h133l16 -1067h-165zM236 858v166h165v-166h-165z" />
<glyph unicode="&#xa2;" horiz-adv-x="890" d="M72 457q0 107 40 205.5t122.5 173t191.5 96.5v104h127v-96q74 -3 132 -21.5t136 -64.5l-24 -133q-71 47 -119.5 67.5t-124.5 24.5v-704q143 12 268 112l4 -57q1 -6 5 -39.5t4 -38.5q-125 -93 -281 -104v-109h-127v115q-154 29 -254 161.5t-100 307.5zM227 457 q0 -125 53.5 -216t145.5 -122v682q-99 -32 -149 -129t-50 -215z" />
<glyph unicode="&#xa3;" horiz-adv-x="1325" d="M133 647v127h197q-30 73 -39 119q-29 132 13.5 254.5t142 198t227.5 75.5q163 0 275 -121t112 -290h-156q0 105 -66.5 180.5t-164.5 75.5q-79 0 -140 -48.5t-86 -127t-6 -162.5q5 -24 13.5 -47.5t24 -61t18.5 -45.5h297v-127h-267q11 -67 2 -141q-19 -148 -112 -311 q115 0 325 -56q102 -26 172 -26q59 0 90 56t31 134h156q0 -140 -77.5 -243t-199.5 -103q-82 0 -210 33q-56 14 -83.5 20t-81 16.5t-85.5 11.5t-71.5 -1t-66.5 -15t-45 -36l-122 98q97 122 154 224t71 216q8 55 -2 123h-240z" />
<glyph unicode="&#xa4;" horiz-adv-x="1560" d="M294.5 58.5q-1.5 9.5 4.5 20t11 16t16 16.5l155 155q-88 113 -88 246q0 138 88 244l-155 155q-11 11 -16 16.5t-11 16.5t-4 21t12 20q10 9 19.5 10.5t19.5 -4t16.5 -11t16.5 -15.5l156 -156q106 88 245 88q137 0 244 -86l156 154q11 11 16.5 15.5t16 10.5t20.5 4t20 -12 q9 -10 10.5 -19.5t-4 -19.5t-11 -16.5t-15.5 -16.5l-156 -155q88 -106 88 -244q0 -137 -88 -246l156 -155q10 -10 15.5 -16.5t11 -16.5t3.5 -20.5t-12 -20.5q-10 -9 -19.5 -11t-19.5 4.5t-15.5 11t-16.5 15.5l-156 156q-110 -86 -244 -86q-135 0 -245 86l-156 -156 q-10 -10 -16.5 -15.5t-16.5 -11t-20.5 -3.5t-20.5 12q-9 10 -10.5 19.5zM467 512q0 -129 92 -220t221 -91t220.5 91t91.5 220t-91.5 220t-220.5 91t-221 -91t-92 -220z" />
<glyph unicode="&#xa5;" horiz-adv-x="1325" d="M6 1421h205l348 -522l105 -164h24l100 156l353 530h176l-459 -686h246v-127h-330l-26 -39v-131h356v-127h-356v-311h-173v311h-354v127h354v131l-26 39h-328v127h244z" />
<glyph unicode="&#xa6;" horiz-adv-x="569" d="M244 322q0 26 10.5 44.5t30.5 18.5t30.5 -18.5t10.5 -44.5v-766q0 -15 -1 -23.5t-4 -20.5t-12 -18t-24 -6t-24 6t-12 18t-4 20.5t-1 23.5v766zM244 702v766q0 15 1 23.5t4 20.5t12 18t24 6t24 -6t12 -18t4 -20.5t1 -23.5v-766q0 -26 -10.5 -44.5t-30.5 -18.5t-30.5 18.5 t-10.5 44.5z" />
<glyph unicode="&#xa7;" horiz-adv-x="1060" d="M70 614q0 86 39.5 163t109.5 128q-67 90 -67 193q0 151 110.5 254.5t267.5 103.5q156 0 267.5 -100.5t111.5 -247.5h-155q0 88 -66 148.5t-158 60.5q-93 0 -158 -63.5t-65 -155.5q0 -125 197 -219l203 -99q125 -60 204.5 -155.5t79.5 -214.5q0 -87 -39.5 -163 t-109.5 -128q67 -93 67 -193q0 -151 -111 -254.5t-268 -103.5q-156 0 -267 100.5t-111 247.5h155q0 -88 65.5 -148.5t157.5 -60.5q93 0 158.5 63.5t65.5 155.5q0 125 -197 219l-203 99q-125 60 -204.5 155.5t-79.5 214.5zM225 614q0 -136 197 -229l203 -98q63 -33 112 -70 q47 32 73 83t26 110q0 136 -197 229l-203 98q-47 22 -112 68q-47 -30 -73 -81.5t-26 -109.5z" />
<glyph unicode="&#xa8;" d="M279 1171v160h157v-160h-157zM567 1171v160h158v-160h-158z" />
<glyph unicode="&#xa9;" horiz-adv-x="1421" d="M0 711q0 193 95 356.5t259 258.5t357 95t356.5 -95t258.5 -258.5t95 -356.5t-95 -357t-258.5 -259t-356.5 -95q-145 0 -276.5 56.5t-226.5 151.5t-151.5 226.5t-56.5 276.5zM72 711q0 -130 50.5 -248t136.5 -204t204 -136.5t248 -50.5t248.5 50.5t204 136.5t136 204 t50.5 248q0 174 -85.5 321t-232.5 232.5t-321 85.5q-130 0 -248 -50.5t-204 -136t-136.5 -204t-50.5 -248.5zM332 711q0 130 53.5 241.5t151.5 179.5t219 68q119 0 237 -47l-18 -106q-97 71 -221 71q-130 0 -219 -119.5t-89 -287.5q0 -104 36.5 -195.5t109.5 -151t168 -59.5 q77 0 127 18t114 66l7 -92q-70 -44 -121 -59t-129 -15q-123 0 -222 69t-151.5 180t-52.5 239z" />
<glyph unicode="&#xaa;" horiz-adv-x="747" d="M76 973q0 105 182 157q107 30 285 35v60q0 75 -43 116t-107 41q-134 0 -254 -71l-10 94q121 59 264 59q120 0 199.5 -67t79.5 -170v-420h-127v53q-45 -32 -124 -49.5t-155 -17.5q-51 0 -90 19t-59.5 48t-30.5 58t-10 55zM139 686q0 19 19 32t45 13h342q27 0 45 -13 t18 -32t-17.5 -31t-45.5 -12h-342q-27 0 -45.5 12.5t-18.5 30.5zM199 973q0 -40 43.5 -67t111.5 -27q78 0 131 28q26 13 40 31t16 30t2 31v93q-47 0 -99.5 -5t-111 -17t-96 -37.5t-37.5 -59.5z" />
<glyph unicode="&#xab;" d="M223 461l211 459h123l-178 -459l178 -461h-123zM557 461l211 459h123l-178 -459l178 -461h-123z" />
<glyph unicode="&#xac;" horiz-adv-x="1560" d="M111 709q0 15 10.5 25.5t25.5 10.5h1264q15 0 26 -10.5t11 -25.5v-396q0 -15 -11 -26t-26 -11t-26 11t-11 26v359h-1227q-15 0 -25.5 11t-10.5 26z" />
<glyph unicode="&#xad;" horiz-adv-x="667" d="M23 395v119h532v-119h-532z" />
<glyph unicode="&#xae;" horiz-adv-x="1421" d="M0 711q0 193 95 356.5t259 258.5t357 95t356.5 -95t258.5 -258.5t95 -356.5t-95 -357t-258.5 -259t-356.5 -95q-145 0 -276.5 56.5t-226.5 151.5t-151.5 226.5t-56.5 276.5zM72 711q0 -130 50.5 -248t136.5 -204t204 -136.5t248 -50.5t248.5 50.5t204 136.5t136 204 t50.5 248q0 174 -85.5 321t-232.5 232.5t-321 85.5q-130 0 -248 -50.5t-204 -136t-136.5 -204t-50.5 -248.5zM403 250v921h314q138 0 232.5 -73t94.5 -174q0 -77 -59 -143.5t-164 -96.5l260 -434h-114l-246 422h-207v-422h-111zM514 752h186q117 0 178.5 51.5t61.5 120.5 q0 72 -62.5 123t-177.5 51h-186v-346z" />
<glyph unicode="&#xaf;" d="M139 1186v129h723v-129h-723z" />
<glyph unicode="&#xb0;" horiz-adv-x="751" d="M98 1143q0 117 81 197.5t198 80.5q116 0 197 -80.5t81 -197.5q0 -116 -81.5 -197.5t-196.5 -81.5q-117 0 -198 81.5t-81 197.5zM172 1143q0 -85 59.5 -145t145.5 -60q85 0 145 60t60 145q0 86 -60 145.5t-145 59.5q-86 0 -145.5 -59.5t-59.5 -145.5z" />
<glyph unicode="&#xb1;" horiz-adv-x="1560" d="M111 39q0 17 11.5 26t22.5 10t31 1h565v555h-565q-16 0 -24 0.5t-19.5 4t-16.5 12t-5 22.5q0 17 11.5 26t22.5 10t31 1h565v565q0 16 0.5 24t4 19.5t12 16.5t22.5 5q17 0 26 -11.5t10 -22.5t1 -31v-565h565q16 0 24 -0.5t19.5 -4t17 -12t5.5 -22.5q0 -17 -12 -26t-23 -10 t-31 -1h-565v-555h565q16 0 24 -0.5t19.5 -4t17 -12t5.5 -22.5q0 -17 -12 -26t-23 -10t-31 -1h-1206q-16 0 -24 0.5t-19.5 4t-16.5 12t-5 22.5z" />
<glyph unicode="&#xb2;" horiz-adv-x="708" d="M61 1264q68 200 279 200q140 0 224.5 -76.5t84.5 -183.5q0 -41 -15 -78t-47 -71.5t-61.5 -59.5t-79.5 -61q-168 -126 -270 -217h158q8 0 26 1t27 1h262v-84h-577v78l329 272q129 105 129 215q0 81 -57.5 135t-150.5 54q-80 0 -126.5 -45.5t-74.5 -145.5q-28 32 -60 66z " />
<glyph unicode="&#xb3;" horiz-adv-x="720" d="M61 737l15 74q50 -64 126 -96.5t154 -32.5q77 0 128 50t51 124q0 29 -8.5 57t-28.5 56t-59.5 45.5t-94.5 17.5h-104v74q64 8 116 8q61 12 104.5 59t43.5 107q0 56 -43 85.5t-105 29.5q-73 0 -135 -36t-90 -95l-51 65q42 62 116 98.5t162 36.5q108 0 185.5 -53.5 t77.5 -130.5q0 -63 -42.5 -119.5t-117.5 -91.5q93 -26 147 -84t54 -129q0 -100 -88.5 -174t-215.5 -74q-72 0 -153 28t-144 101z" />
<glyph unicode="&#xb4;" d="M360 1079l267 342h155l-299 -342h-123z" />
<glyph unicode="&#xb5;" horiz-adv-x="1028" d="M156 -397v1306h157v-669q0 -39 4.5 -62t19.5 -45t47.5 -31.5t86.5 -9.5q47 0 89 13t77 40t55.5 74t20.5 109v581h157v-909h-153v102q-135 -122 -344 -122q-37 0 -60 4v-381h-157z" />
<glyph unicode="&#xb6;" horiz-adv-x="1251" d="M115 948q0 127 67.5 236t185.5 173t259 64h497q15 0 23.5 -1t20.5 -4t18 -12t6 -24t-6 -24t-18 -12t-20.5 -4t-23.5 -1h-102v-1669q0 -12 -0.5 -18.5t-2.5 -17t-6 -16.5t-12 -10.5t-20 -4.5q-19 0 -28.5 12t-11 23.5t-1.5 31.5v1669h-143v-1669q0 -12 -0.5 -18.5 t-2.5 -17t-6 -16.5t-12 -10.5t-20 -4.5q-19 0 -28.5 12t-11 23.5t-1.5 31.5v801q-81 3 -163 22t-161.5 58t-140 92.5t-98 132.5t-37.5 172z" />
<glyph unicode="&#xb7;" horiz-adv-x="1560" d="M696 629v166h166v-166h-166z" />
<glyph unicode="&#xb8;" horiz-adv-x="890" d="M291 -391l147 344h123l-131 -344h-139z" />
<glyph unicode="&#xb9;" horiz-adv-x="743" d="M129 1313v49q0 16 3.5 19t19.5 3q151 4 249 76q4 3 5 4h28v-757h180v-72h-475v72h180v634q-92 -28 -190 -28z" />
<glyph unicode="&#xba;" horiz-adv-x="841" d="M51 1122q0 142 109 242t262 100q150 0 259.5 -99t109.5 -243q0 -137 -109 -233t-262 -96q-150 0 -259.5 95t-109.5 234zM115 686q0 19 18.5 32t44.5 13h486q26 0 44.5 -13t18.5 -32t-18 -31t-45 -12h-486q-27 0 -45 12t-18 31zM182 1137q0 -120 70 -187t170 -67 q96 0 166.5 65.5t70.5 188.5q0 118 -70.5 179.5t-168.5 61.5q-43 0 -83.5 -13.5t-76 -41t-57 -76t-21.5 -110.5z" />
<glyph unicode="&#xbb;" d="M113 0l178 461l-178 459h123l210 -459l-210 -461h-123zM446 0l179 461l-179 459h123l211 -459l-211 -461h-123z" />
<glyph unicode="&#xbc;" horiz-adv-x="1566" d="M129 1313v49q0 16 3.5 19t19.5 3q151 4 249 76q4 3 5 4h28v-757h180v-72h-475v72h180v634q-92 -28 -190 -28zM418 41l801 1339h86l-801 -1339h-86zM795 211v74l366 520h133v-520h144v-74h-144v-211h-116v211h-383zM909 285h275v465q0 -44 -113 -226q-27 -44 -56 -86.5 t-61.5 -89t-44.5 -63.5z" />
<glyph unicode="&#xbd;" horiz-adv-x="1566" d="M129 1313v49q0 16 3.5 19t19.5 3q151 4 249 76q4 3 5 4h28v-757h180v-72h-475v72h180v634q-92 -28 -190 -28zM338 41l803 1339h86l-803 -1339h-86zM848 629q72 202 280 202q140 0 225 -77.5t85 -184.5q0 -41 -15 -77.5t-47 -71t-62 -60t-79 -61.5q-112 -82 -272 -217h157 q9 0 27.5 1t26.5 1h264v-84h-578v78l330 272q129 108 129 217q0 80 -58 133.5t-151 53.5q-81 0 -127 -45t-74 -146q-5 5 -19.5 21.5t-41.5 44.5z" />
<glyph unicode="&#xbe;" horiz-adv-x="1566" d="M121 737l16 74q48 -64 125 -96.5t154 -32.5q78 0 128 50t50 124q0 29 -8.5 57t-28 56t-58.5 45.5t-93 17.5h-105v74q56 8 115 8q61 12 104 59t43 107q0 56 -42 85.5t-103 29.5q-73 0 -135 -36t-90 -95l-54 65q43 62 117.5 98.5t161.5 36.5q108 0 186 -53.5t78 -130.5 q0 -63 -42.5 -119.5t-119.5 -91.5q93 -26 147 -84t54 -129q0 -100 -87.5 -174t-215.5 -74q-44 0 -88.5 8.5t-104.5 39.5t-104 81zM418 41l801 1339h86l-801 -1339h-86zM795 211v74l366 520h133v-520h144v-74h-144v-211h-116v211h-383zM909 285h275v465q0 -44 -113 -226 q-27 -44 -56 -86.5t-61.5 -89t-44.5 -63.5z" />
<glyph unicode="&#xbf;" horiz-adv-x="946" d="M111 -100q0 149 88 233q86 88 132 200t46 234v103h133v-109q0 -139 -48.5 -269.5t-139.5 -236.5q-19 -24 -27.5 -36.5t-18.5 -45.5t-10 -77q0 -96 40 -143.5t140 -47.5q183 0 342 113l46 -127q-181 -109 -388 -109q-89 0 -155.5 25.5t-104.5 70.5t-56.5 100.5 t-18.5 121.5zM360 858v166h166v-166h-166z" />
<glyph unicode="&#xc0;" horiz-adv-x="1325" d="M55 0l516 1421h181l516 -1421h-183l-151 416h-578l-149 -416h-152zM274 1776h228l358 -250h-182zM401 530h490l-246 744z" />
<glyph unicode="&#xc1;" horiz-adv-x="1325" d="M55 0l516 1421h181l516 -1421h-183l-151 416h-578l-149 -416h-152zM401 530h490l-246 744zM467 1526l358 250h228l-404 -250h-182z" />
<glyph unicode="&#xc2;" horiz-adv-x="1325" d="M55 0l516 1421h181l516 -1421h-183l-151 416h-578l-149 -416h-152zM344 1505l258 275h123l258 -275h-121l-198 199l-199 -199h-121zM401 530h490l-246 744z" />
<glyph unicode="&#xc3;" horiz-adv-x="1325" d="M55 0l516 1421h181l516 -1421h-183l-151 416h-578l-149 -416h-152zM330 1505q3 114 62 178t132 64q36 0 69.5 -16t82.5 -52q73 -51 119 -51q40 0 58.5 36t18.5 83h123q-3 -114 -62 -178t-132 -64q-36 0 -69.5 16t-82.5 52q-73 51 -119 51q-40 0 -58.5 -36t-18.5 -83h-123 zM401 530h490l-246 744z" />
<glyph unicode="&#xc4;" horiz-adv-x="1325" d="M55 0l516 1421h181l516 -1421h-183l-151 416h-578l-149 -416h-152zM401 530h490l-246 744zM414 1505v160h157v-160h-157zM756 1505v160h157v-160h-157z" />
<glyph unicode="&#xc5;" horiz-adv-x="1325" d="M55 0l516 1421h181l516 -1421h-183l-151 416h-578l-149 -416h-152zM401 530h490l-246 744zM440 1595q0 67 64.5 118.5t159.5 51.5q93 0 158 -51t65 -123q0 -67 -64 -118.5t-159 -51.5q-94 0 -159 51t-65 123zM563 1593q0 -75 101 -75q39 0 69.5 16.5t30.5 58.5 q0 76 -100 76q-39 0 -70 -17t-31 -59z" />
<glyph unicode="&#xc6;" horiz-adv-x="1720" d="M55 0l563 1421h990v-129h-308q-12 0 -36 1t-37 1h-219v-493h542v-123h-542v-541h329q13 0 37 1t37 1h223v-139h-800v455h-447l-180 -455h-152zM432 569h402v725h-115z" />
<glyph unicode="&#xc7;" horiz-adv-x="1282" d="M135 711q0 149 49 286.5t134.5 240.5t209 164.5t263.5 61.5q182 0 366 -71l-31 -166q-150 110 -340 110q-133 0 -242.5 -85t-171 -228.5t-61.5 -312.5q0 -161 56.5 -302.5t169 -233t258.5 -91.5q120 0 196 27.5t176 101.5l13 -141q-108 -68 -187 -91.5t-200 -23.5 q-143 0 -267.5 62.5t-209 166.5t-133 241t-48.5 284zM528 -434l148 344h123l-131 -344h-140z" />
<glyph unicode="&#xc8;" horiz-adv-x="1193" d="M184 0v1417h897v-129h-368q-13 0 -37 1t-37 1h-279v-491h664v-123h-664v-539h406q12 0 36.5 1t37.5 1h268v-139h-924zM209 1776h227l359 -250h-183z" />
<glyph unicode="&#xc9;" horiz-adv-x="1193" d="M184 0v1417h897v-129h-368q-13 0 -37 1t-37 1h-279v-491h664v-123h-664v-539h406q12 0 36.5 1t37.5 1h268v-139h-924zM401 1526l359 250h227l-403 -250h-183z" />
<glyph unicode="&#xca;" horiz-adv-x="1193" d="M184 0v1417h897v-129h-368q-13 0 -37 1t-37 1h-279v-491h664v-123h-664v-539h406q12 0 36.5 1t37.5 1h268v-139h-924zM279 1505l258 275h122l259 -275h-121l-199 199l-199 -199h-120z" />
<glyph unicode="&#xcb;" horiz-adv-x="1193" d="M184 0v1417h897v-129h-368q-13 0 -37 1t-37 1h-279v-491h664v-123h-664v-539h406q12 0 36.5 1t37.5 1h268v-139h-924zM348 1505v160h158v-160h-158zM690 1505v160h158v-160h-158z" />
<glyph unicode="&#xcc;" horiz-adv-x="544" d="M-225 1776h227l358 -250h-182zM184 0v1421h176v-1421h-176z" />
<glyph unicode="&#xcd;" horiz-adv-x="544" d="M184 0v1421h176v-1421h-176zM184 1526l359 250h227l-403 -250h-183z" />
<glyph unicode="&#xce;" horiz-adv-x="544" d="M-47 1505l258 275h123l258 -275h-121l-199 199l-198 -199h-121zM184 0v1421h176v-1421h-176z" />
<glyph unicode="&#xcf;" horiz-adv-x="544" d="M23 1505v160h157v-160h-157zM184 0v1421h176v-1421h-176zM365 1505v160h157v-160h-157z" />
<glyph unicode="&#xd0;" horiz-adv-x="1441" d="M31 647v127h155v647h527q169 0 311 -97t223.5 -263t81.5 -363q0 -143 -48.5 -272.5t-131 -222.5t-196.5 -148t-240 -55h-527v647h-155zM358 115h308q100 0 188.5 39.5t156 112t107 184.5t39.5 249q0 136 -38.5 251t-104.5 192.5t-156 120.5t-192 43h-308v-533h207v-127 h-207v-532z" />
<glyph unicode="&#xd1;" horiz-adv-x="1404" d="M186 0v1421h252l453 -925l166 -344h2v1269h158v-1421h-252l-453 926l-166 344h-2v-1270h-158zM369 1505q3 114 62 178t132 64q36 0 69.5 -16t82.5 -52q73 -51 119 -51q40 0 58.5 36t18.5 83h123q-3 -114 -62 -178t-132 -64q-36 0 -69.5 16t-82.5 52q-73 51 -119 51 q-40 0 -58.5 -36t-18.5 -83h-123z" />
<glyph unicode="&#xd2;" horiz-adv-x="1478" d="M111 707q0 157 50.5 298t135.5 241.5t200.5 159t241.5 58.5q123 0 237.5 -58t200.5 -157t137.5 -241t51.5 -301q0 -157 -51 -297t-136.5 -239t-201 -156.5t-240.5 -57.5q-123 0 -237 57t-200 155t-137.5 239t-51.5 299zM287 737q0 -144 37 -267.5t99.5 -206.5t144.5 -130 t171 -47q86 0 167 46t144.5 128t101.5 206.5t38 270.5q0 135 -38 249.5t-101 190t-144.5 118t-169.5 42.5q-86 0 -166.5 -41.5t-143.5 -116.5t-101.5 -190t-38.5 -252zM350 1776h228l358 -250h-182z" />
<glyph unicode="&#xd3;" horiz-adv-x="1478" d="M111 707q0 157 50.5 298t135.5 241.5t200.5 159t241.5 58.5q123 0 237.5 -58t200.5 -157t137.5 -241t51.5 -301q0 -157 -51 -297t-136.5 -239t-201 -156.5t-240.5 -57.5q-123 0 -237 57t-200 155t-137.5 239t-51.5 299zM287 737q0 -144 37 -267.5t99.5 -206.5t144.5 -130 t171 -47q86 0 167 46t144.5 128t101.5 206.5t38 270.5q0 135 -38 249.5t-101 190t-144.5 118t-169.5 42.5q-86 0 -166.5 -41.5t-143.5 -116.5t-101.5 -190t-38.5 -252zM543 1526l358 250h227l-403 -250h-182z" />
<glyph unicode="&#xd4;" horiz-adv-x="1478" d="M111 707q0 157 50.5 298t135.5 241.5t200.5 159t241.5 58.5q123 0 237.5 -58t200.5 -157t137.5 -241t51.5 -301q0 -157 -51 -297t-136.5 -239t-201 -156.5t-240.5 -57.5q-123 0 -237 57t-200 155t-137.5 239t-51.5 299zM287 737q0 -144 37 -267.5t99.5 -206.5t144.5 -130 t171 -47q86 0 167 46t144.5 128t101.5 206.5t38 270.5q0 135 -38 249.5t-101 190t-144.5 118t-169.5 42.5q-86 0 -166.5 -41.5t-143.5 -116.5t-101.5 -190t-38.5 -252zM420 1505l258 275h123l258 -275h-121l-199 199l-198 -199h-121z" />
<glyph unicode="&#xd5;" horiz-adv-x="1478" d="M111 707q0 157 50.5 298t135.5 241.5t200.5 159t241.5 58.5q123 0 237.5 -58t200.5 -157t137.5 -241t51.5 -301q0 -157 -51 -297t-136.5 -239t-201 -156.5t-240.5 -57.5q-123 0 -237 57t-200 155t-137.5 239t-51.5 299zM287 737q0 -144 37 -267.5t99.5 -206.5t144.5 -130 t171 -47q86 0 167 46t144.5 128t101.5 206.5t38 270.5q0 135 -38 249.5t-101 190t-144.5 118t-169.5 42.5q-86 0 -166.5 -41.5t-143.5 -116.5t-101.5 -190t-38.5 -252zM406 1505q3 114 62 178t132 64q36 0 69.5 -16t82.5 -52q73 -51 118 -51q40 0 59 36t19 83h123 q-3 -114 -62 -178t-132 -64q-36 0 -69.5 16t-82.5 52q-73 51 -119 51q-40 0 -59 -36t-19 -83h-122z" />
<glyph unicode="&#xd6;" horiz-adv-x="1478" d="M111 707q0 157 50.5 298t135.5 241.5t200.5 159t241.5 58.5q123 0 237.5 -58t200.5 -157t137.5 -241t51.5 -301q0 -157 -51 -297t-136.5 -239t-201 -156.5t-240.5 -57.5q-123 0 -237 57t-200 155t-137.5 239t-51.5 299zM287 737q0 -144 37 -267.5t99.5 -206.5t144.5 -130 t171 -47q86 0 167 46t144.5 128t101.5 206.5t38 270.5q0 135 -38 249.5t-101 190t-144.5 118t-169.5 42.5q-86 0 -166.5 -41.5t-143.5 -116.5t-101.5 -190t-38.5 -252zM489 1505v160h158v-160h-158zM831 1505v160h158v-160h-158z" />
<glyph unicode="&#xd7;" horiz-adv-x="1560" d="M294.5 58.5q-1.5 9.5 4.5 20t11 16t16 16.5l399 401l-399 399q-11 11 -16 16.5t-11 16.5t-4 21t12 20q10 9 19.5 10.5t19.5 -4t16.5 -11t16.5 -15.5l401 -400l400 400q11 11 16.5 15.5t16 10.5t20.5 4t20 -12q9 -10 10.5 -19.5t-4 -19.5t-11 -16.5t-15.5 -16.5l-399 -399 l399 -401q10 -10 15.5 -16.5t11 -16.5t3.5 -20.5t-12 -20.5q-10 -9 -19.5 -11t-19.5 4.5t-15.5 11t-16.5 15.5l-400 400l-401 -400q-10 -10 -16.5 -15.5t-16.5 -11t-20.5 -3.5t-20.5 12q-9 10 -10.5 19.5z" />
<glyph unicode="&#xd8;" horiz-adv-x="1560" d="M111 707q0 156 53.5 296.5t143 241.5t213.5 160t259 59q155 0 307 -84l97 172l110 -61l-104 -186q258 -246 258 -598q0 -155 -53.5 -294.5t-144 -239t-214 -158t-258.5 -58.5q-75 0 -153.5 22t-106 36t-47.5 26l-96 -172l-111 61l105 187q-45 37 -87.5 90t-82.5 126.5 t-64 171t-24 202.5zM283 707q0 -289 155 -467l584 1028q-114 73 -244 73q-94 0 -182 -42.5t-158 -120t-112.5 -200.5t-42.5 -271zM537 154q107 -74 243 -74q94 0 182 41.5t158.5 118t113 198t42.5 269.5q0 295 -156 473z" />
<glyph unicode="&#xd9;" horiz-adv-x="1366" d="M184 477v944h176v-946q0 -100 28 -179t75.5 -126.5t105 -72.5t119.5 -25q63 0 122 25t107.5 73t77.5 127t29 178v946h156v-944q0 -145 -68 -265t-181 -187.5t-245 -67.5t-247 66.5t-185 187t-70 266.5zM295 1776h227l359 -250h-183z" />
<glyph unicode="&#xda;" horiz-adv-x="1366" d="M184 477v944h176v-946q0 -100 28 -179t75.5 -126.5t105 -72.5t119.5 -25q63 0 122 25t107.5 73t77.5 127t29 178v946h156v-944q0 -145 -68 -265t-181 -187.5t-245 -67.5t-247 66.5t-185 187t-70 266.5zM487 1526l359 250h227l-403 -250h-183z" />
<glyph unicode="&#xdb;" horiz-adv-x="1366" d="M184 477v944h176v-946q0 -100 28 -179t75.5 -126.5t105 -72.5t119.5 -25q63 0 122 25t107.5 73t77.5 127t29 178v946h156v-944q0 -145 -68 -265t-181 -187.5t-245 -67.5t-247 66.5t-185 187t-70 266.5zM365 1505l258 275h122l259 -275h-121l-199 199l-199 -199h-120z" />
<glyph unicode="&#xdc;" horiz-adv-x="1366" d="M184 477v944h176v-946q0 -100 28 -179t75.5 -126.5t105 -72.5t119.5 -25q63 0 122 25t107.5 73t77.5 127t29 178v946h156v-944q0 -145 -68 -265t-181 -187.5t-245 -67.5t-247 66.5t-185 187t-70 266.5zM434 1505v160h158v-160h-158zM776 1505v160h158v-160h-158z" />
<glyph unicode="&#xdd;" horiz-adv-x="1325" d="M6 1421h205l348 -522q71 -107 117 -184q60 100 112 176l353 530h176l-569 -852v-569h-173v569zM467 1526l358 250h228l-404 -250h-182z" />
<glyph unicode="&#xde;" horiz-adv-x="1163" d="M199 0v1421h147v-260h285q91 0 170.5 -33t133.5 -88t85 -126.5t31 -147.5q0 -51 -14.5 -103.5t-49 -106t-84 -94.5t-127.5 -67t-172 -26h-258v-369h-147zM346 483h201q81 0 144.5 22t99.5 54t59.5 72.5t31 73t7.5 59.5q0 113 -95 198t-247 85h-201v-564z" />
<glyph unicode="&#xdf;" horiz-adv-x="960" d="M160 0v1130q0 75 31 136.5t81.5 98.5t110 57t121.5 20q143 0 243.5 -87.5t100.5 -211.5q0 -88 -52 -168.5t-145 -132.5q124 -74 188 -205t64 -270q0 -163 -103.5 -275t-250.5 -112q-39 0 -82.5 7.5t-69.5 16.5t-26 14l8 23l33 90q64 -29 135 -29q90 0 146.5 73t56.5 192 q0 110 -38 203.5t-114 153t-176 62.5v123q74 1 129.5 24.5t85 60t43.5 74t14 75.5q0 84 -55 130t-135 46q-19 0 -37.5 -2t-48.5 -13t-52 -30t-38.5 -57.5t-16.5 -90.5v-1126h-151z" />
<glyph unicode="&#xe0;" horiz-adv-x="960" d="M111 236q0 75 56 132t161 93q125 42 338 51v84q0 107 -51 166t-126 59q-164 0 -303 -102l-12 135q151 86 315 86q143 0 237.5 -96.5t94.5 -243.5v-600h-151v76q-54 -45 -148 -70.5t-184 -25.5q-50 0 -90.5 18t-65 46t-41.5 63.5t-23.5 67.5t-6.5 61zM201 1421h155 l267 -342h-123zM256 238q0 -58 52 -97t134 -39q92 0 156 41q32 19 48 44.5t18 42t2 44.5v134q-56 0 -118.5 -7.5t-132 -25t-114.5 -53t-45 -84.5z" />
<glyph unicode="&#xe1;" horiz-adv-x="960" d="M111 236q0 75 56 132t161 93q125 42 338 51v84q0 107 -51 166t-126 59q-164 0 -303 -102l-12 135q151 86 315 86q143 0 237.5 -96.5t94.5 -243.5v-600h-151v76q-54 -45 -148 -70.5t-184 -25.5q-50 0 -90.5 18t-65 46t-41.5 63.5t-23.5 67.5t-6.5 61zM256 238 q0 -58 52 -97t134 -39q92 0 156 41q32 19 48 44.5t18 42t2 44.5v134q-56 0 -118.5 -7.5t-132 -25t-114.5 -53t-45 -84.5zM340 1079l266 342h156l-299 -342h-123z" />
<glyph unicode="&#xe2;" horiz-adv-x="960" d="M111 236q0 75 56 132t161 93q125 42 338 51v84q0 107 -51 166t-126 59q-164 0 -303 -102l-12 135q151 86 315 86q143 0 237.5 -96.5t94.5 -243.5v-600h-151v76q-54 -45 -148 -70.5t-184 -25.5q-50 0 -90.5 18t-65 46t-41.5 63.5t-23.5 67.5t-6.5 61zM164 1075l256 352 h123l256 -352h-121l-197 252l-196 -252h-121zM256 238q0 -58 52 -97t134 -39q92 0 156 41q32 19 48 44.5t18 42t2 44.5v134q-56 0 -118.5 -7.5t-132 -25t-114.5 -53t-45 -84.5z" />
<glyph unicode="&#xe3;" horiz-adv-x="960" d="M111 236q0 75 56 132t161 93q125 42 338 51v84q0 107 -51 166t-126 59q-164 0 -303 -102l-12 135q151 86 315 86q143 0 237.5 -96.5t94.5 -243.5v-600h-151v76q-54 -45 -148 -70.5t-184 -25.5q-50 0 -90.5 18t-65 46t-41.5 63.5t-23.5 67.5t-6.5 61zM147 1130 q3 113 62.5 177.5t132.5 64.5q36 0 70 -16t82 -51q74 -52 118 -52q40 0 59 36t19 83h123q-3 -113 -62.5 -177.5t-132.5 -64.5q-36 0 -68.5 16t-82.5 52q-73 51 -119 51q-40 0 -59 -36t-19 -83h-123zM256 238q0 -58 52 -97t134 -39q92 0 156 41q32 19 48 44.5t18 42t2 44.5 v134q-56 0 -118.5 -7.5t-132 -25t-114.5 -53t-45 -84.5z" />
<glyph unicode="&#xe4;" horiz-adv-x="960" d="M111 236q0 75 56 132t161 93q125 42 338 51v84q0 107 -51 166t-126 59q-164 0 -303 -102l-12 135q151 86 315 86q143 0 237.5 -96.5t94.5 -243.5v-600h-151v76q-54 -45 -148 -70.5t-184 -25.5q-50 0 -90.5 18t-65 46t-41.5 63.5t-23.5 67.5t-6.5 61zM256 238 q0 -58 52 -97t134 -39q92 0 156 41q32 19 48 44.5t18 42t2 44.5v134q-56 0 -118.5 -7.5t-132 -25t-114.5 -53t-45 -84.5zM258 1171v160h158v-160h-158zM547 1171v160h158v-160h-158z" />
<glyph unicode="&#xe5;" horiz-adv-x="960" d="M111 236q0 75 56 132t161 93q125 42 338 51v84q0 107 -51 166t-126 59q-164 0 -303 -102l-12 135q151 86 315 86q143 0 237.5 -96.5t94.5 -243.5v-600h-151v76q-54 -45 -148 -70.5t-184 -25.5q-50 0 -90.5 18t-65 46t-41.5 63.5t-23.5 67.5t-6.5 61zM256 238 q0 -58 52 -97t134 -39q92 0 156 41q32 19 48 44.5t18 42t2 44.5v134q-56 0 -118.5 -7.5t-132 -25t-114.5 -53t-45 -84.5zM258 1233q0 67 64 118.5t159 51.5q94 0 159 -51t65 -123q0 -67 -64.5 -118.5t-159.5 -51.5q-93 0 -158 51t-65 123zM381 1231q0 -76 100 -76 q39 0 70 17t31 59q0 26 -12.5 43.5t-33 23.5t-32 7.5t-23.5 1.5q-39 0 -69.5 -17t-30.5 -59z" />
<glyph unicode="&#xe6;" horiz-adv-x="1447" d="M94 238q0 89 78.5 153.5t200.5 94t272 30.5v80q0 110 -52 167.5t-122 57.5q-160 0 -305 -102l-12 135q153 86 315 86q183 0 285 -158q43 55 93 90.5t97 48.5t69.5 16t43.5 3q53 0 98.5 -14.5t77.5 -37t58 -56.5t42 -67t28 -74.5t17.5 -72t8.5 -67.5t3.5 -53.5t0.5 -36.5 h-590q3 -164 89 -261.5t200 -97.5q156 0 276 117l6 -55q0 -5 3 -34t3 -34q0 -11 -37 -37.5t-109 -52.5t-145 -26q-191 0 -329 157q-60 -87 -197 -127q-107 -30 -239 -30q-66 0 -114.5 29.5t-71.5 74.5t-32.5 83.5t-9.5 70.5zM240 240q0 -58 51.5 -98t130.5 -40q100 0 164 41 q32 19 47.5 43.5t17.5 40t2 45.5q0 23 -6 134q-43 -2 -80.5 -5t-102.5 -14t-110 -27t-79.5 -47.5t-34.5 -72.5zM813 571h455q-18 122 -75.5 184t-135.5 62q-80 0 -148.5 -67t-95.5 -179z" />
<glyph unicode="&#xe7;" horiz-adv-x="890" d="M72 457q0 89 30 174t84.5 154.5t140 112t187.5 42.5q93 0 156.5 -17.5t150.5 -68.5l-24 -133q-76 51 -132 71.5t-151 20.5q-74 0 -131 -31.5t-90 -83.5t-49.5 -113t-16.5 -128q0 -152 77.5 -251.5t203.5 -99.5q171 0 313 115l4 -57q1 -6 5 -39.5t4 -38.5 q-146 -106 -328 -106q-183 0 -308.5 139.5t-125.5 337.5zM313 -434l148 344h123l-131 -344h-140z" />
<glyph unicode="&#xe8;" horiz-adv-x="890" d="M68 461q0 199 119.5 339t285.5 140q28 0 59 -5.5t73.5 -20t84 -49t70.5 -83.5q74 -122 74 -321h-625q3 -159 89 -259t208 -100q164 0 303 117l6 -55q6 -68 6 -76q-149 -108 -319 -108q-179 0 -306.5 140t-127.5 341zM166 1421h156l266 -342h-123zM221 571h492 q-10 62 -32.5 108.5t-48.5 72t-58 41t-55 20t-46 4.5q-88 0 -156.5 -70t-95.5 -176z" />
<glyph unicode="&#xe9;" horiz-adv-x="890" d="M68 461q0 199 119.5 339t285.5 140q28 0 59 -5.5t73.5 -20t84 -49t70.5 -83.5q74 -122 74 -321h-625q3 -159 89 -259t208 -100q164 0 303 117l6 -55q6 -68 6 -76q-149 -108 -319 -108q-179 0 -306.5 140t-127.5 341zM221 571h492q-10 62 -32.5 108.5t-48.5 72t-58 41 t-55 20t-46 4.5q-88 0 -156.5 -70t-95.5 -176zM305 1079l266 342h156l-299 -342h-123z" />
<glyph unicode="&#xea;" horiz-adv-x="890" d="M68 461q0 199 119.5 339t285.5 140q28 0 59 -5.5t73.5 -20t84 -49t70.5 -83.5q74 -122 74 -321h-625q3 -159 89 -259t208 -100q164 0 303 117l6 -55q6 -68 6 -76q-149 -108 -319 -108q-179 0 -306.5 140t-127.5 341zM129 1075l256 352h123l256 -352h-121l-197 252 l-196 -252h-121zM221 571h492q-10 62 -32.5 108.5t-48.5 72t-58 41t-55 20t-46 4.5q-88 0 -156.5 -70t-95.5 -176z" />
<glyph unicode="&#xeb;" horiz-adv-x="890" d="M68 461q0 199 119.5 339t285.5 140q28 0 59 -5.5t73.5 -20t84 -49t70.5 -83.5q74 -122 74 -321h-625q3 -159 89 -259t208 -100q164 0 303 117l6 -55q6 -68 6 -76q-149 -108 -319 -108q-179 0 -306.5 140t-127.5 341zM221 571h492q-10 62 -32.5 108.5t-48.5 72t-58 41 t-55 20t-46 4.5q-88 0 -156.5 -70t-95.5 -176zM223 1171v160h158v-160h-158zM512 1171v160h158v-160h-158z" />
<glyph unicode="&#xec;" horiz-adv-x="471" d="M-111 1421h156l266 -342h-123zM160 0v909h151v-909h-151z" />
<glyph unicode="&#xed;" horiz-adv-x="471" d="M160 0v909h151v-909h-151zM160 1079l266 342h156l-299 -342h-123z" />
<glyph unicode="&#xee;" horiz-adv-x="471" d="M-82 1075l256 352h123l256 -352h-121l-196 252l-197 -252h-121zM160 0v909h151v-909h-151z" />
<glyph unicode="&#xef;" horiz-adv-x="471" d="M12 1171v160h158v-160h-158zM160 0v909h151v-909h-151zM301 1171v160h158v-160h-158z" />
<glyph unicode="&#xf0;" d="M68 451q0 204 128 346.5t304 142.5q106 0 207 -55q-86 180 -242 323l-148 -116l-73 94l125 98q-97 66 -203 109l80 100q121 -45 233 -123l152 119l74 -94l-130 -101q174 -157 267.5 -378.5t89.5 -466.5q-2 -104 -39.5 -193.5t-98 -149t-137 -93t-157.5 -33.5 q-176 0 -304 137.5t-128 333.5zM211 471q0 -171 84.5 -268t204.5 -97q128 0 208 102t80 253q0 152 -80 254t-210 102q-53 0 -102.5 -20.5t-91.5 -61t-67.5 -109t-25.5 -155.5z" />
<glyph unicode="&#xf1;" horiz-adv-x="1028" d="M158 0v920h145v-140q119 150 291 150q71 0 123.5 -21.5t80.5 -52.5t44.5 -76.5t21 -82t4.5 -81.5v-616h-155v602q0 29 -2 50t-13 52.5t-30.5 52t-58.5 35.5t-93 15q-56 0 -97.5 -28t-63 -73.5t-32 -94.5t-10.5 -101v-510h-155zM180 1130q3 113 62.5 177.5t132.5 64.5 q36 0 69 -15.5t82 -51.5q74 -52 119 -52q40 0 59 36t19 83h123q-3 -113 -62.5 -177.5t-132.5 -64.5q-36 0 -68.5 16t-82.5 52q-73 51 -119 51q-40 0 -59 -36t-19 -83h-123z" />
<glyph unicode="&#xf2;" d="M61 451q0 203 129.5 346t311.5 143q117 0 217.5 -64t160.5 -177t60 -248q0 -197 -129 -334t-311 -137q-86 0 -166.5 36.5t-140.5 98.5t-96 150t-36 186zM217 471q0 -172 83.5 -268.5t201.5 -96.5q53 0 102 22t90 65t65.5 115t24.5 163q0 87 -24.5 155t-65 108.5t-90 61.5 t-104.5 21q-51 0 -99 -20t-90.5 -59.5t-68 -108.5t-25.5 -158zM221 1421h156l266 -342h-123z" />
<glyph unicode="&#xf3;" d="M61 451q0 203 129.5 346t311.5 143q117 0 217.5 -64t160.5 -177t60 -248q0 -197 -129 -334t-311 -137q-86 0 -166.5 36.5t-140.5 98.5t-96 150t-36 186zM217 471q0 -172 83.5 -268.5t201.5 -96.5q53 0 102 22t90 65t65.5 115t24.5 163q0 87 -24.5 155t-65 108.5t-90 61.5 t-104.5 21q-51 0 -99 -20t-90.5 -59.5t-68 -108.5t-25.5 -158zM360 1079l267 342h155l-299 -342h-123z" />
<glyph unicode="&#xf4;" d="M61 451q0 203 129.5 346t311.5 143q117 0 217.5 -64t160.5 -177t60 -248q0 -197 -129 -334t-311 -137q-86 0 -166.5 36.5t-140.5 98.5t-96 150t-36 186zM184 1075l256 352h123l256 -352h-121l-196 252l-197 -252h-121zM217 471q0 -172 83.5 -268.5t201.5 -96.5 q53 0 102 22t90 65t65.5 115t24.5 163q0 87 -24.5 155t-65 108.5t-90 61.5t-104.5 21q-51 0 -99 -20t-90.5 -59.5t-68 -108.5t-25.5 -158z" />
<glyph unicode="&#xf5;" d="M61 451q0 203 129.5 346t311.5 143q117 0 217.5 -64t160.5 -177t60 -248q0 -197 -129 -334t-311 -137q-86 0 -166.5 36.5t-140.5 98.5t-96 150t-36 186zM168 1130q3 114 62 178t132 64q36 0 70 -16t82 -51q74 -52 119 -52q40 0 59 36t19 83h123q-3 -113 -62.5 -177.5 t-132.5 -64.5q-36 0 -69.5 16t-82.5 52q-73 51 -118 51q-40 0 -59 -36t-19 -83h-123zM217 471q0 -172 83.5 -268.5t201.5 -96.5q53 0 102 22t90 65t65.5 115t24.5 163q0 87 -24.5 155t-65 108.5t-90 61.5t-104.5 21q-51 0 -99 -20t-90.5 -59.5t-68 -108.5t-25.5 -158z" />
<glyph unicode="&#xf6;" d="M61 451q0 203 129.5 346t311.5 143q117 0 217.5 -64t160.5 -177t60 -248q0 -197 -129 -334t-311 -137q-86 0 -166.5 36.5t-140.5 98.5t-96 150t-36 186zM217 471q0 -172 83.5 -268.5t201.5 -96.5q53 0 102 22t90 65t65.5 115t24.5 163q0 87 -24.5 155t-65 108.5t-90 61.5 t-104.5 21q-51 0 -99 -20t-90.5 -59.5t-68 -108.5t-25.5 -158zM279 1171v160h157v-160h-157zM567 1171v160h158v-160h-158z" />
<glyph unicode="&#xf7;" horiz-adv-x="1560" d="M111 514q0 17 11.5 26t22.5 10t31 1h1206q16 0 24 -0.5t19.5 -4t17 -12t5.5 -22.5q0 -17 -12 -26t-23 -10t-31 -1h-1206q-16 0 -24 0.5t-19.5 4t-16.5 12t-5 22.5zM696 186v166h166v-166h-166zM696 674v166h166v-166h-166z" />
<glyph unicode="&#xf8;" d="M61 451q0 203 129.5 346t311.5 143q90 0 174 -41l133 242l109 -62l-140 -250q79 -71 120.5 -171.5t41.5 -206.5q0 -197 -129 -334t-311 -137q-85 0 -172 36l-135 -245l-109 61l139 252q-39 39 -55 60q-107 136 -107 307zM215 451q0 -155 76 -246l325 586q-51 26 -114 26 q-117 0 -202 -95.5t-85 -270.5zM389 127q55 -25 113 -25q52 0 101 20.5t90.5 61t67 110t25.5 157.5q0 160 -73 258z" />
<glyph unicode="&#xf9;" horiz-adv-x="1028" d="M158 227v682h155v-673q0 -38 5 -61t20.5 -44t48 -30t84.5 -9q105 0 173.5 60t68.5 172v585h155v-909h-151v102q-57 -51 -133.5 -81t-122 -35.5t-88.5 -5.5q-119 0 -167 63.5t-48 183.5zM233 1421h156l266 -342h-123z" />
<glyph unicode="&#xfa;" horiz-adv-x="1028" d="M158 227v682h155v-673q0 -38 5 -61t20.5 -44t48 -30t84.5 -9q105 0 173.5 60t68.5 172v585h155v-909h-151v102q-57 -51 -133.5 -81t-122 -35.5t-88.5 -5.5q-119 0 -167 63.5t-48 183.5zM373 1079l266 342h156l-299 -342h-123z" />
<glyph unicode="&#xfb;" horiz-adv-x="1028" d="M158 227v682h155v-673q0 -38 5 -61t20.5 -44t48 -30t84.5 -9q105 0 173.5 60t68.5 172v585h155v-909h-151v102q-57 -51 -133.5 -81t-122 -35.5t-88.5 -5.5q-119 0 -167 63.5t-48 183.5zM197 1075l256 352h122l256 -352h-120l-197 252l-197 -252h-120z" />
<glyph unicode="&#xfc;" horiz-adv-x="1028" d="M158 227v682h155v-673q0 -38 5 -61t20.5 -44t48 -30t84.5 -9q105 0 173.5 60t68.5 172v585h155v-909h-151v102q-57 -51 -133.5 -81t-122 -35.5t-88.5 -5.5q-119 0 -167 63.5t-48 183.5zM291 1171v160h158v-160h-158zM580 1171v160h157v-160h-157z" />
<glyph unicode="&#xfd;" horiz-adv-x="917" d="M29 909h161l146 -358q126 -323 135 -432h2q3 52 27 141t74.5 228.5t75.5 205t83 215.5h154l-428 -1102q-25 -64 -54 -109.5t-51.5 -67.5t-51 -33.5t-42 -13t-35.5 -1.5q-43 0 -145 17l-12 133q78 -31 157 -31q32 0 57 21.5t56 91.5l72 186zM317 1079l267 342h155 l-299 -342h-123z" />
<glyph unicode="&#xfe;" horiz-adv-x="1028" d="M160 -397v1818h151v-608q73 62 160 89.5t162 27.5q92 0 166.5 -66.5t114.5 -174.5t40 -232q0 -205 -110.5 -341t-261.5 -136q-143 0 -267 112v-489h-155zM315 266q0 -63 58 -114q64 -50 133 -50q117 0 205 101.5t88 251.5q0 146 -80.5 247t-194.5 101q-62 0 -117.5 -31 t-91.5 -84v-422z" />
<glyph unicode="&#xff;" horiz-adv-x="917" d="M29 909h161l146 -358q126 -323 135 -432h2q3 52 27 141t74.5 228.5t75.5 205t83 215.5h154l-428 -1102q-25 -64 -54 -109.5t-51.5 -67.5t-51 -33.5t-42 -13t-35.5 -1.5q-43 0 -145 17l-12 133q78 -31 157 -31q32 0 57 21.5t56 91.5l72 186zM236 1171v160h157v-160h-157z M524 1171v160h158v-160h-158z" />
<glyph unicode="&#x152;" horiz-adv-x="1943" d="M49 707q0 159 55.5 301.5t147.5 241.5t212.5 156.5t248.5 57.5q66 0 168 -24q93 -19 153 -19h797v-129h-367q-12 0 -36 1t-37 1h-279v-493h662v-123h-662v-541h406q12 0 36 1t37 1h267v-139h-824q-64 0 -157 -20q-112 -23 -164 -23q-128 0 -248.5 57t-212.5 154.5 t-147.5 239t-55.5 299.5zM221 737q0 -178 66 -329t181.5 -239.5t254.5 -88.5q85 0 129.5 25t66 95.5t21.5 207.5v606q0 105 -10.5 169t-38.5 99t-66.5 47t-103.5 12q-135 0 -250 -79t-182.5 -218t-67.5 -307z" />
<glyph unicode="&#x153;" horiz-adv-x="1560" d="M61 461q0 199 125.5 339t298.5 140q31 0 63.5 -6t83 -23.5t104 -61.5t98.5 -110q63 100 152 150.5t183 50.5q53 0 98.5 -14.5t77.5 -37t58 -56.5t42 -67t28 -74.5t17.5 -72t8.5 -67.5t3.5 -53.5t0.5 -36.5h-590q3 -164 89 -261.5t200 -97.5q157 0 277 117l6 -55 q0 -5 3 -34t3 -34q0 -11 -37 -37.5t-109 -52.5t-145 -26q-103 0 -200 51t-162 155q-74 -113 -169.5 -159.5t-183.5 -46.5q-172 0 -298 139.5t-126 341.5zM207 471q0 -177 82.5 -273t193.5 -96q114 0 194.5 97t80.5 272q0 88 -24.5 157t-65 109t-87 60t-96.5 20 q-52 0 -100.5 -20.5t-89 -61t-64.5 -109t-24 -155.5zM926 571h454q-18 122 -75.5 184t-135.5 62q-80 0 -148 -67t-95 -179z" />
<glyph unicode="&#x178;" horiz-adv-x="1325" d="M6 1421h205l348 -522q71 -107 117 -184q60 100 112 176l353 530h176l-569 -852v-569h-173v569zM414 1505v160h157v-160h-157zM756 1505v160h157v-160h-157z" />
<glyph unicode="&#x2c6;" d="M184 1075l256 352h123l256 -352h-121l-196 252l-197 -252h-121z" />
<glyph unicode="&#x2dc;" d="M168 1130q3 114 62 178t132 64q36 0 70 -16t82 -51q74 -52 119 -52q40 0 59 36t19 83h123q-3 -113 -62.5 -177.5t-132.5 -64.5q-36 0 -69.5 16t-82.5 52q-73 51 -118 51q-40 0 -59 -36t-19 -83h-123z" />
<glyph unicode="&#x2000;" horiz-adv-x="890" />
<glyph unicode="&#x2001;" horiz-adv-x="1780" />
<glyph unicode="&#x2002;" horiz-adv-x="890" />
<glyph unicode="&#x2003;" horiz-adv-x="1780" />
<glyph unicode="&#x2004;" horiz-adv-x="593" />
<glyph unicode="&#x2005;" horiz-adv-x="445" />
<glyph unicode="&#x2006;" horiz-adv-x="296" />
<glyph unicode="&#x2007;" horiz-adv-x="296" />
<glyph unicode="&#x2008;" horiz-adv-x="222" />
<glyph unicode="&#x2009;" horiz-adv-x="356" />
<glyph unicode="&#x200a;" horiz-adv-x="98" />
<glyph unicode="&#x2010;" horiz-adv-x="667" d="M23 395v119h532v-119h-532z" />
<glyph unicode="&#x2011;" horiz-adv-x="667" d="M23 395v119h532v-119h-532z" />
<glyph unicode="&#x2012;" horiz-adv-x="667" d="M23 395v119h532v-119h-532z" />
<glyph unicode="&#x2013;" d="M0 500v123h1001v-123h-1001z" />
<glyph unicode="&#x2014;" horiz-adv-x="2004" d="M0 500v123h2003v-123h-2003z" />
<glyph unicode="&#x2018;" horiz-adv-x="557" d="M195 999v164l84 258h81l-51 -256h51v-166h-165z" />
<glyph unicode="&#x2019;" horiz-adv-x="557" d="M195 999l51 256h-51v166h165v-164l-84 -258h-81z" />
<glyph unicode="&#x201a;" horiz-adv-x="557" d="M197 0v166h165v-164l-83 -258h-82l51 256h-51z" />
<glyph unicode="&#x201c;" horiz-adv-x="946" d="M195 999v164l84 258h81l-51 -256h51v-166h-165zM584 999v164l84 258h82l-52 -256h52v-166h-166z" />
<glyph unicode="&#x201d;" horiz-adv-x="946" d="M197 999l51 256h-51v166h165v-164l-83 -258h-82zM586 999l51 256h-51v166h166v-164l-84 -258h-82z" />
<glyph unicode="&#x201e;" horiz-adv-x="946" d="M197 0v166h165v-164l-83 -258h-82l51 256h-51zM586 0v166h166v-164l-84 -258h-82l51 256h-51z" />
<glyph unicode="&#x2022;" horiz-adv-x="1560" d="M494 262v574h573v-574h-573z" />
<glyph unicode="&#x2026;" horiz-adv-x="1253" d="M197 0v166h165v-166h-165zM545 0v166h166v-166h-166zM893 0v166h166v-166h-166z" />
<glyph unicode="&#x202f;" horiz-adv-x="356" />
<glyph unicode="&#x2039;" horiz-adv-x="669" d="M223 461l211 459h123l-178 -459l178 -461h-123z" />
<glyph unicode="&#x203a;" horiz-adv-x="669" d="M113 0l178 461l-178 459h123l210 -459l-210 -461h-123z" />
<glyph unicode="&#x205f;" horiz-adv-x="445" />
<glyph unicode="&#x20ac;" horiz-adv-x="1200" d="M100 522l21 115h127q-2 25 -2 74q0 48 2 73h-148l21 115h141q36 194 144 346q74 100 174.5 159.5t214.5 59.5q82 0 146.5 -15.5t135.5 -53.5l-30 -170q-54 60 -113 86t-139 26q-81 0 -148.5 -50.5t-116.5 -131.5q-67 -113 -92 -256h551l-20 -115h-545q-2 -25 -2 -73 q0 -49 2 -74h520l-20 -115h-486q26 -144 92 -254q48 -82 116 -133t149 -51q104 0 162.5 26.5t129.5 104.5l13 -143q-80 -69 -140.5 -92t-164.5 -23q-114 0 -214.5 60t-174.5 161q-107 148 -144 344h-162z" />
<glyph unicode="&#x2122;" horiz-adv-x="1863" d="M43 1346v75h733v-75h-160h-45h-108v-771h-105v771h-108h-45h-162zM893 575v852h141l187 -501q9 -26 19.5 -56.5t21.5 -62.5q34 -103 36 -115q9 42 125 359l140 376h141v-852h-96v760q-15 -60 -117 -335.5t-150 -397.5h-90q-1 4 -77 206t-127 344.5t-58 180.5h-2v-758h-94 z" />
<glyph unicode="&#x25fc;" horiz-adv-x="911" d="M0 0v911h911v-911h-911z" />
<glyph unicode="&#xfb03;" horiz-adv-x="1628" d="M53 791v118h150v187q0 148 85 247t216 99q74 0 137 -21v-135q-65 33 -139 33q-24 0 -47 -6.5t-48.5 -22.5t-41 -50.5t-15.5 -84.5v-246h240v-118h-236v-791h-151v791h-150zM760 0v1098q0 149 76.5 246.5t191.5 97.5q44 0 63 -3.5t56 -15.5v-139q-70 35 -119 35t-85 -38 t-36 -122v-250h240v-118h-236v-791h-151zM1307 1257v166h166v-166h-166zM1315 0v909h151v-909h-151z" />
</font>
</defs>
</svg>
