<?xml version="1.0" standalone="no"?>
<!DOCTYPE svg PUBLIC "-//W3C//DTD SVG 1.1//EN" "http://www.w3.org/Graphics/SVG/1.1/DTD/svg11.dtd" >
<svg xmlns="http://www.w3.org/2000/svg" xmlns:xlink="http://www.w3.org/1999/xlink" version="1.1">
<metadata></metadata>
<defs>
<font id="latin_modern_sans10BdOb" horiz-adv-x="1126" >
<font-face units-per-em="2048" ascent="1651" descent="-397" />
<missing-glyph horiz-adv-x="751" />
<glyph unicode="&#xfb01;" horiz-adv-x="1200" d="M197 98l147 693h-14t-14.5 0.5t-15.5 1.5t-14 2.5t-14 4.5t-11.5 6.5t-9 9t-5.5 12.5t-2.5 16t2.5 20q5 26 19 42.5t36 22.5t36.5 7.5t37.5 1.5l37 168q35 167 137.5 252.5t263.5 85.5q55 0 102 -14q36 -9 41.5 -19t-2.5 -45l-22 -104q-5 -29 -13 -42.5t-26 -13.5 q-16 0 -21 21q-3 14 -6.5 22t-12 21t-25.5 19.5t-42 6.5q-22 0 -39 -10.5t-27.5 -31t-16 -39t-11.5 -44.5l-51 -233h123q12 0 20 -0.5t23.5 -4.5t24.5 -11t14.5 -22t1.5 -36q-16 -73 -115 -73h-117l-147 -693q-11 -55 -36 -76.5t-83 -21.5h-76q-56 0 -72 21t-5 77zM821 98 l158 742q12 55 37 76.5t82 21.5h76q60 0 74 -22.5t3 -75.5l-157 -742q-11 -55 -36 -76.5t-83 -21.5h-76q-60 0 -74.5 22.5t-3.5 75.5zM1061 1243l18 82q11 55 36 76.5t83 21.5h82q59 0 73.5 -22t4.5 -76l-19 -82q-11 -55 -36 -76.5t-82 -21.5h-82q-60 0 -74.5 22.5 t-3.5 75.5z" />
<glyph unicode="&#xfb02;" horiz-adv-x="1200" d="M197 98l147 693h-14t-14.5 0.5t-15.5 1.5t-14 2.5t-14 4.5t-11.5 6.5t-9 9t-5.5 12.5t-2.5 16t2.5 20q5 26 19 42.5t36 22.5t36.5 7.5t37.5 1.5l37 168q35 167 137.5 252.5t263.5 85.5q55 0 102 -14q36 -9 41.5 -19t-2.5 -45l-20 -94q-5 -28 -12.5 -40.5t-26.5 -12.5 q-15 0 -21 22l-4 7q-3 7 -5.5 10t-7.5 10t-11 11t-14.5 8.5t-20 6.5t-25.5 2q-22 0 -39 -10.5t-27.5 -31t-16 -39t-11.5 -44.5l-51 -233h123q12 0 20 -0.5t23.5 -4.5t24.5 -11t14.5 -22t1.5 -36q-16 -73 -115 -73h-117l-147 -693q-11 -55 -36 -76.5t-83 -21.5h-76 q-56 0 -72 21t-5 77zM821 98l260 1225q12 55 38 76.5t83 21.5h76q59 0 73 -22t3 -76l-260 -1225q-11 -55 -36 -76.5t-83 -21.5h-76q-60 0 -74.5 22.5t-3.5 75.5z" />
<glyph unicode="&#xfb04;" horiz-adv-x="1826" d="M197 98l147 693h-14t-14.5 0.5t-15.5 1.5t-14 2.5t-14 4.5t-11.5 6.5t-9 9t-5.5 12.5t-2.5 16t2.5 20q5 26 19 42.5t36 22.5t36.5 7.5t37.5 1.5l37 166q70 340 434 340q66 0 117 -12q41 -10 48 -19.5t-1 -46.5l-21 -94q-5 -28 -12.5 -40.5t-26.5 -12.5q-11 0 -20 14 q-10 18 -20.5 30t-34 22.5t-56.5 10.5q-34 0 -57.5 -10.5t-37.5 -32t-21 -40.5t-13 -48l-49 -227h121q12 0 20 -0.5t23.5 -4.5t24.5 -11t14.5 -22t1.5 -36q-16 -73 -115 -73h-115l-147 -693q-11 -55 -36 -76.5t-83 -21.5h-76q-56 0 -72 21t-5 77zM823 98l215 1008 q20 95 61 163.5t96.5 105t115 53t127.5 16.5q57 0 102 -14q36 -9 41.5 -18t-2.5 -46l-20 -94q-5 -28 -12.5 -40.5t-26.5 -12.5q-13 0 -21 20q-17 33 -36 45q-20 12 -50 12q-39 0 -61 -32t-33 -93l-51 -233h121q12 0 20 -0.5t23.5 -4.5t24.5 -11t14.5 -22t1.5 -36 q-16 -73 -115 -73h-115l-147 -693q-11 -55 -36 -76.5t-83 -21.5h-76q-56 0 -72.5 21t-5.5 77zM1448 98l260 1225q12 55 38 76.5t83 21.5h76q59 0 72.5 -22t2.5 -76l-260 -1225q-11 -55 -36 -76.5t-82 -21.5h-76q-60 0 -74.5 22.5t-3.5 75.5z" />
<glyph horiz-adv-x="0" />
<glyph horiz-adv-x="682" />
<glyph unicode=" "  horiz-adv-x="751" />
<glyph unicode="&#x09;" horiz-adv-x="751" />
<glyph unicode="&#xa0;" horiz-adv-x="751" />
<glyph unicode="!" horiz-adv-x="751" d="M262 98l17 72q11 55 36 76.5t82 21.5h72q59 0 73.5 -22t4.5 -76l-17 -72q-11 -55 -36 -76.5t-82 -21.5h-72q-56 0 -72.5 21t-5.5 77zM360 422q-1 7 30.5 177t43.5 228q12 64 45.5 256t55.5 295q7 31 18 37t47 6h158q36 0 44 -6t1 -37q-18 -84 -57 -240.5t-54 -219.5 l-110 -459q-11 -41 -20.5 -49.5t-49.5 -8.5h-100q-30 0 -40.5 3.5t-11.5 17.5z" />
<glyph unicode="&#x22;" horiz-adv-x="1183" d="M381 973l86 401q7 38 40 65t71 27h92q38 0 60 -27t15 -65l-86 -401q-7 -38 -41 -65t-73 -27h-92q-38 0 -59 27t-13 65zM938 973l86 401q7 38 40 65t71 27h92q38 0 60.5 -27t15.5 -65l-86 -401q-7 -38 -41.5 -65t-73.5 -27h-92q-38 0 -59 27t-13 65z" />
<glyph unicode="#" horiz-adv-x="1878" d="M184 276q18 86 129 86h332l148 300h-416q-12 0 -21 0.5t-26 5t-27.5 13t-16.5 26t-1 41.5q18 86 127 86h469l258 512q33 75 102 75q36 0 55 -25.5t13 -60.5q-3 -12 -56 -119.5t-119 -238t-73 -143.5h297l258 512q33 75 102 75q36 0 55 -25.5t13 -60.5q-3 -12 -56 -119.5 t-119 -238t-73 -143.5h283q11 0 19.5 -0.5t25.5 -5t27.5 -13t16.5 -26t1 -41.5q-18 -86 -129 -86h-332l-147 -300h415q12 0 21 -0.5t26 -5t27.5 -13t16.5 -26t1 -41.5q-18 -86 -127 -86h-469l-258 -512q-39 -75 -102 -75q-36 0 -56 26t-12 60q3 17 100 210t148 291h-297 l-258 -512q-39 -75 -102 -75q-36 0 -56 26t-12 60q3 17 100 210t148 291h-283q-11 0 -19.5 0.5t-25.5 5t-27.5 13t-16.5 26t-1 41.5zM825 362h297l148 300h-297z" />
<glyph unicode="$" d="M131 145q2 11 31.5 84t32.5 82q1 1 2.5 5t3 6.5t3.5 6t4 5.5t5 4t6.5 3t7.5 1q16 0 23 -10q114 -124 278 -146l88 416q-153 28 -230 145.5t-44 278.5q44 189 154 291q116 107 299 123l3 10q2 9 3.5 13.5t6 15t9 17t12 15t15.5 13.5t20 8.5t25 3.5q26 0 40.5 -11.5 t16.5 -30t1.5 -29.5t-3.5 -23q97 -7 182 -49q3 -1 7 -3t16.5 -9t23.5 -13.5t24.5 -15.5t23 -17t15 -16.5t3.5 -15.5q0 -12 -10 -27l-45 -117q-7 -23 -15 -34t-24 -11q-11 0 -21 10q-30 29 -51 45.5t-69 38t-105 27.5l-76 -358q152 -31 227.5 -155t39.5 -298 q-84 -397 -457 -442q-17 -97 -94 -97q-73 0 -54 97q-184 17 -313 114q-31 24 -37 31t-4 18zM590 1073q-12 -59 13.5 -100t80.5 -62l68 322q-132 -25 -162 -160zM678 190q132 30 164 187q13 65 -9.5 114.5t-74.5 73.5z" />
<glyph unicode="%" horiz-adv-x="2107" d="M348.5 1008q3.5 54 16.5 116q42 205 158.5 308.5t299.5 103.5q92 0 154.5 -27.5t92.5 -68t41 -99t7.5 -109.5t-16.5 -110q-19 -88 -52 -159t-86 -129.5t-133 -90.5t-182 -32q-90 0 -152.5 25.5t-94 65t-44.5 96t-9.5 110.5zM406 -29q6 30 40 64l1409 1458q43 43 84 43 q36 0 56 -26t12 -60q0 -25 -37 -64l-1411 -1458q-43 -43 -86 -43q-35 0 -55 25.5t-12 60.5zM587 940q12 -81 91 -82q137 0 192 266q22 120 14 175q-14 90 -93 90q-26 0 -48 -9t-37.5 -20.5t-30 -37t-22.5 -41t-18 -52t-14 -51.5t-13 -56q-27 -133 -21 -182zM1288.5 182.5 q3.5 54.5 16.5 116.5q44 206 160.5 309t299.5 103q92 0 154.5 -27.5t92.5 -68t41 -99t7.5 -109.5t-16.5 -110q-19 -88 -52.5 -159t-86.5 -129.5t-133.5 -91t-182.5 -32.5q-90 0 -152.5 25.5t-94 65t-44.5 96t-9.5 111zM1527 158.5q0 -16.5 0.5 -39.5t7 -36t16.5 -26 t27 -18.5t40 -5.5q137 0 192 266q56 264 -79 264q-26 0 -48 -9t-37.5 -20.5t-29.5 -35.5t-22.5 -41.5t-18 -51t-13.5 -51.5t-12 -55q-7 -32 -10 -48.5t-8 -46t-5 -46z" />
<glyph unicode="&#x26;" horiz-adv-x="1701" d="M158 301q18 78 63 139t88 95q45 33 244 151q-44 196 -4 385q37 175 175.5 285t289.5 110q98 0 168 -48t97 -124t9 -161q-22 -99 -132 -199.5t-331 -237.5q24 -69 75 -156t86 -136.5t50 -65.5q104 71 221.5 200.5t210.5 307.5q16 34 23.5 43.5t21.5 9.5q12 0 142 -39 q8 -3 12.5 -5t8 -8.5t1.5 -15.5q-1 -7 -21.5 -47t-64 -109t-100 -145.5t-141 -164t-174.5 -156.5q77 -49 176 -49q108 0 219 41q16 8 22 8q10 0 15 -3t5.5 -12.5t-0.5 -17.5t-5 -26l-23 -99q-6 -32 -11.5 -42.5t-19.5 -14.5q-5 -3 -36 -11.5t-92 -18t-121 -9.5 q-109 0 -191 30.5t-164 82.5q-16 -8 -28.5 -14t-65.5 -27t-101 -34.5t-120 -25.5t-139 -12q-176 0 -272.5 100t-65.5 246zM443.5 275q1.5 -31 10 -55t32.5 -42t61 -18q122 0 252 49q-48 63 -71.5 95.5t-66.5 107t-67 141.5q-116 -56 -145 -197q-3 -14 -5 -32t-0.5 -49z M788 834q233 141 265 296q7 43 7 85t-20 73t-57 31q-52 0 -110 -49.5t-80 -151.5q-28 -146 -5 -284z" />
<glyph unicode="'" horiz-adv-x="626" d="M381 973l86 401q7 38 40 65t71 27h92q38 0 60 -27t15 -65l-86 -401q-7 -38 -41 -65t-73 -27h-92q-38 0 -59 27t-13 65z" />
<glyph unicode="(" horiz-adv-x="876" d="M248 148q-1 112 9 195.5t28 168.5q67 318 229.5 575t384.5 416q31 24 43 28.5t41 4.5h37q21 0 30 -1t16 -7t5 -19q-1 -5 -18 -22q-53 -51 -93.5 -96t-101.5 -132t-108.5 -183t-98.5 -244t-88 -320q-34 -159 -46.5 -296.5t-8 -234.5t23.5 -182.5t42 -139.5t55 -108 q18 -24 18 -36q-3 -13 -12 -19t-18.5 -7t-30.5 -1h-37q-32 0 -43 5.5t-37 33.5q-79 89 -129.5 198t-70.5 210t-21 213z" />
<glyph unicode=")" horiz-adv-x="876" d="M23 -485q0 8 16 22q54 52 94 97t101.5 132.5t108.5 183t98 243t87 319.5q34 159 46.5 296.5t8 234t-24 182.5t-42 140t-53.5 108q-19 29 -17 36q2 13 11 19t18.5 7t30.5 1h37q32 0 43 -5.5t37 -33.5q79 -89 129.5 -198t70.5 -210t21 -213t-9 -195.5t-28 -168.5 q-68 -319 -229.5 -575.5t-384.5 -415.5q-31 -24 -43 -28.5t-41 -4.5h-37q-21 0 -30 1t-15.5 7t-3.5 19z" />
<glyph unicode="*" d="M330 893q6 31 25.5 52t31 26t29.5 10l291 86l-256 86q-64 20 -48 88q10 48 51.5 83.5t82.5 35.5q32 0 61 -33l164 -188v268v39q8 36 45 63t82 27q42 0 68.5 -26t19.5 -64q-14 -35 -16 -39l-115 -268l248 188q3 2 10.5 8t10 7.5t8.5 5.5t9.5 5.5t9 3.5t11 2.5t12.5 0.5 q41 0 67.5 -35.5t16.5 -83.5q-5 -24 -15.5 -41t-27.5 -27t-23 -12.5t-20 -7.5l-291 -86l256 -86q60 -20 48 -88q-10 -48 -52.5 -83.5t-83.5 -35.5q-32 0 -59 33l-166 188v-268v-39q-6 -36 -44 -63t-83 -27q-42 0 -68.5 26t-19.5 64q14 35 16 39l115 268l-246 -188 q-19 -14 -25 -18.5t-19.5 -9.5t-28.5 -5q-41 0 -66.5 35.5t-15.5 83.5z" />
<glyph unicode="+" horiz-adv-x="1753" d="M233 512q18 86 127 86h558l118 557q3 14 7.5 26.5t16 34.5t33.5 35t52 13q85 0 63 -109l-118 -557h555q11 0 19.5 -0.5t25.5 -5t27.5 -13t16.5 -26t1 -41.5q-18 -86 -127 -86h-555l-119 -557q-3 -14 -7.5 -26.5t-16 -34.5t-33.5 -35t-52 -13q-85 0 -63 109l119 557h-557 q-11 0 -19.5 0.5t-26 5t-28 13t-16.5 26t-1 41.5z" />
<glyph unicode="," horiz-adv-x="626" d="M139 -190q36 61 54 92l55 98q-51 0 -59 7.5t1 47.5l33 158q9 40 18.5 47.5t49.5 7.5h158q40 0 46 -7.5t-3 -47.5l-33 -158q-6 -28 -10.5 -37t-22.5 -30l-143 -170q-20 -25 -30.5 -30t-41.5 -5h-25q-21 0 -29.5 1t-14.5 7t-3 19z" />
<glyph unicode="-" horiz-adv-x="751" d="M122.5 447q-2.5 10 2.5 22q14 74 113 74h403q12 0 20 -0.5t23.5 -4.5t24.5 -11t14.5 -22t1.5 -36q-16 -74 -115 -74h-403h-10t-12.5 0.5t-13.5 2t-13.5 4t-13 6t-11 9t-7.5 13t-3.5 17.5z" />
<glyph unicode="." horiz-adv-x="626" d="M187 7.5q-6 7.5 3 47.5l33 158q9 40 18.5 47.5t49.5 7.5h158q40 0 46 -7.5t-3 -47.5l-33 -158q-9 -40 -18.5 -47.5t-49.5 -7.5h-158q-40 0 -46 7.5z" />
<glyph unicode="/" d="M35 -426q2 17 22 47l1082 1845q39 70 100 70q36 0 56 -26t12 -60q-2 -14 -21 -47l-1083 -1845q-39 -70 -101 -70q-36 0 -55.5 26t-11.5 60z" />
<glyph unicode="0" d="M188 277q-10 137 43 390q2 9 7 35q17 84 29 134t40 140t57 148t79 129.5t108 113t141.5 70.5t181.5 29t168.5 -30t111 -69.5t59.5 -115t24.5 -128t-5.5 -149t-19 -138t-27 -133.5v-1q-18 -85 -29.5 -133t-39.5 -138t-57 -145t-79 -125t-107.5 -109.5t-141 -68 t-181.5 -28.5q-338 0 -363 322zM452 259q1 -32 8.5 -56.5t21 -49t40 -38t62.5 -13.5q44 0 82 21t61.5 47.5t44 65t28.5 60.5t15 46q39 113 98 389q58 277 66 375q10 213 -137 213q-157 0 -234 -236q-35 -108 -86 -352q-59 -275 -67 -385q-2 -20 -3 -37.5t0 -49.5z" />
<glyph unicode="1" d="M203 46.5q-4 11.5 2 27.5q14 73 112 73h160l225 1057q-102 -26 -198 -26h-9t-11.5 0.5t-12.5 1.5t-12.5 2.5t-12 4t-10.5 6.5t-8.5 9.5t-6 12.5t-2 16t2.5 20q8 40 39.5 57t66.5 17q71 1 130 13t102.5 34t62 33.5t45.5 32.5q23 19 36 23.5t44 4.5q26 0 42.5 -7 t23.5 -15.5t8.5 -24.5t0 -25.5t-4.5 -25.5l-260 -1221h143q12 0 19.5 -0.5t23.5 -4t25 -10.5t14.5 -22t1.5 -36q-16 -74 -115 -74h-583h-14t-17 1.5t-18 4.5l-16 8t-12.5 13t-6.5 19.5z" />
<glyph unicode="2" d="M133 98l4 17q6 28 10.5 36.5t22.5 22.5l479 418q246 212 287 399q13 47 8 95t-21.5 87t-57 64t-97.5 25q-94 0 -164 -58t-127 -170q-8 -20 -16 -29.5t-21 -9.5q-10 0 -14.5 5t-11.5 20l-76 131q31 62 77.5 116t73.5 75t48 34q129 90 305 90q146 0 243 -66t131 -172 t7 -233q-9 -44 -25.5 -83.5t-44 -78t-48 -64.5t-62.5 -64t-61 -54t-69 -57l-165 -119l-324 -256h332l139 2q107 0 119 -8q26 -12 29 -39.5t-5 -50.5l-6 -25q-11 -55 -36 -76.5t-83 -21.5h-702q-56 0 -72.5 21t-5.5 77z" />
<glyph unicode="3" d="M125 147l55 142q11 22 31 22q9 0 25 -20q39 -45 86.5 -76t93.5 -44.5t79 -18.5t64 -5q54 0 95.5 16t67.5 39.5t46 63t30 72.5t21 82q11 53 15 90t-0.5 74t-22 59.5t-53.5 36.5t-90 14h-90q-40 0 -46 8t3 48l8 36q5 28 9 38t15 14q3 2 70 8q39 3 61 6t54 17.5t61 41.5 q81 79 107 205q9 51 8 88t-30.5 58.5t-92.5 21.5q-173 0 -307 -149q-23 -23 -35 -23q-15 0 -25 25l-41 82l-2.5 5t-4 12t0.5 13q1 6 21.5 28.5t62 54.5t95 62t129.5 51t155 21q34 0 65 -2.5t75 -10.5t75.5 -23t68 -41t51 -63.5t25 -90.5t-9.5 -123q-21 -97 -92.5 -187 t-200.5 -153q130 -35 183 -126.5t24 -229.5q-45 -215 -191 -338t-399 -123q-76 0 -145 17.5t-114.5 42.5t-80 52.5t-49.5 49t-14 30.5z" />
<glyph unicode="4" d="M152 412l10 51q6 28 11 39.5t22 34.5l632 837q24 32 46 39.5t59 7.5h149q56 0 72 -21t4 -77l-172 -817h86q55 0 71.5 -20t6.5 -76q-13 -58 -40.5 -77.5t-78.5 -19.5h-86l-47 -215q-11 -55 -36 -76.5t-83 -21.5h-57q-60 0 -74.5 22.5t-3.5 75.5l47 215h-461 q-59 0 -73.5 22.5t-3.5 76.5zM385 506h358l148 700h-2q-38 -84 -504 -700z" />
<glyph unicode="5" d="M117 193q1 4 7.5 14t19.5 26t24 29t28 34t25 30q23 26 39 26q5 0 8.5 -1.5t6 -6.5l3.5 -7t3 -9q17 -57 48.5 -96t69.5 -56t67.5 -23t59.5 -6q32 0 59 4t49.5 14t40.5 19.5t33.5 28t26.5 31.5t21.5 38.5t16.5 40.5t14 45t11.5 45t10.5 48q33 158 29 215q-5 100 -95 100 q-131 0 -231 -121q-27 -34 -46.5 -41.5t-64.5 -7.5q-15 0 -23.5 0.5t-20 2t-18 5.5t-13.5 10.5t-9.5 16.5t-2 25t4.5 34l134 627q11 58 37.5 76t80.5 18h570q46 0 65.5 -14.5t17 -37.5t-6.5 -50q-6 -26 -11 -40t-17.5 -30.5t-35.5 -24t-57 -7.5h-402l-67 -320q79 27 155 27 q92 0 159.5 -23.5t107.5 -64.5t59 -100.5t18.5 -129.5t-18.5 -153q-52 -247 -209.5 -372.5t-406.5 -125.5q-82 0 -151 23t-109.5 56t-68 68.5t-38 59.5t-8.5 31z" />
<glyph unicode="6" d="M198 314.5q-4 58.5 5 144t17 128t22 109.5q10 47 16.5 75t26 94t39 112t54.5 113.5t73 115t95 100t120.5 85t148.5 54t180 21.5q76 0 125 -20t56.5 -30.5t-0.5 -47.5l-17 -76q-5 -28 -12.5 -41.5t-24.5 -13.5q-9 0 -26 14q-53 33 -133 33q-201 0 -304 -174 q-33 -58 -50.5 -110t-57.5 -201q122 182 289 182q64 0 115.5 -14t85.5 -35t57.5 -54.5t36 -65t17.5 -74.5t5 -73.5t-5 -72t-9 -61t-10 -48.5q-28 -135 -70 -223.5t-133 -171.5q-78 -71 -164.5 -102t-204.5 -31q-98 0 -169.5 31.5t-111 76.5t-59 119t-23.5 132.5zM468 336.5 q-3 -43.5 3.5 -75.5t20.5 -59t41.5 -41t66.5 -14q37 0 66.5 9t51 22t39.5 39.5t29.5 49t23.5 64.5t18.5 71.5t17.5 82.5q36 171 35 229q-2 98 -80 116q-20 4 -43 4q-52 0 -97 -26.5t-77 -73t-54 -103t-36 -123.5q-11 -49 -17 -88.5t-9 -83z" />
<glyph unicode="7" d="M309 76q9 41 16 69.5t33.5 109.5t57 150t87 173.5t123 198.5t166.5 207.5t216 217.5h-346l-144 -2q-111 0 -125 8q-26 12 -28.5 39.5t6.5 50.5l6 27q5 24 11.5 41t18 28t20.5 17t30 8.5t35 3t45 0.5h129l581 -2q39 -1 56 -17.5t14.5 -38.5t-6.5 -46q-11 -52 -33 -74 q-254 -252 -427.5 -540.5t-254.5 -647.5q-6 -28 -19 -46t-33 -24.5t-32 -8t-31 -1.5h-94q-60 0 -74.5 23t-3.5 76z" />
<glyph unicode="8" d="M182 416q63 280 326 350q-208 75 -156 301q85 399 522 399q63 0 115.5 -8.5t98.5 -28t77.5 -50t52 -75t22 -103.5t-12.5 -134q-49 -227 -287 -301q236 -71 178 -350q-99 -461 -567 -461q-227 0 -323 113.5t-46 347.5zM446 279.5q-3 -36.5 4.5 -56.5t23 -39.5t46 -28 t74.5 -8.5q43 0 77 8.5t58 28.5t40 40.5t29 57t20.5 64t17.5 74.5q7 33 10.5 51t7.5 48t3 47.5t-4.5 40.5t-14.5 36.5t-27.5 26.5t-42 18.5t-59.5 5.5q-53 0 -92.5 -17t-62.5 -39.5t-41.5 -65t-25.5 -71.5t-18 -81q-11 -48 -15.5 -76t-7.5 -64.5zM597.5 967.5 q-2.5 -26.5 1 -42t12 -33.5t25 -27.5t43 -16t62.5 -6.5t65 6.5t49.5 16t37.5 28.5t26.5 34t19.5 42.5t14.5 45t11.5 50.5q15 73 15.5 121.5t-34 73t-112.5 24.5q-59 0 -98 -13t-62.5 -45t-35.5 -66t-24 -95q-7 -33 -10.5 -52t-6 -45.5z" />
<glyph unicode="9" d="M178 80q5 14 94 125q20 22 29 25q4 1 8 1q15 0 23 -16q60 -68 164 -68q246 0 344 332q11 38 19 71t12 50.5t6 24.5q-19 -30 -42 -56.5t-59.5 -58.5t-85.5 -51t-102 -19q-103 0 -169.5 31t-109.5 107q-30 55 -37.5 119.5t-1 114.5t24.5 128q27 129 64 211t114 162 q92 90 190 121.5t211 31.5q96 0 165 -32t108.5 -72.5t57.5 -118t24 -128t-4.5 -145.5t-16 -126t-22.5 -113v-2q-10 -45 -17 -76t-26 -95t-38.5 -112t-53 -114.5t-71 -115t-92 -100.5t-116 -85t-142 -54.5t-171.5 -21.5q-57 0 -106.5 11.5t-80.5 28t-53.5 34.5t-32 31.5 t-8.5 19.5zM546 727.5q-2 -27.5 1.5 -41.5t8 -33t14.5 -28.5t23.5 -19t33 -13.5t43.5 -4q40 0 76.5 17t61.5 41.5t47.5 60t35.5 65t24 63.5t14.5 48.5t6.5 27.5q18 86 23.5 150t-2 116.5t-37 79.5t-80.5 27q-54 0 -95 -20.5t-63.5 -39.5t-45.5 -81t-29 -87t-26 -116 q-1 -1 -1 -2q-8 -40 -12 -59.5t-10.5 -54t-8 -52t-3.5 -45z" />
<glyph unicode=":" horiz-adv-x="626" d="M187 7.5q-6 7.5 3 47.5l33 158q9 40 18.5 47.5t49.5 7.5h158q40 0 46 -7.5t-3 -47.5l-33 -158q-9 -40 -18.5 -47.5t-49.5 -7.5h-158q-40 0 -46 7.5zM331 677.5q-6 7.5 1 47.5l35 158q8 40 16.5 47.5t48.5 7.5h158q40 0 46 -7.5t-1 -47.5l-35 -158q-8 -40 -16.5 -47.5 t-48.5 -7.5h-158q-40 0 -46 7.5z" />
<glyph unicode=";" horiz-adv-x="626" d="M139 -190q36 61 54 92l55 98q-51 0 -59 7.5t1 47.5l33 158q9 40 18.5 47.5t49.5 7.5h158q40 0 46 -7.5t-3 -47.5l-33 -158q-6 -28 -10.5 -37t-22.5 -30l-143 -170q-20 -25 -30.5 -30t-41.5 -5h-25q-21 0 -29.5 1t-14.5 7t-3 19zM331 677.5q-6 7.5 1 47.5l35 158 q8 40 16.5 47.5t48.5 7.5h158q40 0 46 -7.5t-1 -47.5l-35 -158q-8 -40 -16.5 -47.5t-48.5 -7.5h-158q-40 0 -46 7.5z" />
<glyph unicode="&#x3c;" horiz-adv-x="1830" d="M305 514q9 41 66 64l1411 612q24 12 43 12q28 0 41 -18.5t8 -42.5q-7 -40 -64 -66l-1298 -563l1059 -561q46 -26 37 -66q-5 -23 -26.5 -42t-49.5 -19q-16 0 -43 14l-1145 611q-46 22 -39 65z" />
<glyph unicode="=" horiz-adv-x="1753" d="M184 276q18 86 129 86h1280q16 0 28 -1.5t32.5 -8.5t29.5 -26.5t3 -49.5q-18 -86 -127 -86h-1285q-11 0 -19.5 0.5t-25.5 5t-27.5 13t-16.5 26t-1 41.5zM285 748q18 86 127 86h1284q11 0 19.5 -0.5t25.5 -5t27.5 -13t16.5 -26t1 -41.5q-18 -86 -129 -86h-1280 q-12 0 -21 0.5t-26 5t-27.5 13t-16.5 26t-1 41.5z" />
<glyph unicode="&#x3e;" horiz-adv-x="1830" d="M172 -115q8 42 66 66l1296 563l-1057 561q-47 24 -39 66q6 25 28.5 43t47.5 18q18 0 43 -14l1147 -610q46 -23 37 -64q-7 -43 -64 -65l-1413 -613q-24 -12 -41 -12q-28 0 -42 19t-9 42z" />
<glyph unicode="?" horiz-adv-x="1062" d="M385 98l16 72q11 55 36 76.5t83 21.5h72q59 0 73.5 -22t4.5 -76l-17 -72q-11 -55 -36 -76.5t-82 -21.5h-72q-56 0 -72.5 21t-5.5 77zM403 1315q4 20 74 51q160 78 342 78q425 0 359 -309q-34 -158 -164 -238q-35 -23 -60 -41t-67.5 -56t-72 -76t-58 -94.5t-41.5 -117.5 l-13 -55q-8 -40 -17 -48t-50 -8h-100q-29 0 -39.5 3t-14.5 14q0 8 15 71q57 283 309 494q32 27 45.5 41.5t27 44t23.5 76.5q19 86 -2 118.5t-117 32.5q-169 0 -305 -131q-18 -18 -31 -18t-16.5 7t-5.5 28l-16 100z" />
<glyph unicode="@" horiz-adv-x="1501" d="M276 711q77 366 305.5 549.5t592.5 183.5q92 0 162 -17.5t116 -48.5t74.5 -80t40 -104t10 -129t-12 -147t-30.5 -166q-8 -37 -13 -58t-19 -67t-27.5 -75.5t-38 -74t-52 -74t-68 -62.5t-87 -53t-108 -33t-132.5 -13q-221 0 -301.5 121t-32.5 348q47 221 177.5 345 t355.5 124q68 0 133 -15q-12 66 -59 98.5t-121 32.5q-34 0 -71 -4t-102 -18.5t-132 -52.5t-121 -95q-136 -148 -193 -415q-23 -110 -25 -195t10.5 -135.5t37.5 -97.5q41 -73 131.5 -115.5t222.5 -42.5q159 0 334 74q14 8 51 8h78q21 0 30 -1t16 -7t5 -19q-4 -20 -84.5 -67 t-146.5 -74q-163 -62 -320 -62q-361 0 -512.5 182.5t-73.5 551.5zM901 711q-72 -322 121 -322q192 0 258 322q6 28 8.5 43.5t7 54t3 63.5t-8.5 58t-22.5 53t-43.5 34.5t-67 14.5q-190 0 -256 -321z" />
<glyph unicode="A" horiz-adv-x="1501" d="M98 55q3 13 19 41l694 1237q18 31 38.5 50.5t42.5 27t35.5 9t35.5 1.5h180q22 0 34.5 -1.5t31 -9t29.5 -27t15 -50.5l170 -1237q4 -29 2 -41q-5 -25 -24 -38.5t-32.5 -15t-35.5 -1.5h-110q-36 0 -57.5 6.5t-33 24t-15 33.5t-7.5 49l-29 196h-567l-127 -227 q-17 -29 -36.5 -47t-42 -25t-35.5 -8.5t-33 -1.5h-74q-16 0 -25.5 1t-23 5.5t-18.5 17t-1 31.5zM612 485h445l-72 576q-5 36 -5 74q0 13 1 26h-2q-35 -79 -127 -241z" />
<glyph unicode="B" horiz-adv-x="1501" d="M207 98l260 1225q12 56 38.5 77t82.5 21h504q332 0 422 -160q30 -53 30 -123q0 -40 -10 -85q-25 -119 -118.5 -198t-244.5 -112q296 -48 296 -265q0 -38 -9 -81q-16 -76 -51 -138.5t-77.5 -103t-98 -70.5t-105 -46t-107 -25t-95.5 -11.5t-78 -2.5h-561q-57 0 -73 21 q-10 13 -9 38q0 17 4 39zM512 176h297q319 0 367 225q7 32 7 61q0 38 -12 68q-21 54 -55 79t-90.5 39t-85.5 16t-66 2h-258zM647 813h238q19 0 34.5 0.5t51.5 5t65.5 13t67 26t65.5 41t52 62t34 86.5q5 22 5 41q0 30 -12 54q-18 40 -48 59t-78.5 29.5t-77.5 12.5t-65 2h-240 z" />
<glyph unicode="C" horiz-adv-x="1439" d="M276 711q77 366 306 551q230 184 600 184q114 0 202 -16q91 -17 189 -58q15 -8 10 -29l-84 -219q-8 -20 -31 -20q-10 0 -16 6q-57 66 -135 100q-74 31 -178 31q-226 0 -365 -131q-138 -131 -196 -399q-24 -109 -24 -195q0 -125 50 -205q86 -129 309 -129q135 0 213 25 q85 26 207 106q12 4 17 4q9 0 15 -6.5t5 -15.5l-22 -176q-3 -15 -17 -25q-137 -71 -229 -94q-90 -23 -232 -23q-373 0 -522 185q-99 121 -99 320q0 104 27 229z" />
<glyph unicode="D" horiz-adv-x="1626" d="M207 98l260 1225q12 56 38.5 77t82.5 21h540q61 0 118.5 -7.5t129.5 -28t135 -66.5t103 -113q62 -106 62 -269q0 -107 -27 -237q-27 -124 -70.5 -227t-113 -192t-159 -150.5t-212 -96t-269.5 -34.5h-540q-57 0 -73 21q-10 13 -9 38q0 17 4 39zM518 176h264 q91 0 166.5 17.5t129 45t97 71.5t71 86t50 100t34 101.5t24.5 102.5q10 46 15.5 79.5t10.5 81.5q4 37 4 66v17q-2 34 -9.5 77t-24.5 73t-45.5 60.5t-69 49t-98 30t-129.5 11.5h-263z" />
<glyph unicode="E" horiz-adv-x="1314" d="M207 98l260 1219q12 57 37.5 77.5t81.5 20.5h805q59 0 73 -22q8 -13 8 -37q0 -17 -4 -39l-4 -17q-6 -29 -16 -48t-20 -29t-29.5 -15t-32.5 -5.5t-41 -0.5l-481 6h-101l-79 -379h538q54 0 72 -20q10 -12 11 -36q0 -17 -5 -40q-11 -58 -39 -77t-80 -19h-538l-88 -420l299 4 l317 4q19 0 28 -0.5t23.5 -2t21 -5t14 -10.5t9.5 -17.5t2 -26t-4 -36.5l-6 -29q-11 -55 -36 -76.5t-83 -21.5h-835q-57 0 -73 21q-10 13 -9 38q0 17 4 39z" />
<glyph unicode="F" horiz-adv-x="1251" d="M207 98l260 1219q12 57 37.5 77.5t81.5 20.5h772q60 0 74 -22q9 -13 8 -37q0 -17 -4 -39l-4 -17q-7 -35 -19 -56t-33 -30t-36.5 -10.5t-49.5 -1.5l-463 6h-88l-84 -403h476q55 0 71 -20q10 -12 10 -38q0 -16 -4 -38q-13 -58 -40 -77.5t-78 -19.5h-476l-110 -514 q-11 -55 -36 -76.5t-83 -21.5h-104q-57 0 -73 21q-10 13 -9 38q0 17 4 39z" />
<glyph unicode="G" horiz-adv-x="1501" d="M276 711q77 366 306 551q230 184 600 184q121 0 221 -25q94 -21 196 -78q15 -7 9 -28l-84 -217q-8 -23 -29 -23q-10 0 -18 8q-64 84 -144 121q-78 37 -194 37q-226 0 -365 -131q-138 -131 -196 -399q-24 -109 -24 -195q0 -126 50 -205q86 -129 309 -129q91 0 199 23 l57 266h-170q-10 0 -15.5 8t-2.5 19l29 141q8 27 30 27h424q10 0 16 -8t3 -19l-113 -537q-3 -15 -20 -22q-239 -103 -480 -103q-373 0 -522 185q-99 121 -99 320q0 104 27 229z" />
<glyph unicode="H" horiz-adv-x="1626" d="M207 98l260 1225q12 56 38.5 77t82.5 21h104q59 0 73 -22q8 -12 8 -35q0 -18 -5 -41l-102 -487h649l102 487q12 55 38 76.5t83 21.5h104q59 0 73 -22q8 -12 8 -35q0 -18 -5 -41l-260 -1225q-11 -55 -36 -76.5t-83 -21.5h-104q-61 0 -75 22q-8 13 -8 36q0 17 5 40l117 545 h-649l-117 -545q-11 -55 -36 -76.5t-83 -21.5h-104q-57 0 -73 21q-10 13 -9 38q0 17 4 39z" />
<glyph unicode="I" horiz-adv-x="677" d="M209 98l260 1225q12 56 38.5 77t82.5 21h104q59 0 73 -22q8 -12 8 -35q0 -18 -5 -41l-260 -1225q-11 -55 -36 -76.5t-83 -21.5h-104q-57 0 -73 21q-10 13 -9 38q0 17 4 39z" />
<glyph unicode="J" horiz-adv-x="1062" d="M109 68q4 17 69 180q16 39 37 39q9 0 13 -4.5t14 -20.5q21 -39 67 -70.5t125 -31.5q51 0 90 13t59.5 28.5t36 42.5t19 39t8.5 34l213 1006q12 55 38 76.5t83 21.5h98q59 0 73 -22q8 -12 8 -35q0 -17 -5 -41l-215 -1018q-37 -172 -166 -261t-303 -89q-171 0 -319 72 q-29 12 -37.5 20t-5.5 21z" />
<glyph unicode="K" horiz-adv-x="1564" d="M207 98l260 1225q12 56 38.5 77t82.5 21h69q59 0 73 -22q8 -12 8 -35q0 -18 -5 -41l-119 -565l791 622q25 19 50.5 28.5t40 11t38.5 1.5h125q21 0 32 -1.5t21.5 -11.5t5.5 -30q-5 -22 -32 -43l-648 -506l410 -770q-4 -17 -10 -28.5t-12 -17.5t-18 -9t-19.5 -3.5 t-24.5 -0.5h-123q-19 0 -28.5 1t-23 4.5t-23.5 13t-19 24.5l-328 614l-272 -215l-74 -344q-11 -55 -36 -76.5t-83 -21.5h-69q-57 0 -73 21q-10 13 -9 38q0 17 4 39z" />
<glyph unicode="L" horiz-adv-x="1189" d="M207 98l260 1225q12 56 38.5 77t82.5 21h104q59 0 73 -22q8 -12 8 -35q0 -18 -5 -41l-238 -1116l512 8q44 0 64 -15t18 -36.5t-6 -46.5l-4 -19q-11 -55 -36 -76.5t-83 -21.5h-710q-57 0 -73 21q-10 13 -9 38q0 17 4 39z" />
<glyph unicode="M" horiz-adv-x="2002" d="M207 98l260 1225q12 56 38.5 77t82.5 21h170q16 0 25.5 -0.5t27 -5t29 -12.5t22 -25t15.5 -41l124 -647q6 -35 22.5 -125t28 -158.5t13.5 -101.5h2q39 91 213 365l410 663q36 56 72 72t85 16h172q59 0 73 -22q8 -12 8 -35q0 -18 -5 -41l-260 -1225q-11 -55 -36 -76.5 t-83 -21.5h-55q-61 0 -75 22q-8 13 -8 36q0 17 5 40l225 1059h-2q-16 -35 -103.5 -181t-121.5 -200l-399 -643q-16 -26 -33 -43t-31 -26t-35 -13.5t-34.5 -5t-40.5 -0.5t-40 0.5t-32.5 5t-30 13.5t-20.5 26t-15 43l-114 584q-66 347 -70 440h-2l-225 -1059 q-11 -55 -36 -76.5t-83 -21.5h-55q-57 0 -73 21q-10 13 -9 38q0 17 4 39z" />
<glyph unicode="N" horiz-adv-x="1626" d="M207 98l260 1225q12 56 38.5 77t82.5 21h190q22 0 35 -1.5t33.5 -8.5t35 -25t23.5 -47l332 -1091h2l227 1075q12 55 38 76.5t83 21.5h55q59 0 73 -22q8 -12 8 -35q0 -18 -5 -41l-260 -1225q-11 -55 -36 -76.5t-83 -21.5h-190q-22 0 -35 1.5t-33.5 8.5t-35 25t-23.5 47 l-332 1092h-2l-229 -1076q-11 -55 -36 -76.5t-83 -21.5h-55q-57 0 -73 21q-10 13 -9 38q0 17 4 39z" />
<glyph unicode="O" horiz-adv-x="1626" d="M274 700q163 766 850 766q555 0 555 -503q0 -118 -30 -263q-23 -109 -57.5 -201.5t-84.5 -178t-118 -151t-153 -114.5t-195.5 -74.5t-239.5 -25.5q-557 0 -557 490q0 114 30 255zM545 409q16 -290 293 -290q62 0 117.5 16t98 40t80.5 63.5t64.5 75.5t51 89t39 89.5 t29.5 90.5t21 80t15 70q35 167 35 268q0 17 -1 33q-17 273 -298 273q-79 0 -146.5 -22.5t-115 -59t-86.5 -87t-64 -102t-44.5 -109.5t-31 -103.5t-20.5 -88.5v-2q-38 -179 -38 -290q0 -18 1 -34z" />
<glyph unicode="P" horiz-adv-x="1439" d="M207 98l260 1225q12 56 38.5 77t82.5 21h512q246 -1 358 -109q79 -76 78 -209q0 -57 -14 -124q-46 -216 -203 -323t-404 -107h-311l-96 -451q-11 -55 -36 -76.5t-83 -21.5h-104q-57 0 -73 21q-10 13 -9 38q0 17 4 39zM633 711h250q67 0 119 10t88 30t61 42t41.5 56t26 62 t18.5 68q11 49 13 83v14q0 28 -8 58q-10 38 -36 60t-78.5 36.5t-130.5 14.5h-252z" />
<glyph unicode="Q" horiz-adv-x="1626" d="M274 700q163 766 850 766q555 0 555 -503q0 -118 -30 -263q-107 -479 -412 -643l96 -172q3 -7 7.5 -15.5t6.5 -12t4 -8.5t2 -7.5v-6t-1 -7.5q-10 -45 -84 -45h-164q-50 0 -64 10.5t-36 61.5l-54 110q-68 -10 -149 -10q-557 0 -557 490q0 114 30 255zM534 468v-18 q0 -30 2 -67q3 -50 14.5 -84t34 -71.5t55.5 -60t83 -37.5t113 -15l41 4q1 3 -4.5 16.5t-13.5 29.5t-9 19q-68 129 -68 162q0 16 12 31q9 10 23.5 14t24 5t24.5 1h125q25 0 33 -0.5t16.5 -5.5t16.5 -16l82 -146q40 37 74 88.5t55 96.5t39.5 105t27 95.5t19.5 87.5 q12 57 18.5 92.5t13.5 105.5q6 48 6 85q0 17 -2 33q-3 47 -19.5 106.5t-49 95.5t-91.5 61.5t-140 25.5q-371 0 -499 -511q-9 -34 -22 -94q-9 -42 -14 -68.5t-12.5 -78t-8.5 -87.5z" />
<glyph unicode="R" horiz-adv-x="1439" d="M207 98l260 1225q12 56 38.5 77t82.5 21h491q51 0 93 -2.5t127.5 -24t138 -60t84.5 -120.5q18 -47 18 -104q0 -43 -10 -92q-62 -285 -402 -363l222 -594q-6 -29 -20.5 -43t-27.5 -16t-40 -2h-121q-28 0 -40 2t-24.5 12.5t-21.5 34.5l-211 588h-228l-114 -539 q-11 -55 -36 -76.5t-83 -21.5h-98q-57 0 -73 21q-10 13 -9 38q0 17 4 39zM647 784h266q91 0 153.5 18t97.5 53.5t51.5 72t27.5 88.5q10 40 10 75q-1 9 -1 18q-4 42 -24.5 72t-74.5 47t-141 17h-267z" />
<glyph unicode="S" horiz-adv-x="1251" d="M127 123q0 7 10 27l68 178q14 37 37 37q12 0 30 -25q67 -73 167 -117.5t223 -44.5q244 0 286 199q4 19 4 38q0 56 -37 103q-26 28 -60.5 41.5t-127.5 36.5q-61 15 -86.5 21.5t-68.5 21t-66.5 29t-52 38t-52.5 54.5q-65 85 -65 193q0 42 10 87q17 79 49.5 144t71.5 108.5 t89 76t97 50.5t101.5 29t95.5 14.5t86 3.5q205 0 354 -82q34 -20 40 -26.5t3 -18.5q-6 -18 -10 -26l-68 -178q-14 -37 -36 -37q-6 0 -11.5 4.5t-25.5 27.5q-55 69 -126.5 97t-164.5 28q-243 0 -281 -178q-7 -33 0.5 -62t23.5 -47t38 -33t39.5 -21.5t33.5 -10.5l187 -45 q152 -37 233 -159q57 -86 57 -194q0 -45 -10 -95q-50 -231 -205 -343t-393 -112q-149 0 -290 47q-1 0 -18 7t-39 16.5t-48 22.5t-47 25.5t-34 26t-11 23.5z" />
<glyph unicode="T" horiz-adv-x="1501" d="M352 1257.5q0 15.5 4 36.5l4 17q12 57 37.5 77.5t81.5 20.5h1139q60 -1 74 -23q8 -13 9 -35q0 -17 -5 -40l-4 -17q-6 -28 -16 -47.5t-20 -29.5t-28 -15t-29 -5.5t-34 -0.5l-408 6l-235 -1104q-11 -55 -36 -76.5t-83 -21.5h-105q-56 0 -72 21q-9 12 -9 37q0 17 4 40 l235 1104l-414 -6q-16 0 -24 0.5t-21 2t-19.5 5t-14 10.5t-9.5 17.5t-2 26z" />
<glyph unicode="U" horiz-adv-x="1564" d="M271 340q1 61 16 131l180 852q12 56 38.5 77t82.5 21h104q59 0 73 -22q8 -12 8 -35q0 -18 -5 -41l-182 -860q-15 -72 -15 -128q-1 -77 27 -123q48 -82 219 -81q91 0 158 23t110 69.5t68.5 104t42.5 137.5l182 858q12 55 38 76.5t83 21.5h82q59 0 73 -22q8 -12 8 -35 q0 -18 -5 -41l-180 -854q-19 -92 -56.5 -168t-82.5 -128.5t-103 -92t-114.5 -63t-120.5 -38t-116.5 -19.5t-107.5 -5q-46 0 -88.5 3.5t-88.5 12t-86 22t-78 35.5t-67.5 50t-51.5 68q-22 39 -34 86q-11 43 -11 98v10z" />
<glyph unicode="V" horiz-adv-x="1501" d="M346 1366q5 25 24 38.5t32.5 15t35.5 1.5h111q18 0 28 -0.5t26.5 -5t26.5 -13.5t19.5 -26.5t12.5 -42.5l137 -915q6 -36 11 -76t7.5 -62t3.5 -24l172 315l439 760q19 32 39.5 52t43 27.5t36 9t36.5 1.5h80q16 0 25.5 -1t23 -5.5t18.5 -17t1 -31.5q-1 -4 -3 -7.5 t-6.5 -11.5t-9.5 -18l-721 -1239q-18 -32 -38 -52t-42 -27.5t-35.5 -9t-35.5 -1.5h-189q-22 0 -34.5 1.5t-31.5 9t-30.5 26.5t-15.5 49l-195 1243q-4 26 -2 37z" />
<glyph unicode="W" horiz-adv-x="2127" d="M338 1323v39q5 21 16.5 34t28 18t27 6t26.5 1h70q21 0 33 -1.5t30 -9t28 -27t11 -50.5l37 -655q14 -219 14 -340q0 -45 -2 -76h2q14 40 84 195l95 202l323 672q16 32 34.5 52t40.5 27.5t35.5 9t35.5 1.5h135q50 0 74 -17t28 -73l45 -829q8 -152 8 -217v-23h2 q28 65 121 262l389 807q16 32 34.5 52t40 27.5t34.5 9t35 1.5h43h14t15 -1t14.5 -3.5t13 -6.5t10 -10.5t4.5 -15.5t-2 -22q-2 -10 -16 -39l-598 -1237q-15 -30 -32.5 -49t-38.5 -26.5t-34.5 -9t-35.5 -1.5h-148q-22 0 -34 1.5t-30 9t-27.5 26.5t-10.5 49l-45 772 q-8 142 -8 258v45h-2q-45 -104 -123 -266l-385 -801q-16 -33 -34.5 -54t-40.5 -28.5t-35.5 -9.5t-35.5 -2h-135q-22 0 -34.5 1.5t-31 9t-28 26.5t-10.5 49z" />
<glyph unicode="X" horiz-adv-x="1501" d="M86 47q0 2 0.5 4t1.5 4t1.5 3.5t2 3.5t2.5 3.5t3.5 4l4.5 4.5t6 6.5t7 7.5l624 666l-323 581q-16 25 -13 41q5 21 20.5 31.5t28 12t33.5 1.5h170q27 0 39.5 -1.5t28 -12.5t27.5 -33l194 -379l350 383q19 20 40.5 30t34.5 11.5t36 1.5h154q21 0 33 -1.5t23.5 -12.5 t6.5 -33q-4 -14 -31 -41l-544 -579l374 -668q14 -23 11 -41q-10 -45 -84 -45h-170q-25 0 -38 1.5t-29.5 12t-25.5 31.5l-237 492l-434 -488q-28 -31 -45.5 -40t-65.5 -9h-153q-21 0 -33 1.5t-24 12.5t-7 33z" />
<glyph unicode="Y" horiz-adv-x="1501" d="M342 1374q4 17 12.5 27t23 14t24 5t24.5 1h135q58 0 91 -17.5t57 -66.5l159 -331q55 -109 76 -181q23 35 54.5 73.5t56 66t84.5 92.5l260 286q34 36 71.5 54.5t57.5 21t51 2.5h100q21 0 33 -1.5t24 -12.5t7 -33q-6 -20 -29 -43l-696 -764l-100 -471q-12 -56 -38 -76 t-81 -20h-99q-56 0 -72 21q-9 12 -9 37q0 17 4 40l100 471l-373 764q-13 25 -8 41z" />
<glyph unicode="Z" horiz-adv-x="1376" d="M145 98l5 17q6 31 10.5 41t23.5 30l963 1041h-72l-534 -6q-23 0 -33.5 0.5t-26.5 2t-22.5 5.5t-15 11t-10 17.5t-1.5 26.5t4 37q11 54 35.5 77t85.5 23h897q45 0 65 -14t18 -37t-7 -51q-8 -36 -13 -46.5t-24 -29.5l-958 -1036l655 8q20 0 29 -0.5t23.5 -2t21 -5 t14.5 -10.5t10 -17.5t2 -26t-4 -36.5l-4 -19q-11 -55 -36 -76.5t-83 -21.5h-940q-57 0 -73 21q-10 13 -9 38q0 17 4 39z" />
<glyph unicode="[" horiz-adv-x="702" d="M90 -414l393 1852q12 55 37 76.5t82 21.5h277q12 0 20 -0.5t23.5 -4.5t24.5 -11t14.5 -22t1.5 -36q-16 -73 -115 -73h-109l-372 -1754h108q13 0 20.5 -0.5t23.5 -4t24.5 -10.5t14 -22t1.5 -36q-16 -74 -115 -74h-276q-60 0 -74.5 22.5t-3.5 75.5z" />
<glyph unicode="\" horiz-adv-x="1177" d="M444 1473q6 29 28 46t46 17q29 0 39.5 -14.5t15.5 -46.5l373 -1883q5 -33 2 -41q-6 -29 -28 -46t-46 -17q-20 0 -32 10t-15.5 20.5t-7.5 30.5l-370 1883q-7 30 -5 41z" />
<glyph unicode="]" horiz-adv-x="702" d="M-45.5 -460q-2.5 10 2.5 22q14 73 113 73h108l373 1754h-109h-11.5t-14 1t-15.5 2.5t-15.5 5t-13.5 9t-9.5 13t-4.5 18t2 24.5q14 74 113 74h277q60 0 74 -22.5t3 -75.5l-393 -1852q-11 -55 -36 -76.5t-83 -21.5h-276h-10t-12.5 0.5t-13.5 2t-13.5 4t-13 6t-11 9t-7.5 13 t-3.5 17.5z" />
<glyph unicode="^" horiz-adv-x="1138" d="M244 1196l649 328l510 -328l-35 -45l-502 252l-610 -252z" />
<glyph unicode="_" horiz-adv-x="1501" d="M-84 -395l59 278h1502l-60 -278h-1501z" />
<glyph unicode="`" d="M541 1395q3 13 12.5 19t18 6.5t30.5 0.5h168q30 0 37 -3t18 -21l125 -240q6 -10 9.5 -18t3.5 -11v-2q-3 -13 -13 -19t-18.5 -6.5t-30.5 -0.5h-76l-268 264q-21 17 -16 31z" />
<glyph unicode="a" horiz-adv-x="1075" d="M139 166q-6 24 -6 48q0 29 8 58q11 48 38.5 89.5t64 70.5t85.5 53t96 38.5t101.5 25.5t96 17t86.5 8.5t65.5 3t40.5 0.5l14 71q12 46 12 82q0 34 -11 58q-23 49 -103 49q-187 0 -346 -138q-16 -12 -27 -12q-10 0 -16 7t-4 16q0 37 16 149q4 17 15.5 25t48.5 22 q174 66 350 66q28 0 47 -0.5t59.5 -4.5t65.5 -12.5t64.5 -24t56.5 -39.5t41 -58q20 -28 20 -64v-16q-6 -46 -10 -107l-117 -549q-11 -55 -36 -76.5t-83 -21.5h-75q-61 0 -75 22q-8 13 -8 36q0 17 5 40l8 41q-44 -50 -96.5 -84.5t-101.5 -50t-85.5 -21.5t-68.5 -6 q-65 0 -117 26t-79.5 68.5t-39.5 94.5zM410 276q-4 -19 -4 -36q0 -39 20 -70q30 -45 92 -45q6 0 13.5 0.5t29.5 4t42 10t46 21t46.5 33.5t38.5 50.5t26 70.5l37 179q-23 -1 -46.5 -3.5t-69 -9t-84.5 -22t-79.5 -38t-69 -60t-38.5 -85.5z" />
<glyph unicode="b" horiz-adv-x="1148" d="M145 98l261 1225q12 56 38 77t82 21h76q59 0 73 -22q8 -12 8 -35q0 -18 -5 -41l-100 -477q14 12 36.5 27t64 37t98 36.5t114.5 14.5q62 0 111.5 -14t82 -35.5t54.5 -56t34 -65t16 -74.5t4 -72.5t-5.5 -70.5t-8 -57t-8.5 -43q-7 -30 -10.5 -44.5t-17 -58.5t-26 -72 t-37.5 -73t-52 -75.5t-68 -66t-87.5 -56.5t-109 -35.5t-132.5 -14.5q-136 0 -211 103q-6 -28 -19.5 -46t-33 -24.5t-31.5 -8t-31 -1.5h-82q-57 0 -73 21q-10 13 -9 38q0 17 4 39zM446 205q44 -80 144 -80q48 0 87.5 12t67 29t51 48.5t36.5 55.5t26.5 67t19 66t15.5 68 q9 44 14 68.5t10 66.5q3 28 3 47v19q-2 24 -11.5 54t-27.5 47t-49 28.5t-74 11.5q-108 0 -197 -72z" />
<glyph unicode="c" horiz-adv-x="1001" d="M176 471q107 502 602 502q101 0 159 -14.5t130 -51.5q26 -13 35 -21.5t6 -21.5q-1 -7 -25 -68t-30 -73q-13 -27 -33 -27q-13 0 -31 23q-51 51 -101 72.5t-143 21.5q-44 0 -80 -10.5t-62 -26.5t-48 -44.5t-36 -53t-27 -64.5t-20 -67.5t-17 -71.5q-7 -32 -9.5 -46.5t-8 -48 t-5.5 -52t1 -48t7.5 -46.5t18.5 -38t30 -32t45 -19t62 -8q172 0 324 115q25 20 36 20q21 0 21 -26q-4 -61 -19 -144q-3 -15 -13 -22t-58 -31q-156 -72 -330 -72q-237 0 -335 122q-64 79 -65 213q0 72 19 159z" />
<glyph unicode="d" horiz-adv-x="1148" d="M160 218q-5 33 -5 72q0 76 19 177q40 176 112 282q144 211 410 212q149 0 236 -103l98 465q12 55 38 76.5t83 21.5h76q59 0 73 -22q8 -12 8 -35q0 -18 -5 -41l-261 -1225q-11 -55 -36 -76.5t-82 -21.5h-82q-54 0 -72 20q-11 12 -11 37q0 17 5 39q-138 -119 -287 -119 q-278 0 -317 241zM428 262q10 -127 137 -136q11 -1 23 -1q65 0 131 37q47 28 60 45.5t20 48.5l104 494q-54 63 -147 63q-37 0 -69.5 -7.5t-57 -18t-46.5 -30.5t-36.5 -37t-29 -46t-22.5 -48.5t-17 -53.5t-13.5 -52t-11.5 -53q-25 -127 -25 -189v-16z" />
<glyph unicode="e" horiz-adv-x="1046" d="M166 477q50 237 201 366.5t393 129.5q220 -1 300 -117q51 -74 50 -186q0 -63 -16 -138q-5 -26 -15 -45t-20.5 -28t-27 -14t-27.5 -6t-29 -1h-557q-5 -34 -7.5 -59t-2.5 -60t6 -60t20 -51.5t36.5 -43.5t59 -28t84.5 -11q170 0 334 119q27 20 39 20q14 0 17 -9.5t0 -55.5 q-10 -79 -13 -90q-3 -16 -13.5 -24.5t-47.5 -25.5q-5 -3 -8 -4q-172 -78 -347 -78q-246 0 -354 126q-72 85 -72 224q0 68 17 150zM444 547h426q12 81 12 143t-37.5 98.5t-115.5 36.5q-212 0 -285 -278z" />
<glyph unicode="f" horiz-adv-x="688" d="M197 98l147 693h-14t-14.5 0.5t-15.5 1.5t-14 2.5t-14 4.5t-11.5 6.5t-9 9t-5.5 12.5t-2.5 16t2.5 20q5 26 19 42.5t36 22.5t36.5 7.5t37.5 1.5l35 164q74 342 473 342q74 0 131 -12q49 -10 57 -19.5t0 -46.5l-20 -94q-5 -28 -12.5 -40.5t-26.5 -12.5q-12 0 -25 20 q-25 30 -56 43.5t-79 13.5q-47 0 -79.5 -12.5t-48.5 -36.5t-22.5 -41.5t-11.5 -44.5l-49 -223h104q12 0 20 -0.5t23.5 -4.5t24.5 -11t14.5 -22t1.5 -36q-16 -73 -114 -73h-99l-147 -693q-11 -55 -36 -76.5t-83 -21.5h-76q-56 0 -72 21q-9 12 -9 37q0 17 4 40z" />
<glyph unicode="g" d="M17.5 -191q-2.5 32 5.5 54q8 37 26.5 68t36 48.5t45 33t37.5 19.5t29 11q-27 48 -27 105q0 28 6 57q3 13 8.5 31.5t28 59.5t53.5 75q-56 61 -56 158q0 44 11 94q12 55 33.5 101t46.5 78.5t59 58.5t64 42t68 28t65 17.5t61 8.5t49.5 3.5t37.5 0.5q180 0 274 -72 q63 33 136 52.5t124 19.5q27 0 31 -7.5t2 -46.5q0 -70 -2 -78q-2 -11 -11.5 -18.5t-21.5 -7.5q-11 0 -27 8q-78 23 -184 23q27 -52 27 -120q0 -43 -11 -93q-12 -55 -33.5 -101t-46.5 -78.5t-58.5 -58.5t-63.5 -42t-68.5 -28t-65 -17.5t-60.5 -8.5t-49.5 -3.5t-37.5 -0.5 q-164 0 -248 53q-10 -29 -10 -31q-3 -11 -3 -23q0 -35 26 -69q17 -17 40.5 -21t86.5 -4h98q55 0 83.5 -0.5t80 -2t79 -6t70 -12t65.5 -19.5t52 -29t42 -40.5t24 -53.5q10 -27 10 -63v-6q-1 -40 -11 -87q-61 -291 -573 -291q-230 0 -338 55q-41 21 -68.5 52t-36 61.5 t-11 62.5zM233 -131q-7 -34 3.5 -60t37.5 -41t53 -24t66.5 -12.5t61 -4.5t51.5 -1q299 0 328 137q1 8 1 15q0 43 -48 63q-57 24 -185 24h-237q-20 0 -30.5 -0.5t-29.5 -5.5t-31 -14.5t-23.5 -28.5t-17.5 -47zM468 522q-1 -4 -1 -7q0 -38 27 -61q30 -24 98 -24q42 0 72.5 10 t49 24.5t32.5 43t20.5 51t15.5 64.5q11 57 14 99v7q0 38 -27 60q-29 24 -97 24q-42 0 -72.5 -10t-49 -24t-32.5 -42.5t-21 -51.5t-16 -64q-11 -57 -13 -99z" />
<glyph unicode="h" horiz-adv-x="1148" d="M143 98l260 1225q12 56 38.5 77t82.5 21h76q59 0 73 -22q8 -12 8 -35q0 -18 -5 -41l-119 -561h2q15 21 34.5 43t55 51.5t74.5 51.5t94 37.5t113 15.5q158 0 214 -69q34 -43 34 -119q0 -47 -13 -107l-121 -568q-11 -55 -36 -76.5t-82 -21.5h-82q-60 0 -74 22q-8 13 -9 36 q0 17 5 40l121 564q9 39 9 67.5t-9 46.5q-18 36 -88 37q-56 0 -111.5 -27.5t-103 -89t-66.5 -145.5l-96 -453q-11 -55 -36 -76.5t-83 -21.5h-82q-57 0 -73 21q-10 13 -9 38q0 17 4 39z" />
<glyph unicode="i" horiz-adv-x="524" d="M145 98l158 742q12 57 37.5 77.5t81.5 20.5h76q60 0 74 -22q8 -13 8 -35q0 -17 -5 -41l-157 -742q-11 -55 -36 -76.5t-83 -21.5h-76q-57 0 -73 21q-10 13 -9 38q0 17 4 39zM375 1241l8 39q11 55 36 76.5t83 21.5h104q60 0 74 -22q8 -13 9 -36q0 -17 -5 -40l-8 -39 q-12 -52 -35.5 -75t-83.5 -23h-104q-61 -1 -75 23q-8 14 -7 37q0 16 4 38z" />
<glyph unicode="j" horiz-adv-x="585" d="M-215 -324q3 10 37 66q23 40 30 47.5t19 7.5q2 0 18 -8q50 -37 121 -37q43 0 73.5 12.5t45.5 36t21.5 41t11.5 43.5l203 955q12 56 36.5 77t81.5 21h76q60 0 75 -22q8 -13 8 -36q0 -17 -5 -40l-193 -906q-35 -164 -128 -259t-253 -95q-62 0 -129.5 16t-110 38.5 t-38.5 41.5zM422 1241l8 39q11 55 36 76.5t83 21.5h104q60 0 75 -22q8 -13 8 -36q0 -17 -5 -40l-8 -39q-12 -52 -35.5 -75t-83.5 -23h-104q-61 0 -74 23q-8 14 -8 37q0 16 4 38z" />
<glyph unicode="k" horiz-adv-x="1087" d="M162 98l260 1225q12 56 38.5 77t82.5 21h43q59 0 73 -22q8 -12 8 -35q0 -18 -5 -41l-150 -702l354 274q26 20 51.5 30t40 11.5t39.5 1.5h119q15 0 23.5 -1t20.5 -4.5t16.5 -13t1.5 -24.5q-3 -12 -10 -19.5t-31 -25.5l-377 -293l256 -467q4 -8 7 -15t4 -12.5t1.5 -9.5 t-0.5 -6v-2q-4 -16 -12.5 -26t-23 -13.5t-23.5 -4.5t-25 -1h-98q-44 0 -61 8.5t-37 42.5l-193 348q-19 -15 -57.5 -44.5t-57.5 -43.5l-45 -213q-11 -55 -36 -76.5t-83 -21.5h-36q-56 0 -72 21q-10 13 -10 38q0 17 4 39z" />
<glyph unicode="l" horiz-adv-x="524" d="M145 98l261 1225q12 56 38 77t82 21h76q59 0 73 -22q8 -12 8 -35q0 -18 -5 -41l-260 -1225q-11 -55 -36 -76.5t-83 -21.5h-76q-57 0 -73 21q-10 13 -9 38q0 17 4 39z" />
<glyph unicode="m" horiz-adv-x="1775" d="M143 98l160 754q12 56 38.5 77t82.5 21h70q58 0 72 -22q7 -12 8 -34q0 -18 -5 -42l-20 -102h2q19 30 59 70.5t90 72.5q106 68 232 68q24 0 42 -1t46.5 -5t49 -11.5t44 -23t38 -36t23.5 -52.5q7 -27 7 -59v-15q153 203 374 203q158 0 214 -69q35 -43 35 -120 q0 -47 -13 -106l-121 -568q-11 -55 -36 -76.5t-83 -21.5h-82q-56 0 -72 21q-9 12 -9 37q0 17 4 40l120 564q10 42 10 71q1 29 -9 45q-18 34 -91 35q-86 0 -169.5 -67.5t-110.5 -194.5l-96 -453q-11 -55 -36 -76.5t-83 -21.5h-82q-56 0 -72 21q-10 13 -10 38q0 17 4 39 l121 564q10 42 10 71q1 29 -9 45q-18 34 -91 35q-86 0 -170 -67.5t-111 -194.5l-96 -453q-11 -55 -36 -76.5t-83 -21.5h-82q-57 0 -73 21q-10 13 -9 38q0 17 4 39z" />
<glyph unicode="n" horiz-adv-x="1148" d="M143 98l160 754q12 56 38.5 77t82.5 21h70q58 0 72 -22q7 -12 8 -34q0 -18 -5 -42l-20 -102h2q16 22 34 43.5t54.5 54t75.5 55.5t96.5 40.5t118.5 17.5q158 0 214 -69q34 -43 34 -119q0 -47 -13 -107l-121 -568q-11 -55 -36 -76.5t-82 -21.5h-82q-60 0 -74 22 q-8 13 -9 36q0 17 5 40l121 564q9 39 9 67.5t-9 46.5q-18 36 -88 37q-56 0 -111.5 -27.5t-103 -89t-66.5 -145.5l-96 -453q-11 -55 -36 -76.5t-83 -21.5h-82q-57 0 -73 21q-10 13 -9 38q0 17 4 39z" />
<glyph unicode="o" d="M162 461q109 512 608 512q249 1 346 -129q62 -83 63 -218q0 -75 -20 -165q-104 -484 -602 -484q-413 0 -413 331q0 70 18 153zM417.5 321q-0.5 -20 1 -48.5t9 -45t20.5 -36t32 -30t47.5 -17.5t64.5 -7q46 0 83.5 11.5t64.5 28.5t49 47t35.5 55t26.5 67t19 68t15 71 q8 35 12 54.5t9 52.5t5.5 52.5t-1 47.5t-9 44.5t-20.5 35.5t-32 29t-47.5 17t-64.5 7t-67 -7t-54.5 -17t-44.5 -29.5t-35 -35.5t-27.5 -45t-21.5 -47t-17.5 -53t-13.5 -52.5t-12 -53.5t-11.5 -55.5t-9 -54t-6 -54.5z" />
<glyph unicode="p" horiz-adv-x="1148" d="M61 -299l242 1139q12 57 37.5 77.5t81.5 20.5h76q54 0 72 -20q10 -12 10 -36q0 -17 -5 -40q153 119 330 119q76 0 132 -22.5t87 -56t48 -83t21 -91.5q2 -20 2 -42q0 -25 -3 -53q-4 -53 -9 -80.5t-12 -59.5q-38 -169 -106 -273q-146 -223 -432 -223q-140 0 -213 103 l-80 -379q-11 -55 -36 -76.5t-83 -21.5h-82q-57 0 -73 21q-10 12 -10 36q0 17 5 41zM452 200.5q5 -15.5 35 -40.5q39 -35 101 -35q48 0 89 15.5t69.5 37.5t53 57.5t38.5 63t27 67.5t17.5 57.5t10.5 45.5q5 26 7.5 41t7.5 48.5t3.5 56t-4 54t-14 52t-28.5 40.5t-46 30t-67 10 q-101 0 -193 -68l-104 -491q-8 -26 -3 -41.5z" />
<glyph unicode="q" horiz-adv-x="1148" d="M155 300q1 52 6 89t13 78q9 42 20 79.5t32.5 89.5t48.5 95t69 87t92 74.5t120.5 49.5t152.5 19q156 0 215 -138l8 39q12 55 38 77t83 22h75q59 0 73 -23q8 -12 8 -35q0 -17 -5 -41l-246 -1161q-11 -55 -36 -76.5t-82 -21.5h-82q-60 0 -74 23q-9 12 -9 35q0 17 5 40 l84 397q-130 -121 -279 -121q-79 0 -139 19t-95.5 49.5t-58 74.5t-30.5 86q-7 38 -7 83v11zM434.5 340.5q-0.5 -18.5 0.5 -49.5t6.5 -51t16.5 -44t28.5 -38t43.5 -23.5t60 -9.5q107 0 209 111l88 405q3 20 3.5 30.5t-7 35t-27.5 47.5q-35 47 -102 47q-47 0 -88 -15 t-69 -36.5t-52 -56t-38 -61t-26.5 -65.5t-17 -56.5t-10.5 -45.5q-5 -23 -7 -33t-6.5 -41.5t-5 -50z" />
<glyph unicode="r" horiz-adv-x="761" d="M145 98l160 754q12 56 38.5 77t82.5 21h66q58 0 72 -22q7 -12 8 -34q0 -18 -5 -42l-26 -133h2q50 77 106 130t105 75t81.5 29.5t61.5 7.5q26 0 29.5 -12.5t-4.5 -43.5l-21 -96q-9 -39 -16.5 -46t-36.5 -9q-52 -3 -104.5 -20.5t-103.5 -50t-89 -87.5t-53 -125l-80 -373 q-11 -55 -36 -76.5t-83 -21.5h-76q-57 0 -73 21q-10 13 -9 38q0 17 4 39z" />
<glyph unicode="s" horiz-adv-x="864" d="M84 98q2 12 31 84.5t32 81.5q15 31 35 31q12 0 25 -16q89 -142 270 -142q73 0 122 23t63 88q5 26 -3 46t-21.5 31.5t-37.5 21t-39 13t-39 7.5q-76 16 -106 23t-71.5 27.5t-68.5 51.5q-62 67 -62 152q0 29 7 59q13 60 39 108t55.5 78t71.5 52t73.5 32t75 16t63.5 6.5 t50 0.5q112 0 195 -25q2 -1 13.5 -4.5t21 -7t23.5 -8.5t24 -10.5t19 -11.5t13.5 -13t2.5 -14q-1 -4 -13 -35.5t-26 -67t-15 -39.5q-13 -26 -33 -26q-12 0 -28 20q-41 43 -96.5 69.5t-147.5 26.5q-33 0 -58.5 -4t-49.5 -14.5t-40 -31t-22 -50.5q-5 -23 2 -41t19 -29 t38.5 -20.5t48.5 -14.5t62 -12q55 -10 82 -17t66 -28.5t71 -56.5q58 -66 58 -154q0 -31 -7 -65q-65 -312 -428 -312q-119 0 -225 35q-3 1 -8 3t-20 7.5t-28 11.5t-29 14.5t-27 16.5t-18 16.5t-5 16.5z" />
<glyph unicode="t" horiz-adv-x="827" d="M223 839.5q2 10.5 2 24.5q14 74 113 74h47l37 170q12 57 37.5 77.5t81.5 20.5h63q60 0 74 -22q8 -13 9 -36q0 -17 -5 -40l-37 -170h182q12 0 20 -0.5t23.5 -4.5t24.5 -11t14.5 -22t1.5 -36q-16 -73 -114 -73h-183l-102 -484q-12 -64 -13 -101q0 -22 5 -34q11 -34 51 -35 q18 0 35 2.5t33.5 7.5t29 9.5t27 12t21 11t19 11t13.5 8.5q16 14 27 14q13 0 16.5 -10t5.5 -43q2 -46 2 -59v-5q-9 -42 -172 -86q-113 -33 -221 -33q-109 0 -147 71q-21 39 -21 102q0 53 15 122l110 519h-41h-11.5t-14 1t-15.5 2.5t-15.5 5t-13.5 9t-9.5 13t-4.5 18z" />
<glyph unicode="u" horiz-adv-x="1148" d="M178 258l123 582q12 57 37.5 77.5t81.5 20.5h82q60 0 74 -22q8 -13 9 -36q0 -17 -5 -40l-127 -600q-11 -44 -10 -72q-1 -25 7 -38q18 -28 101 -28q104 0 175.5 72t94.5 180l103 486q12 56 36.5 77t81.5 21h82q60 0 74 -22q8 -13 9 -36q0 -17 -5 -40l-158 -742 q-11 -55 -36 -76.5t-82 -21.5h-76q-60 0 -74 22q-8 13 -9 36q0 17 5 40l12 54q-134 -175 -333 -175q-169 0 -238 62q-46 42 -46 126q0 41 11 93z" />
<glyph unicode="v" horiz-adv-x="1024" d="M240 881q4 20 14.5 32.5t26.5 17.5t26 6t27 1h49q35 0 57.5 -7t32.5 -21.5t13.5 -26.5t5.5 -33l71 -619l334 619q26 47 55.5 67.5t89.5 20.5h43q17 0 26.5 -1t23.5 -6t19 -17.5t1 -32.5q0 -6 -18 -39l-404 -756q-17 -30 -36.5 -49t-42 -26.5t-35.5 -9t-33 -1.5h-150 q-20 0 -32.5 1.5t-31.5 9t-30.5 26.5t-15.5 49l-84 756q-2 15 -2 39z" />
<glyph unicode="w" horiz-adv-x="1523" d="M236 881q8 27 26.5 40t33 15t40.5 2h41q61 0 82 -19t26 -73l41 -580q49 96 125.5 253.5t126 258t60.5 113.5q18 22 42 33t38 12.5t36 1.5q34 0 55 -7t30.5 -23t12.5 -28t5 -34l43 -615l293 594q37 77 67 95t105 18q24 0 35 -0.5t26.5 -3t21 -8.5t9.5 -17t2 -28l-385 -787 q-27 -55 -56.5 -74.5t-93.5 -19.5h-139q-37 0 -59 6t-32.5 24t-13.5 33t-6 50q-19 306 -19 447q0 58 3 89l-2 -2q-9 -30 -27 -75t-50 -114t-51 -109.5t-62.5 -129.5t-51.5 -106q-23 -46 -39 -67t-44.5 -33.5t-75.5 -12.5h-58q-26 0 -39 2t-31.5 9.5t-28 28t-11.5 54.5z" />
<glyph unicode="x" horiz-adv-x="1024" d="M59 45q2 18 29 41l408 399l-230 369q-17 22 -12 39q4 21 19.5 31.5t28 12t32.5 1.5h90q39 0 58 -7.5t38 -37.5l129 -221q213 223 228 235q17 15 33.5 22t28 8t34.5 1h88q22 0 33.5 -1.5t22.5 -12t7 -31.5q-4 -19 -30 -43l-375 -365l248 -397q16 -28 14 -43 q-5 -21 -20.5 -31.5t-28 -12t-33.5 -1.5h-90q-27 0 -39 1.5t-25.5 10.5t-23.5 29l-146 295l-231 -262q-45 -52 -64 -63t-69 -11h-88q-21 0 -33 1.5t-24 12t-7 31.5z" />
<glyph unicode="y" horiz-adv-x="1024" d="M8 -391q-1 1 -1 7q0 16 7 71q9 73 13 88q5 30 32 30q8 0 19 -8q55 -43 127 -43q39 0 72 14t58.5 42t40 49t34.5 55q18 37 47 86l-207 852q-5 23 -2 33q4 19 13.5 30.5t25 16t25.5 5.5t26 1h53q39 0 60.5 -5.5t37 -28t22.5 -45.5t21 -81q32 -141 45 -201t26 -149 q9 -62 9 -103q0 -19 -2 -34h2q17 61 94 210t143 265t73 125q19 22 42.5 33t38 12.5t37.5 1.5h45q21 0 34.5 -1.5t28 -15t9.5 -38.5q-2 -11 -20 -41l-539 -971q-12 -22 -31 -49.5t-60.5 -73t-88 -80.5t-114.5 -61.5t-140 -26.5q-44 0 -95.5 6.5t-60.5 22.5z" />
<glyph unicode="z" horiz-adv-x="974" d="M79 60.5q0 11.5 3 25.5q4 25 11.5 37.5t27.5 32.5l635 632h-76l-299 -4h-17t-16.5 0.5t-16.5 1.5t-15 3t-14 4.5t-11.5 6.5t-9.5 10t-5.5 13t-2 16.5t2.5 20.5q16 78 115 78h606h12.5t13.5 -1t14.5 -2.5t13 -4.5t12 -7t9.5 -10.5t6.5 -15t1.5 -20t-3 -25.5 q-4 -25 -11.5 -37.5t-27.5 -32.5l-632 -632h94l313 4h18t17 -0.5t17 -1.5t15.5 -3t14.5 -5t11 -7t9 -10t5.5 -13t2 -17t-2.5 -21q-16 -76 -115 -76h-643h-12.5t-13.5 1t-14.5 2.5t-13 4.5t-12 7t-9.5 10.5t-6.5 15t-1.5 20z" />
<glyph unicode="{" horiz-adv-x="1177" d="M268 512q4 17 12.5 25t15.5 9.5t26 2.5q126 6 219 76q55 41 73 80.5t43 148.5l88 422q28 119 171.5 189.5t361.5 70.5q38 0 49.5 -5.5t7.5 -31.5q-4 -17 -12 -25t-15 -9.5t-26 -2.5q-110 -6 -201 -57q-43 -27 -68.5 -60t-33 -53.5t-12.5 -50.5l-93 -430q-7 -37 -14 -61 t-28 -64t-50.5 -68t-85 -57.5t-129.5 -48.5q115 -33 161 -99t32 -139l-103 -485q-11 -46 -8 -72q7 -62 64 -105t176 -50q18 -2 23.5 -9.5t2.5 -27.5q-6 -26 -19.5 -31.5t-51.5 -5.5q-53 0 -102.5 4t-118 21t-114.5 46t-72.5 84.5t-10.5 129.5l92 430q17 81 17 96 q-2 66 -59 117.5t-181 58.5q-18 2 -24.5 10t-2.5 27z" />
<glyph unicode="|" horiz-adv-x="653" d="M174 -422l397 1868q17 90 82 90q62 0 43 -90l-397 -1868q-17 -90 -82 -90q-62 0 -43 90z" />
<glyph unicode="}" horiz-adv-x="1177" d="M57.5 -487.5q0.5 5.5 1.5 12.5q3 17 11 25t15.5 9.5t27.5 2.5q107 6 206 61q41 28 65.5 58.5t31.5 51t12 50.5l92 430q6 28 10 43.5t14.5 45t23.5 48.5t36.5 45.5t52.5 45.5t73 38t97 33q-80 23 -127.5 64.5t-60.5 84.5t-4 89l102 485q11 48 11 72q-6 65 -65.5 107 t-176.5 48q-19 2 -25 9.5t-2 27.5q3 18 12.5 26t20.5 9.5t37 1.5q28 0 54 -1t59 -4.5t62 -8.5t61 -13.5t57 -20.5t50.5 -28t41 -36.5t28.5 -46t13 -57t-6 -69.5l-92 -430q-17 -85 -15 -100q7 -81 70.5 -124t165.5 -48q19 -2 24.5 -9.5t1.5 -27.5q-3 -17 -10.5 -25t-15 -9.5 t-27.5 -2.5q-72 -4 -128.5 -27t-84.5 -47q-60 -45 -78.5 -84t-40.5 -147l-90 -422q-27 -116 -168.5 -188t-365.5 -72h-15t-13 0.5t-11 1.5t-8 2.5t-6.5 4.5t-3 6.5t-1 9z" />
<glyph unicode="~" horiz-adv-x="1138" d="M92 430l129 90q52 37 131 72q94 37 158 37q55 0 98 -18.5t92 -51.5q42 -27 63 -39.5t58.5 -24.5t75.5 -12q141 0 344 146l23 -35l-131 -90q-51 -36 -132 -72q-91 -37 -157 -37q-38 0 -75.5 11.5t-59.5 24t-56 34.5q-39 26 -61.5 39t-59 25t-75.5 12q-137 0 -344 -146z " />
<glyph unicode="&#xa0;" />
<glyph unicode="&#xa1;" horiz-adv-x="751" d="M166 -354q18 84 57 241.5t53 218.5l113 459q9 41 19.5 49.5t50.5 8.5h100q30 0 39.5 -3.5t9.5 -17.5q1 -7 -31.5 -187t-41.5 -218q-12 -64 -45.5 -256t-55.5 -295q-6 -31 -16.5 -37t-46.5 -6h-158q-36 0 -44.5 6t-2.5 37zM424 854l14 72q12 57 37.5 77.5t81.5 20.5h72 q60 0 74.5 -22.5t3.5 -75.5l-15 -72q-12 -55 -38 -76.5t-83 -21.5h-71q-59 0 -73 22t-3 76z" />
<glyph unicode="&#xa2;" horiz-adv-x="1001" d="M176 471q94 435 477 494l29 129q3 21 20.5 35t38.5 14h107q20 0 31 -13.5t8 -35.5l-27 -123q61 -6 104 -20t103 -44q26 -13 35 -21.5t6 -21.5q-1 -7 -25 -68t-30 -73q-13 -27 -33 -27q-13 0 -31 23q-43 41 -76.5 61.5t-87.5 28.5l-141 -664q122 20 236 107q25 20 36 20 q21 0 21 -26q-4 -61 -19 -144q-3 -15 -13 -22t-58 -31q-108 -50 -238 -67l-28 -138q-4 -20 -22 -34.5t-38 -14.5h-106q-20 0 -31.5 14.5t-7.5 34.5l30 142q-361 54 -270 485zM432 311.5q-3 -51.5 10 -86.5t41 -57l131 614q-36 -20 -62.5 -52.5t-45 -78.5t-28.5 -82.5 t-23 -93.5q-12 -58 -16 -85t-7 -78.5z" />
<glyph unicode="&#xa3;" horiz-adv-x="1501" d="M170 94q12 55 59 96q177 152 277 369l22 49h-176q-31 0 -47 21.5t-10 52.5l12 57q6 31 31.5 52.5t56.5 21.5h199l39 137q27 92 74.5 176.5t109.5 150.5t140.5 105t160.5 39q71 0 127 -28.5t90.5 -78t55 -115.5t20 -141.5t-15.5 -156.5q-12 -57 -62.5 -98t-107.5 -41 q-58 0 -89.5 41t-19.5 98q8 41 12.5 70t5.5 64t-5.5 56.5t-24 36.5t-45.5 15q-26 0 -48 -14t-36.5 -31.5t-29.5 -52t-22 -55.5t-20 -62l-31 -115h127q31 0 48.5 -21.5t11.5 -52.5l-12 -57q-6 -31 -33 -52.5t-58 -21.5h-145q-21 -58 -49 -119q-53 -108 -107 -188 q83 -11 232 -45q90 -23 149 -23q36 0 67 23.5t38 56.5q11 57 60.5 98.5t107.5 41.5t89.5 -41t20.5 -99q-32 -149 -161.5 -253.5t-280.5 -104.5q-94 0 -211 31q-67 16 -106.5 24t-100 16t-103 1t-67.5 -29q-49 -43 -110 -43q-57 0 -89 40.5t-20 98.5z" />
<glyph unicode="&#xa4;" horiz-adv-x="1753" d="M340 -18q-45 58 45 137l111 90q-69 139 -33 303q38 173 162 303l-72 92q-56 79 12 137q12 10 24 16t22.5 8t19.5 2t18 -3.5t15 -6t13 -8.5l10.5 -9t8.5 -8.5t6 -6.5l70 -90q157 96 324 96q169 0 282 -96l107 88l9 6l12 9t14 9t17.5 8.5t18 6.5t19 3.5t18.5 -2.5t18.5 -8 t16.5 -16q45 -58 -45 -137l-108 -90q69 -135 32 -303q-37 -169 -159 -303l69 -90q8 -9 13.5 -19.5t11.5 -30.5t-3.5 -43t-35.5 -44q-25 -21 -49 -25.5t-41.5 5.5t-27 18.5t-15.5 17.5l-72 90q-157 -98 -324 -98q-164 0 -284 96l-107 -88q-1 -1 -8.5 -6.5t-12 -8.5t-14 -9 t-17 -8.5l-18 -6t-19.5 -3.5t-18.5 2t-18.5 8t-17 16zM635 512q-31 -146 49.5 -248t226.5 -102q145 0 269 102t155 248t-50 248t-226 102q-146 0 -269.5 -102t-154.5 -248z" />
<glyph unicode="&#xa5;" horiz-adv-x="1501" d="M319 330l13 57q6 31 32.5 52.5t57.5 21.5h278l23 108l-10 21h-264q-31 0 -47.5 21.5t-10.5 52.5l12 57q6 30 32.5 52t56.5 22h120l-262 538q-13 25 -8 41q4 17 12.5 27t23 14t24 5t24.5 1h135q58 0 91 -17.5t57 -66.5l159 -331q55 -109 76 -181q23 35 54.5 73.5t56 66 t84.5 92.5l260 286q34 36 71.5 54.5t57.5 21t51 2.5h100q21 0 33 -1.5t24 -12.5t7 -33q-6 -20 -29 -43l-489 -536h121q30 0 47.5 -22t11.5 -52l-12 -57q-6 -31 -32.5 -52.5t-57.5 -21.5h-265l-20 -23l-23 -106h281q31 0 47 -21.5t10 -52.5l-12 -57q-6 -31 -31.5 -52.5 t-56.5 -21.5h-281l-34 -160q-12 -56 -38 -76t-81 -20h-99q-56 0 -72 21t-5 77l34 158h-278q-31 0 -48.5 21.5t-11.5 52.5z" />
<glyph unicode="&#xa6;" horiz-adv-x="653" d="M174 -422l160 748q8 41 30.5 71.5t53.5 30.5q30 0 39.5 -30.5t1.5 -71.5l-160 -748q-17 -90 -82 -90q-62 0 -43 90zM409 649.5q-1 22.5 3 48.5l159 748q17 90 82 90q62 0 43 -90l-159 -748q-8 -41 -30 -71.5t-52 -30.5q-21 0 -33 15.5t-13 38z" />
<glyph unicode="&#xa7;" horiz-adv-x="1159" d="M92 -49h279q-13 -62 39 -95.5t133 -33.5t146.5 33.5t78.5 95.5q5 23 -18.5 48t-50.5 41.5t-70 37.5l-187 96q-128 66 -195.5 178t-39.5 250q35 155 151 283q-48 83 -28 188q36 167 200.5 273t358.5 106q125 0 223 -45.5t147 -133.5t25 -200h-278q14 62 -37.5 95.5 t-132.5 33.5t-147.5 -33.5t-80.5 -95.5q-4 -17 7 -34.5t37.5 -36t44 -28.5t51.5 -28l186 -96q129 -66 196.5 -178t38.5 -250q-35 -155 -151 -283q49 -86 29 -188q-36 -167 -200 -273t-358 -106q-125 0 -223.5 45.5t-148 133.5t-25.5 200zM485 602q-11 -58 25 -99t104 -77 l187 -96l45 -27q34 63 45 119q12 58 -24 99t-105 77l-187 96l-45 25q-29 -53 -45 -117z" />
<glyph unicode="&#xa8;" d="M444 1243l9 35q9 48 32 68t74 20h94q54 0 67 -20t3 -68l-8 -35q-10 -46 -31.5 -67t-75.5 -21h-94q-54 0 -67 21.5t-3 66.5zM940 1243l8 35q9 48 32.5 68t74.5 20h94q54 0 67 -20t3 -68l-9 -35q-10 -47 -31 -67.5t-75 -20.5h-94q-54 0 -67 21.5t-3 66.5z" />
<glyph unicode="&#xa9;" horiz-adv-x="1421" d="M152 711q41 193 171 356.5t314 258.5t377 95t336.5 -95t203.5 -258.5t19 -356.5t-171 -357t-314 -259t-377 -95t-336.5 95t-203.5 259t-19 357zM300.5 493q24.5 -102 82 -177.5t152 -119.5t208.5 -44q152 0 296.5 75t247 203.5t134.5 280.5q27 116 2.5 218t-82 177.5 t-152 119.5t-208.5 44q-152 0 -296.5 -75t-247 -203.5t-134.5 -280.5q-27 -116 -2.5 -218zM512 711q80 389 471 389q99 0 180 -29q21 -7 25 -10.5t2 -9.5q0 -2 -0.5 -4t-1.5 -5l-2 -6l-37 -92q-7 -18 -19 -18q-7 0 -12 8q-31 31 -66.5 46t-93.5 15q-62 0 -111.5 -21 t-78.5 -49.5t-51.5 -71t-31.5 -73.5t-17 -69q-11 -49 -13.5 -88.5t6 -76.5t28.5 -62.5t59 -40.5t94 -15q66 0 106 12t94 45q17 13 25 13q13 0 8 -19q-11 -81 -12 -82q-1 -9 -5.5 -12.5t-29.5 -15.5q-58 -28 -101.5 -37.5t-109.5 -9.5q-389 0 -305 389z" />
<glyph unicode="&#xaa;" horiz-adv-x="851" d="M260 977q9 43 42.5 78t76 56.5t101 37.5t106 23.5t103 12t80 5t48.5 0.5l12 51q14 66 -7 98.5t-87 32.5q-158 0 -286 -96q-12 -8 -21 -8t-14.5 5t-5.5 11q1 5 5 52.5t5 52.5q3 11 12.5 17t40.5 15q137 45 291 45q41 0 70.5 -1.5t84.5 -13.5t87 -33.5t52 -68t7 -110.5 l-82 -383q-8 -39 -28.5 -54.5t-69.5 -15.5h-64q-50 0 -62.5 16t-4.5 54l6 29q-47 -46 -109 -73.5t-104 -34.5t-80 -7q-109 0 -165 63.5t-40 143.5zM291 637q6 30 41 51t78 21h335q42 0 67 -20.5t19 -51.5q-6 -29 -40.5 -50.5t-75.5 -21.5h-336q-43 0 -68.5 21.5t-19.5 50.5z M485 979q-9 -41 18 -73t79 -32q8 0 20.5 1t43 8t55 20t48 40.5t31.5 64.5l27 125q-27 -1 -51.5 -3t-74.5 -11.5t-86 -24.5t-69 -45t-41 -70z" />
<glyph unicode="&#xab;" d="M264 506q-4 11 2 20l332 486q6 12 23 12h94q13 0 21 -11.5t3 -25.5l-198 -481l-6 -479q0 -10 -9 -18.5t-18 -8.5h-94q-20 0 -27 20zM737 506q-4 11 2 20l332 486q6 12 23 12h94q13 0 21 -11.5t3 -25.5l-198 -481l-6 -479q0 -10 -9 -18.5t-18 -8.5h-94q-20 0 -27 20z" />
<glyph unicode="&#xac;" horiz-adv-x="1753" d="M285 748q6 35 37 60.5t67 25.5h1329q35 0 54.5 -25t13.5 -61l-100 -472q-7 -35 -38.5 -60.5t-66.5 -25.5t-55 25.5t-13 60.5l82 386h-1243q-35 0 -55 25.5t-12 60.5z" />
<glyph unicode="&#xad;" horiz-adv-x="751" d="M122.5 447q-2.5 10 2.5 22q14 74 113 74h403q12 0 20 -0.5t23.5 -4.5t24.5 -11t14.5 -22t1.5 -36q-16 -74 -115 -74h-403h-10t-12.5 0.5t-13.5 2t-13.5 4t-13 6t-11 9t-7.5 13t-3.5 17.5z" />
<glyph unicode="&#xae;" horiz-adv-x="1421" d="M152 711q41 193 171 356.5t314 258.5t377 95t336.5 -95t203.5 -258.5t19 -356.5t-171 -357t-314 -259t-377 -95t-336.5 95t-203.5 259t-19 357zM300.5 493q24.5 -102 82 -177.5t152 -119.5t208.5 -44q152 0 296.5 75t247 203.5t134.5 280.5q27 116 2.5 218t-82 177.5 t-152 119.5t-208.5 44q-152 0 -296.5 -75t-247 -203.5t-134.5 -280.5q-27 -116 -2.5 -218zM528 395l134 631q7 29 21 40t42 11h254q26 0 47.5 -1.5t65.5 -12.5t71 -30.5t43.5 -62t3.5 -100.5q-30 -148 -206 -188l114 -305q-3 -15 -10.5 -23t-14.5 -9t-20 -1h-61q-21 0 -30 4 t-17 23l-107 303h-117l-59 -279q-6 -28 -19 -39.5t-42 -11.5h-52q-29 0 -38 11t-3 40zM758 750h137q88 0 122.5 31t45.5 87q12 59 -11.5 89t-107.5 30h-137z" />
<glyph unicode="&#xaf;" d="M417 1181.5q-6 7.5 3 47.5l12 63q9 40 18.5 48t49.5 8h702q40 0 46 -8t-3 -48l-12 -63q-9 -40 -18.5 -47.5t-49.5 -7.5h-702q-40 0 -46 7.5z" />
<glyph unicode="&#xb0;" horiz-adv-x="845" d="M344 1110q28 129 140 220t241 91q130 0 202 -91t44 -220q-28 -131 -138.5 -222t-240.5 -91q-129 0 -202.5 91.5t-45.5 221.5zM516 1110q-12 -58 21 -99.5t92 -41.5t108.5 41.5t61.5 99.5t-20 98.5t-91 40.5t-109.5 -40.5t-62.5 -98.5z" />
<glyph unicode="&#xb1;" horiz-adv-x="1753" d="M143 86q18 86 127 86h557l97 453h-557q-11 0 -19.5 0.5t-26 5t-28 13t-16.5 26t-1 41.5q18 86 127 86h558l108 516q3 13 7.5 26.5t16.5 34.5t34.5 34t52.5 13q83 0 61 -108l-108 -516h555q11 0 19.5 -0.5t25.5 -5t27.5 -13t16.5 -26t1 -41.5q-18 -86 -127 -86h-555 l-97 -453h555q11 0 19.5 -0.5t26 -5t28 -13t16.5 -26t1 -41.5q-18 -86 -127 -86h-1285q-11 0 -19.5 0.5t-25.5 5t-27.5 13t-16.5 26t-1 41.5z" />
<glyph unicode="&#xb2;" horiz-adv-x="796" d="M219 647l2 8q3 16 6.5 21.5t16.5 15.5l334 250q174 131 196 240q14 64 -17.5 112.5t-111.5 48.5q-127 0 -203 -135q-10 -24 -24 -24q-15 0 -21 16l-57 78q19 37 51.5 69.5t52 45.5t33.5 20q90 53 215 53q158 0 236.5 -82t52.5 -200q-8 -39 -27.5 -72.5t-55 -65.5 t-59.5 -50t-73 -52q-13 -10 -58 -37.5t-55 -34.5l-229 -153h240l100 2q78 0 86 -6q30 -10 20 -53l-4 -15q-6 -33 -24.5 -46t-59.5 -13h-506q-40 0 -52 12.5t-5 46.5z" />
<glyph unicode="&#xb3;" horiz-adv-x="808" d="M211 676l37 84q0 4 5.5 9t14.5 5q7 0 19 -12q90 -86 237 -86q38 0 68 9.5t48 24t31 38t19 44t12 48.5q9 48 9 84.5t-30 58t-93 21.5h-66q-29 0 -32.5 4.5t2.5 27.5l4 23q5 27 16 31q2 1 10.5 2t21.5 2t19 2q28 1 43 3t37.5 11t42.5 25q57 47 74 122q10 51 -6.5 76 t-81.5 25q-123 0 -217 -90q-16 -13 -25 -13q-10 1 -18 15l-31 49q-1 1 -2 3t-3 6.5t-1 8.5t15 17.5t43 32.5t66 36.5t91.5 30t111.5 12.5q22 0 41 -1t47 -4.5t49 -9.5t46.5 -16.5t40.5 -26t29.5 -37.5t14.5 -50.5t-5 -65.5q-26 -132 -203 -204q193 -44 158 -213 q-28 -130 -129.5 -203.5t-284.5 -73.5q-54 0 -104.5 10.5t-84.5 25.5t-59 31.5t-36.5 29.5t-10.5 18z" />
<glyph unicode="&#xb4;" d="M643 1110.5q-2 5.5 0 15.5q2 8 25 31l227 240q17 17 27 20.5t41 3.5h167q17 0 23.5 -0.5t15.5 -2.5t11 -7.5t0 -15.5q-4 -11 -29 -31l-383 -264h-76q-17 0 -23 0.5t-15 2.5t-11 7.5z" />
<glyph unicode="&#xb5;" horiz-adv-x="1148" d="M59 -295l242 1131q12 61 37.5 81.5t85.5 20.5h74q61 0 77.5 -21.5t4.5 -80.5l-125 -590q-23 -85 -6 -114.5t102 -29.5q101 0 173 69.5t97 188.5l103 476q12 61 37.5 81.5t85.5 20.5h73q61 0 77.5 -21.5t4.5 -80.5l-155 -734q-13 -61 -39.5 -81.5t-85.5 -20.5h-68h-17 t-16.5 1t-16.5 3.5t-14.5 6.5t-12.5 11t-7.5 16t-3 22.5t3.5 29.5q-49 -40 -98 -65t-94 -34.5t-68.5 -11.5t-56.5 -2q-15 0 -56 3l-59 -275q-12 -61 -37.5 -81.5t-85.5 -20.5h-74q-61 0 -77.5 21.5t-4.5 80.5z" />
<glyph unicode="&#xb6;" horiz-adv-x="1439" d="M330 936q30 138 136 250.5t253.5 173.5t302.5 61h561h13.5t14.5 -1t15 -2.5t14 -4.5t11.5 -7.5t8 -11t3.5 -15.5t-2 -21q-12 -62 -105 -62h-104l-342 -1603q-17 -90 -82 -90q-62 0 -43 90l342 1603h-164l-342 -1603q-17 -90 -82 -90q-62 0 -43 90l162 758 q-280 17 -425 149t-103 336z" />
<glyph unicode="&#xb7;" horiz-adv-x="1753" d="M874 585.5q-6 7.5 3 47.5l32 158q9 40 18.5 47.5t49.5 7.5h158q40 0 46 -7.5t-3 -47.5l-33 -158q-9 -40 -18.5 -47.5t-49.5 -7.5h-157q-40 0 -46 7.5z" />
<glyph unicode="&#xb8;" horiz-adv-x="1001" d="M223 -367q1 5 50.5 64t111 131t68.5 80q28 31 39 37t43 6h36q21 0 29.5 -1t14.5 -7t3 -19q-2 -6 -16 -33l-158 -247q-19 -28 -28 -32.5t-43 -4.5h-103h-3q-20 0 -28 1t-13.5 7t-2.5 18z" />
<glyph unicode="&#xb9;" horiz-adv-x="808" d="M268 631q10 45 82 45h115l135 635q-77 -17 -143 -17q-11 0 -19 1t-21 4.5t-18 13t-2 24.5q10 45 72 45q43 1 81 7t60 11.5t48 18t31.5 16t23.5 15.5q18 11 27 13.5t30 2.5q30 0 44 -9.5t12.5 -22.5t-3.5 -25l-155 -733h102q10 0 18 -1t21.5 -4.5t19 -13.5t2.5 -26 q-8 -43 -79 -43h-420q-12 0 -20.5 1t-21.5 4.5t-19 13t-3 24.5z" />
<glyph unicode="&#xba;" horiz-adv-x="944" d="M289 1108q76 358 495 358q416 0 342 -358q-71 -338 -491 -338q-206 0 -294 83t-52 255zM291 637q6 30 41 51t78 21h428q43 0 67.5 -20.5t18.5 -51.5q-6 -29 -40.5 -50.5t-76.5 -21.5h-428q-43 0 -68.5 21.5t-19.5 50.5zM509.5 1028q-2.5 -29 0.5 -46.5t12.5 -38.5 t26.5 -32.5t45.5 -19.5t67.5 -8q38 0 69.5 8.5t53 19t39.5 33.5t28 38.5t20 47t13.5 46.5t11.5 50q7 33 10 49t6 46t-0.5 46t-12.5 37.5t-26 32.5t-45 19t-67 8q-38 0 -69.5 -8t-53.5 -19.5t-40 -32t-28.5 -37.5t-20 -45.5t-14 -46.5t-10.5 -49q-7 -32 -10.5 -50.5t-6 -47.5 z" />
<glyph unicode="&#xbb;" d="M133 37l197 481l8 479q0 11 8 19t19 8h94q21 0 24 -20l125 -486q3 -9 -4 -20l-330 -486q-9 -12 -22 -12h-94q-15 0 -23 12t-2 25zM606 37l197 481l8 479q0 11 8.5 19t18.5 8h94q21 0 24 -20l125 -486q3 -9 -4 -20l-329 -486q-9 -12 -23 -12h-94q-15 0 -23 12t-2 25z" />
<glyph unicode="&#xbc;" horiz-adv-x="1802" d="M268 631q10 45 82 45h115l135 635q-77 -17 -143 -17q-11 0 -19 1t-21 4.5t-18 13t-2 24.5q10 45 72 45q43 1 81 7t60 11.5t48 18t31.5 16t23.5 15.5q18 11 27 13.5t30 2.5q30 0 44 -9.5t12.5 -22.5t-3.5 -25l-155 -733h102q10 0 18 -1t21.5 -4.5t19 -13.5t2.5 -26 q-8 -43 -79 -43h-420q-12 0 -20.5 1t-21.5 4.5t-19 13t-3 24.5zM463.5 1q-14.5 46 23.5 87l1186 1342q36 36 80 36q52 0 66.5 -45t-23.5 -88l-1186 -1339q-31 -39 -80 -39q-52 0 -66.5 46zM1024 248l6 31q5 25 21 43l436 503q16 18 30.5 22.5t41.5 4.5h108q40 0 52.5 -12.5 t4.5 -44.5l-104 -492h61q41 0 54.5 -12t7.5 -45q-9 -35 -27.5 -46.5t-56.5 -11.5h-62l-28 -129q-6 -33 -23.5 -46t-58.5 -13h-43q-42 0 -53 13.5t-5 45.5l29 129h-332q-44 0 -55.5 13.5t-3.5 46.5zM1188 303h258l90 420q-34 -57 -348 -420z" />
<glyph unicode="&#xbd;" horiz-adv-x="2002" d="M268 631q10 45 82 45h115l135 635q-77 -17 -143 -17q-11 0 -19 1t-21 4.5t-18 13t-2 24.5q10 45 72 45q43 1 81 7t60 11.5t48 18t31.5 16t23.5 15.5q18 11 27 13.5t30 2.5q30 0 44 -9.5t12.5 -22.5t-3.5 -25l-155 -733h102q10 0 18 -1t21.5 -4.5t19 -13.5t2.5 -26 q-8 -43 -79 -43h-420q-12 0 -20.5 1t-21.5 4.5t-19 13t-3 24.5zM474.5 1q-14.5 46 23.5 87l1185 1342q36 36 80 36q52 0 66.5 -45t-23.5 -88l-1185 -1339q-31 -39 -80 -39q-52 0 -66.5 46zM1255 59l2 11q3 14 6.5 19t16.5 15l334 250q174 131 196 240q8 28 3 57.5t-17.5 53 t-42 38.5t-70.5 15q-127 0 -204 -137q-10 -23 -25 -23q-12 0 -20 14l-58 78q19 37 51.5 69.5t52 45.5t33.5 20q91 56 218 56q156 0 234 -83t52 -200q-5 -23 -15 -45.5t-20 -39t-29.5 -37t-31.5 -32t-38.5 -31.5t-37.5 -28t-41 -29q-81 -48 -114 -71l-228 -154h238l100 2 q78 0 86 -6q30 -10 21 -53l-4 -15q-6 -33 -24 -46t-60 -13h-506q-40 0 -52.5 12.5t-5.5 46.5z" />
<glyph unicode="&#xbe;" horiz-adv-x="1802" d="M279 676l36 84q7 14 21 14q6 0 18 -12q93 -86 238 -86q38 0 68 9.5t48 24t31 38t19 44t12 48.5q9 48 9 84.5t-30 58t-94 21.5h-65q-28 0 -32.5 4.5t1.5 27.5l4 23q5 26 17 31q2 1 10.5 2t21.5 2t19 2q28 1 43 3t38 11t44 25q54 46 71 122q10 51 -6.5 76t-81.5 25 q-123 0 -217 -90q-13 -13 -24 -13q-11 1 -19 15l-30 49q-1 1 -2.5 3t-3.5 6.5t-1 8.5t15 17.5t43.5 32.5t66.5 36.5t91.5 30t111.5 12.5q19 0 36 -1t41 -3t43 -6.5t42.5 -12.5t39.5 -19t32.5 -26.5t22.5 -36t10.5 -47t-5.5 -59.5q-26 -132 -203 -204q193 -44 158 -213 q-28 -130 -129.5 -203.5t-284.5 -73.5q-54 0 -104.5 10.5t-84 25.5t-59 31.5t-36.5 29.5t-10 18zM463.5 1q-14.5 46 23.5 87l1186 1342q36 36 80 36q52 0 66.5 -45t-23.5 -88l-1186 -1339q-31 -39 -80 -39q-52 0 -66.5 46zM1024 248l6 31q5 25 21 43l436 503 q16 18 30.5 22.5t41.5 4.5h108q40 0 52.5 -12.5t4.5 -44.5l-104 -492h61q41 0 54.5 -12t7.5 -45q-9 -35 -27.5 -46.5t-56.5 -11.5h-62l-28 -129q-6 -33 -23.5 -46t-58.5 -13h-43q-42 0 -53 13.5t-5 45.5l29 129h-332q-44 0 -55.5 13.5t-3.5 46.5zM1188 303h258l90 420 q-34 -57 -348 -420z" />
<glyph unicode="&#xbf;" horiz-adv-x="1062" d="M92 -199.5q0 40.5 10 88.5q32 156 140 234q205 147 258 385l12 59q7 39 17.5 47.5t52.5 8.5h100q28 0 38 -3t13 -14q0 -13 -14 -71q-12 -58 -25 -100t-41.5 -103t-79.5 -134t-127 -163q-30 -35 -42 -61t-25 -93q-23 -89 -11.5 -121t78.5 -32q188 0 363 141q13 8 22 8 q12 0 16 -6t8 -24q1 -3 1 -5q4 -21 11.5 -73t6.5 -60q-3 -14 -13 -20.5t-58 -26.5q-203 -82 -397 -82q-26 0 -46 0.5t-50 4t-53 9.5t-50 17t-46 26.5t-36 39.5t-25 53.5t-8 70zM547 854l14 72q12 57 37.5 77.5t81.5 20.5h72q60 0 74 -22.5t3 -75.5l-14 -72 q-12 -55 -38 -76.5t-83 -21.5h-71q-59 0 -73 22t-3 76z" />
<glyph unicode="&#xc0;" horiz-adv-x="1501" d="M98 55q3 13 19 41l694 1237q18 31 38.5 50.5t42.5 27t35.5 9t35.5 1.5h180q22 0 34.5 -1.5t31 -9t29.5 -27t15 -50.5l170 -1237q4 -29 2 -41q-5 -25 -24 -38.5t-32.5 -15t-35.5 -1.5h-110q-36 0 -57.5 6.5t-33 24t-15 33.5t-7.5 49l-29 196h-567l-127 -227 q-17 -29 -36.5 -47t-42 -25t-35.5 -8.5t-33 -1.5h-74q-16 0 -25.5 1t-23 5.5t-18.5 17t-1 31.5zM612 485h445l-72 576q-6 48 -4 100h-2q-35 -79 -127 -241zM707.5 1783.5q-0.5 10.5 11 19.5t29.5 9h329l213 -223q15 -19 3 -30t-36 -11h-137l-401 217q-11 8 -11.5 18.5z" />
<glyph unicode="&#xc1;" horiz-adv-x="1501" d="M98 55q3 13 19 41l694 1237q18 31 38.5 50.5t42.5 27t35.5 9t35.5 1.5h180q22 0 34.5 -1.5t31 -9t29.5 -27t15 -50.5l170 -1237q4 -29 2 -41q-5 -25 -24 -38.5t-32.5 -15t-35.5 -1.5h-110q-36 0 -57.5 6.5t-33 24t-15 33.5t-7.5 49l-29 196h-567l-127 -227 q-17 -29 -36.5 -47t-42 -25t-35.5 -8.5t-33 -1.5h-74q-16 0 -25.5 1t-23 5.5t-18.5 17t-1 31.5zM612 485h445l-72 576q-6 48 -4 100h-2q-35 -79 -127 -241zM873 1559q-7 11 16 30l307 223h330q18 0 26 -9t3 -20t-21 -18l-492 -217h-137q-25 0 -32 11z" />
<glyph unicode="&#xc2;" horiz-adv-x="1501" d="M98 55q3 13 19 41l694 1237q18 31 38.5 50.5t42.5 27t35.5 9t35.5 1.5h180q22 0 34.5 -1.5t31 -9t29.5 -27t15 -50.5l170 -1237q4 -29 2 -41q-5 -25 -24 -38.5t-32.5 -15t-35.5 -1.5h-110q-36 0 -57.5 6.5t-33 24t-15 33.5t-7.5 49l-29 196h-567l-127 -227 q-17 -29 -36.5 -47t-42 -25t-35.5 -8.5t-33 -1.5h-74q-16 0 -25.5 1t-23 5.5t-18.5 17t-1 31.5zM612 485h445l-72 576q-6 48 -4 100h-2q-35 -79 -127 -241zM718 1543q-2 15 13 26l270 213q6 6 17 6h227q11 0 17 -6l176 -209q10 -10 -1 -27.5t-28 -17.5h-96l-8 2l-195 166 l-264 -166l-12 -2h-97q-17 0 -19 15z" />
<glyph unicode="&#xc3;" horiz-adv-x="1501" d="M98 55q3 13 19 41l694 1237q18 31 38.5 50.5t42.5 27t35.5 9t35.5 1.5h180q22 0 34.5 -1.5t31 -9t29.5 -27t15 -50.5l170 -1237q4 -29 2 -41q-5 -25 -24 -38.5t-32.5 -15t-35.5 -1.5h-110q-36 0 -57.5 6.5t-33 24t-15 33.5t-7.5 49l-29 196h-567l-127 -227 q-17 -29 -36.5 -47t-42 -25t-35.5 -8.5t-33 -1.5h-74q-16 0 -25.5 1t-23 5.5t-18.5 17t-1 31.5zM612 485h445l-72 576q-6 48 -4 100h-2q-35 -79 -127 -241zM709.5 1543q1.5 7 1.5 20q17 84 95 158.5t179 74.5q42 0 81 -14t58 -27t45 -35q53 -45 88 -45q14 0 29 5t36 27 t32 58q7 22 17.5 26.5t43.5 4.5h37h16t12.5 -0.5t10 -2t6.5 -4t4.5 -6.5t0.5 -9t-1 -13q-19 -85 -97 -159t-179 -74q-42 0 -81.5 14.5t-57 26.5t-46.5 35q-49 45 -86 45q-14 0 -28.5 -5t-35.5 -26.5t-32 -58.5q-9 -22 -19.5 -26.5t-43.5 -4.5h-37q-18 0 -25 0.5t-16 4 t-7.5 10.5z" />
<glyph unicode="&#xc4;" horiz-adv-x="1501" d="M98 55q3 13 19 41l694 1237q18 31 38.5 50.5t42.5 27t35.5 9t35.5 1.5h180q22 0 34.5 -1.5t31 -9t29.5 -27t15 -50.5l170 -1237q4 -29 2 -41q-5 -25 -24 -38.5t-32.5 -15t-35.5 -1.5h-110q-36 0 -57.5 6.5t-33 24t-15 33.5t-7.5 49l-29 196h-567l-127 -227 q-17 -29 -36.5 -47t-42 -25t-35.5 -8.5t-33 -1.5h-74q-16 0 -25.5 1t-23 5.5t-18.5 17t-1 31.5zM612 485h445l-72 576q-6 48 -4 100h-2q-35 -79 -127 -241zM662.5 1569.5q-0.5 19.5 5.5 46.5l6 35q11 49 33 68.5t73 19.5h94q54 0 67 -20t3 -68l-6 -35q-10 -46 -32 -67 t-77 -21h-94q-37 0 -54.5 11t-18 30.5zM1253 1616l7 35q11 49 33 68.5t73 19.5h94q54 0 67 -20t3 -68l-6 -35q-10 -46 -32 -67t-77 -21h-94q-54 0 -66 21.5t-2 66.5z" />
<glyph unicode="&#xc5;" horiz-adv-x="1501" d="M98 55q3 13 19 41l694 1237q18 31 38.5 50.5t42.5 27t35.5 9t35.5 1.5h180q22 0 34.5 -1.5t31 -9t29.5 -27t15 -50.5l170 -1237q4 -29 2 -41q-5 -25 -24 -38.5t-32.5 -15t-35.5 -1.5h-110q-36 0 -57.5 6.5t-33 24t-15 33.5t-7.5 49l-29 196h-567l-127 -227 q-17 -29 -36.5 -47t-42 -25t-35.5 -8.5t-33 -1.5h-74q-16 0 -25.5 1t-23 5.5t-18.5 17t-1 31.5zM612 485h445l-72 576q-6 48 -4 100h-2q-35 -79 -127 -241zM836 1585q35 160 286 160q28 0 49 -1t61 -9.5t63.5 -24.5t38.5 -49.5t5 -79.5q-35 -160 -286 -160q-28 0 -49 1 t-61 9.5t-63.5 24.5t-38.5 49.5t-5 79.5zM975 1583q-8 -43 16.5 -56.5t81.5 -13.5q61 0 90 13t37 57q10 43 -15 56.5t-83 13.5q-60 0 -88.5 -13t-38.5 -57z" />
<glyph unicode="&#xc6;" horiz-adv-x="1939" d="M102 53q3 13 17 37l780 1245q31 51 65 68.5t89 17.5h964q59 0 73 -22t3 -76l-2 -16q-7 -29 -17.5 -48t-21 -29t-28.5 -15t-30.5 -6t-35.5 -1l-406 6h-51l-82 -383h408q55 0 72.5 -20t5.5 -76q-11 -58 -39 -77t-80 -19h-408l-88 -420h105q65 0 194 3t193 3q17 0 25 -0.5 t21.5 -2t19.5 -5t14 -10.5t10 -17.5t2 -26t-4 -36.5l-6 -29q-11 -55 -36 -76.5t-83 -21.5h-703q-56 0 -72 21t-5 77l63 295h-436l-193 -305q-33 -56 -67.5 -72t-87.5 -16h-76q-15 0 -24 1t-22.5 5.5t-18.5 16t-1 30.5zM700 569h365l137 648h-96z" />
<glyph unicode="&#xc7;" horiz-adv-x="1439" d="M276 711q77 367 303.5 561t610.5 194q198 0 350 -59q39 -13 46.5 -19t4.5 -20q-7 -21 -10 -27l-68 -178q-14 -37 -36 -37q-12 0 -27 15q-60 61 -127.5 91t-177.5 30q-87 0 -162 -21t-128 -54t-97.5 -82t-72 -95.5t-50.5 -105.5t-34.5 -101t-22.5 -92q-20 -94 -25 -171 t11 -150t56 -122t115.5 -78.5t184.5 -29.5q128 0 205 24.5t180 89.5q33 23 45 23q23 0 18 -37q-1 -7 -6 -46t-9 -71t-7 -43q-3 -15 -12.5 -22.5t-55.5 -30.5q-113 -54 -197 -73t-211 -19q-756 0 -594 756zM479 -412q3 8 97.5 118.5t134.5 156.5q27 31 37.5 37t42.5 6h36 q21 0 29.5 -1t14.5 -7t3 -19q0 -6 -16 -33l-158 -247q-17 -28 -26 -32.5t-43 -4.5h-103q-22 0 -29.5 0.5t-14.5 6.5t-5 19z" />
<glyph unicode="&#xc8;" horiz-adv-x="1314" d="M207 98l260 1219q12 57 37.5 77.5t81.5 20.5h805q59 0 73 -22t4 -76l-4 -17q-6 -29 -16 -48t-20 -29t-29.5 -15t-32.5 -5.5t-41 -0.5l-481 6h-101l-79 -379h538q55 0 72.5 -20t5.5 -76q-11 -58 -39 -77t-80 -19h-538l-88 -420l299 4l317 4q19 0 28 -0.5t23.5 -2t21 -5 t14 -10.5t9.5 -17.5t2 -26t-4 -36.5l-6 -29q-11 -55 -36 -76.5t-83 -21.5h-835q-56 0 -72.5 21t-5.5 77zM613 1783.5q-1 10.5 10.5 19.5t29.5 9h330l213 -223q15 -19 3 -30t-36 -11h-137l-401 217q-11 8 -12 18.5z" />
<glyph unicode="&#xc9;" horiz-adv-x="1314" d="M207 98l260 1219q12 57 37.5 77.5t81.5 20.5h805q59 0 73 -22t4 -76l-4 -17q-6 -29 -16 -48t-20 -29t-29.5 -15t-32.5 -5.5t-41 -0.5l-481 6h-101l-79 -379h538q55 0 72.5 -20t5.5 -76q-11 -58 -39 -77t-80 -19h-538l-88 -420l299 4l317 4q19 0 28 -0.5t23.5 -2t21 -5 t14 -10.5t9.5 -17.5t2 -26t-4 -36.5l-6 -29q-11 -55 -36 -76.5t-83 -21.5h-835q-56 0 -72.5 21t-5.5 77zM779 1559q-7 11 16 30l307 223h330q18 0 26 -9t3 -20t-21 -18l-492 -217h-137q-25 0 -32 11z" />
<glyph unicode="&#xca;" horiz-adv-x="1314" d="M207 98l260 1219q12 57 37.5 77.5t81.5 20.5h805q59 0 73 -22t4 -76l-4 -17q-6 -29 -16 -48t-20 -29t-29.5 -15t-32.5 -5.5t-41 -0.5l-481 6h-101l-79 -379h538q55 0 72.5 -20t5.5 -76q-11 -58 -39 -77t-80 -19h-538l-88 -420l299 4l317 4q19 0 28 -0.5t23.5 -2t21 -5 t14 -10.5t9.5 -17.5t2 -26t-4 -36.5l-6 -29q-11 -55 -36 -76.5t-83 -21.5h-835q-56 0 -72.5 21t-5.5 77zM624 1543q-2 15 13 26l270 213q6 6 17 6h227q10 0 16 -6l176 -209q11 -11 0 -28t-28 -17h-96l-9 2l-194 166l-264 -166l-13 -2h-96q-17 0 -19 15z" />
<glyph unicode="&#xcb;" horiz-adv-x="1314" d="M207 98l260 1219q12 57 37.5 77.5t81.5 20.5h805q59 0 73 -22t4 -76l-4 -17q-6 -29 -16 -48t-20 -29t-29.5 -15t-32.5 -5.5t-41 -0.5l-481 6h-101l-79 -379h538q55 0 72.5 -20t5.5 -76q-11 -58 -39 -77t-80 -19h-538l-88 -420l299 4l317 4q19 0 28 -0.5t23.5 -2t21 -5 t14 -10.5t9.5 -17.5t2 -26t-4 -36.5l-6 -29q-11 -55 -36 -76.5t-83 -21.5h-835q-56 0 -72.5 21t-5.5 77zM573 1616l7 35q11 49 33 68.5t73 19.5h94q54 0 67 -20t3 -68l-6 -35q-10 -46 -32 -67t-77 -21h-94q-54 0 -66 21.5t-2 66.5zM1159 1616l6 35q11 49 33.5 68.5 t73.5 19.5h94q54 0 67 -20t3 -68l-6 -35q-10 -46 -32 -67t-77 -21h-94q-54 0 -66 21.5t-2 66.5z" />
<glyph unicode="&#xcc;" horiz-adv-x="677" d="M209 98l260 1225q12 56 38.5 77t82.5 21h104q59 0 73 -22t3 -76l-260 -1225q-11 -55 -36 -76.5t-83 -21.5h-104q-56 0 -72.5 21t-5.5 77zM232 1783.5q-1 10.5 10.5 19.5t29.5 9h330l213 -223q15 -19 3 -30t-36 -11h-137l-401 217q-11 8 -12 18.5z" />
<glyph unicode="&#xcd;" horiz-adv-x="677" d="M209 98l260 1225q12 56 38.5 77t82.5 21h104q59 0 73 -22t3 -76l-260 -1225q-11 -55 -36 -76.5t-83 -21.5h-104q-56 0 -72.5 21t-5.5 77zM523 1559q-7 11 16 30l307 223h330q18 0 26 -9t3 -20t-21 -18l-492 -217h-137q-25 0 -32 11z" />
<glyph unicode="&#xce;" horiz-adv-x="677" d="M209 98l260 1225q12 56 38.5 77t82.5 21h104q59 0 73 -22t3 -76l-260 -1225q-11 -55 -36 -76.5t-83 -21.5h-104q-56 0 -72.5 21t-5.5 77zM304.5 1543q-2.5 15 12.5 26l271 213q6 6 16 6h227q11 0 17 -6l176 -209q10 -10 -1 -27.5t-28 -17.5h-96l-8 2l-195 166l-264 -166 l-12 -2h-96q-17 0 -19.5 15z" />
<glyph unicode="&#xcf;" horiz-adv-x="677" d="M209 98l260 1225q12 56 38.5 77t82.5 21h104q59 0 73 -22t3 -76l-260 -1225q-11 -55 -36 -76.5t-83 -21.5h-104q-56 0 -72.5 21t-5.5 77zM254 1616l6 35q11 49 33.5 68.5t73.5 19.5h94q54 0 66.5 -20t2.5 -68l-6 -35q-10 -46 -32 -67t-76 -21h-94q-54 0 -66 21.5t-2 66.5 zM834.5 1569.5q-0.5 19.5 5.5 46.5l6 35q11 49 33 68.5t73 19.5h95q54 0 66.5 -20t2.5 -68l-6 -35q-10 -46 -32 -67t-77 -21h-94q-37 0 -54.5 11t-18 30.5z" />
<glyph unicode="&#xd0;" horiz-adv-x="1626" d="M193 682l12 57q6 31 31.5 52.5t56.5 21.5h65l109 510q12 56 38.5 77t82.5 21h540q61 0 118.5 -7.5t129.5 -28t135 -66.5t103 -113q102 -176 35 -506q-27 -124 -70.5 -227t-113 -192t-159 -150.5t-212 -96t-269.5 -34.5h-540q-56 0 -72.5 21t-5.5 77l108 510h-65 q-31 0 -47 21.5t-10 52.5zM518 176h264q91 0 166.5 17.5t129 45t97 71.5t71 86t50 100t34 101.5t24.5 102.5q10 46 15.5 79.5t10.5 81.5t3.5 82.5t-9 77.5t-24.5 73t-45.5 60.5t-69 49t-98 30t-129.5 11.5h-263l-92 -432h119q31 0 48 -21.5t11 -52.5l-12 -57 q-6 -31 -32.5 -52.5t-57.5 -21.5h-119z" />
<glyph unicode="&#xd1;" horiz-adv-x="1626" d="M207 98l260 1225q12 56 38.5 77t82.5 21h190q22 0 35 -1.5t33.5 -8.5t35 -25t23.5 -47l332 -1091h2l227 1075q12 55 38 76.5t83 21.5h55q59 0 73 -22t3 -76l-260 -1225q-11 -55 -36 -76.5t-83 -21.5h-190q-22 0 -35 1.5t-33.5 8.5t-35 25t-23.5 47l-332 1092h-2 l-229 -1076q-11 -55 -36 -76.5t-83 -21.5h-55q-56 0 -72.5 21t-5.5 77zM770.5 1543q1.5 7 1.5 20q17 84 95.5 158.5t179.5 74.5q42 0 81 -14t58 -27t45 -35q53 -45 88 -45q14 0 28.5 5t35.5 26.5t32 58.5q7 22 18 26.5t44 4.5h36q24 0 33.5 -1.5t14.5 -9t2 -24.5 q-19 -84 -97.5 -158.5t-179.5 -74.5q-42 0 -81.5 14.5t-56 26t-46.5 35.5q-49 45 -86 45q-14 0 -28.5 -5t-35.5 -26.5t-32 -58.5q-8 -22 -19 -26.5t-45 -4.5h-37q-18 0 -25 0.5t-16 4t-7.5 10.5z" />
<glyph unicode="&#xd2;" horiz-adv-x="1626" d="M274 700q163 766 850 766q685 0 525 -766q-23 -109 -57.5 -201.5t-84.5 -178t-118 -151t-153 -114.5t-195.5 -74.5t-239.5 -25.5q-687 0 -527 745zM545 409q16 -290 293 -290q62 0 117.5 16t98 40t80.5 63.5t64.5 75.5t51 89t39 89.5t29.5 90.5t21 80t15 70 q41 195 34 301q-17 273 -298 273q-79 0 -146.5 -22.5t-115 -59t-86.5 -87t-64 -102t-44.5 -109.5t-31 -103.5t-20.5 -88.5v-2q-44 -208 -37 -324zM768.5 1783.5q-0.5 10.5 11 19.5t29.5 9h330l213 -223q15 -19 3 -30t-36 -11h-137l-402 217q-11 8 -11.5 18.5z" />
<glyph unicode="&#xd3;" horiz-adv-x="1626" d="M274 700q163 766 850 766q685 0 525 -766q-23 -109 -57.5 -201.5t-84.5 -178t-118 -151t-153 -114.5t-195.5 -74.5t-239.5 -25.5q-687 0 -527 745zM545 409q16 -290 293 -290q62 0 117.5 16t98 40t80.5 63.5t64.5 75.5t51 89t39 89.5t29.5 90.5t21 80t15 70 q41 195 34 301q-17 273 -298 273q-79 0 -146.5 -22.5t-115 -59t-86.5 -87t-64 -102t-44.5 -109.5t-31 -103.5t-20.5 -88.5v-2q-44 -208 -37 -324zM934.5 1559q-7.5 11 15.5 30l307 223h330q18 0 26 -9t3 -20t-21 -18l-491 -217h-137q-25 0 -32.5 11z" />
<glyph unicode="&#xd4;" horiz-adv-x="1626" d="M274 700q163 766 850 766q685 0 525 -766q-23 -109 -57.5 -201.5t-84.5 -178t-118 -151t-153 -114.5t-195.5 -74.5t-239.5 -25.5q-687 0 -527 745zM545 409q16 -290 293 -290q62 0 117.5 16t98 40t80.5 63.5t64.5 75.5t51 89t39 89.5t29.5 90.5t21 80t15 70 q41 195 34 301q-17 273 -298 273q-79 0 -146.5 -22.5t-115 -59t-86.5 -87t-64 -102t-44.5 -109.5t-31 -103.5t-20.5 -88.5v-2q-44 -208 -37 -324zM780 1543q-2 15 13 26l270 213q6 6 16 6h228q10 0 16 -6l176 -209q10 -10 -1 -27.5t-28 -17.5h-96l-8 2l-195 166l-264 -166 l-12 -2h-96q-17 0 -19 15z" />
<glyph unicode="&#xd5;" horiz-adv-x="1626" d="M274 700q163 766 850 766q685 0 525 -766q-23 -109 -57.5 -201.5t-84.5 -178t-118 -151t-153 -114.5t-195.5 -74.5t-239.5 -25.5q-687 0 -527 745zM545 409q16 -290 293 -290q62 0 117.5 16t98 40t80.5 63.5t64.5 75.5t51 89t39 89.5t29.5 90.5t21 80t15 70 q41 195 34 301q-17 273 -298 273q-79 0 -146.5 -22.5t-115 -59t-86.5 -87t-64 -102t-44.5 -109.5t-31 -103.5t-20.5 -88.5v-2q-44 -208 -37 -324zM770.5 1543q1.5 7 1.5 20q17 84 95.5 158.5t179.5 74.5q42 0 81 -14t58 -27t45 -35q53 -45 88 -45q14 0 28.5 5t35.5 26.5 t32 58.5q7 22 18 26.5t44 4.5h36q24 0 33.5 -1.5t14.5 -9t2 -24.5q-19 -84 -97.5 -158.5t-179.5 -74.5q-42 0 -81.5 14.5t-56 26t-46.5 35.5q-49 45 -86 45q-14 0 -28.5 -5t-35.5 -26.5t-32 -58.5q-8 -22 -19 -26.5t-45 -4.5h-37q-18 0 -25 0.5t-16 4t-7.5 10.5z" />
<glyph unicode="&#xd6;" horiz-adv-x="1626" d="M274 700q163 766 850 766q685 0 525 -766q-23 -109 -57.5 -201.5t-84.5 -178t-118 -151t-153 -114.5t-195.5 -74.5t-239.5 -25.5q-687 0 -527 745zM545 409q16 -290 293 -290q62 0 117.5 16t98 40t80.5 63.5t64.5 75.5t51 89t39 89.5t29.5 90.5t21 80t15 70 q41 195 34 301q-17 273 -298 273q-79 0 -146.5 -22.5t-115 -59t-86.5 -87t-64 -102t-44.5 -109.5t-31 -103.5t-20.5 -88.5v-2q-44 -208 -37 -324zM729 1616l6 35q11 49 33.5 68.5t73.5 19.5h94q54 0 67 -20t3 -68l-7 -35q-10 -46 -32 -67t-76 -21h-94q-54 0 -66 21.5 t-2 66.5zM1309.5 1569.5q-0.5 19.5 5.5 46.5l6 35q11 49 33 68.5t73 19.5h95q54 0 66.5 -20t2.5 -68l-6 -35q-10 -46 -32 -67t-76 -21h-95q-37 0 -54.5 11t-18 30.5z" />
<glyph unicode="&#xd7;" horiz-adv-x="1753" d="M340 -18q-45 58 45 137l477 393l-309 395q-56 79 12 137q12 10 24 16t22.5 8t19.5 2t18 -3.5t15 -6t13 -8.5l10.5 -9t8.5 -8.5t6 -6.5l310 -393l473 391l9 6l12 9t14 9t17.5 8.5t18 6.5t19 3.5t18.5 -2.5t18.5 -8t16.5 -16q45 -58 -45 -137l-477 -393l311 -393 q8 -9 13.5 -19.5t11.5 -30.5t-3.5 -43t-35.5 -44q-25 -21 -49 -25.5t-41.5 5.5t-27 18.5t-15.5 17.5l-309 393l-478 -393q-1 -1 -8.5 -6.5t-12 -8.5t-14 -9t-17 -8.5l-18 -6t-19.5 -3.5t-18.5 2t-18.5 8t-17 16z" />
<glyph unicode="&#xd8;" horiz-adv-x="1753" d="M245.5 462.5q0.5 105.5 28.5 237.5q160 766 914 766q176 0 309 -45l82 103q23 29 35 42t28.5 22t36.5 9q28 0 52.5 -20.5t17.5 -58.5q-7 -23 -57 -86q-32 -35 -64 -78q68 -48 109 -121.5t55 -142.5t12.5 -152.5t-9 -133.5t-19.5 -104q-159 -745 -912 -745q-170 0 -309 43 q-10 -11 -27.5 -33t-54.5 -67q-32 -42 -51 -58t-47 -16t-53 21t-17 59q4 21 55 84q13 15 28.5 35.5t33.5 42.5q-53 41 -90 91.5t-62 125t-24.5 180zM509.5 527q-8.5 -71 1.5 -151t48 -138l821 1038q-92 43 -225 43q-77 0 -145 -14.5t-119.5 -37t-96.5 -60t-76 -72.5 t-58.5 -85.5t-44 -88.5t-33 -93t-24 -86t-17.5 -80q-23 -104 -31.5 -175zM670 143q94 -41 229 -41q98 0 180.5 22.5t139.5 55.5t104.5 88t74.5 101t51.5 116t35 111t24.5 106q15 73 23 126t11.5 121.5t-9.5 126.5t-43 104z" />
<glyph unicode="&#xd9;" horiz-adv-x="1564" d="M271 340q1 61 16 131l180 852q12 56 38.5 77t82.5 21h104q59 0 73 -22t3 -76l-182 -860q-36 -169 12.5 -250.5t218.5 -81.5q91 0 158 23t110 69.5t68.5 104t42.5 137.5l182 858q12 55 38 76.5t83 21.5h82q59 0 73 -22t3 -76l-180 -854q-19 -92 -56.5 -168t-82.5 -128.5 t-103 -92t-114.5 -63t-120.5 -38t-116.5 -19.5t-107.5 -5q-46 0 -88.5 3.5t-88.5 12t-86 22t-78 35.5t-67.5 50t-52 67.5t-34 86.5t-10.5 108zM738 1783.5q-1 10.5 10.5 19.5t29.5 9h330l213 -223q15 -19 3 -30t-36 -11h-137l-401 217q-11 8 -12 18.5z" />
<glyph unicode="&#xda;" horiz-adv-x="1564" d="M271 340q1 61 16 131l180 852q12 56 38.5 77t82.5 21h104q59 0 73 -22t3 -76l-182 -860q-36 -169 12.5 -250.5t218.5 -81.5q91 0 158 23t110 69.5t68.5 104t42.5 137.5l182 858q12 55 38 76.5t83 21.5h82q59 0 73 -22t3 -76l-180 -854q-19 -92 -56.5 -168t-82.5 -128.5 t-103 -92t-114.5 -63t-120.5 -38t-116.5 -19.5t-107.5 -5q-46 0 -88.5 3.5t-88.5 12t-86 22t-78 35.5t-67.5 50t-52 67.5t-34 86.5t-10.5 108zM904 1559q-7 11 16 30l307 223h329q28 0 31 -18t-22 -29l-492 -217h-137q-25 0 -32 11z" />
<glyph unicode="&#xdb;" horiz-adv-x="1564" d="M271 340q1 61 16 131l180 852q12 56 38.5 77t82.5 21h104q59 0 73 -22t3 -76l-182 -860q-36 -169 12.5 -250.5t218.5 -81.5q91 0 158 23t110 69.5t68.5 104t42.5 137.5l182 858q12 55 38 76.5t83 21.5h82q59 0 73 -22t3 -76l-180 -854q-19 -92 -56.5 -168t-82.5 -128.5 t-103 -92t-114.5 -63t-120.5 -38t-116.5 -19.5t-107.5 -5q-46 0 -88.5 3.5t-88.5 12t-86 22t-78 35.5t-67.5 50t-52 67.5t-34 86.5t-10.5 108zM749 1543q-2 15 13 26l270 213q6 6 17 6h227q10 0 16 -6l176 -209q11 -11 0 -28t-28 -17h-97l-8 2l-194 166l-264 -166l-13 -2 h-96q-17 0 -19 15z" />
<glyph unicode="&#xdc;" horiz-adv-x="1564" d="M271 340q1 61 16 131l180 852q12 56 38.5 77t82.5 21h104q59 0 73 -22t3 -76l-182 -860q-36 -169 12.5 -250.5t218.5 -81.5q91 0 158 23t110 69.5t68.5 104t42.5 137.5l182 858q12 55 38 76.5t83 21.5h82q59 0 73 -22t3 -76l-180 -854q-19 -92 -56.5 -168t-82.5 -128.5 t-103 -92t-114.5 -63t-120.5 -38t-116.5 -19.5t-107.5 -5q-46 0 -88.5 3.5t-88.5 12t-86 22t-78 35.5t-67.5 50t-52 67.5t-34 86.5t-10.5 108zM698 1616l7 35q11 49 33 68.5t73 19.5h94q54 0 67 -20t3 -68l-6 -35q-10 -46 -32 -67t-77 -21h-94q-54 0 -66 21.5t-2 66.5z M1284 1616l6 35q11 49 33.5 68.5t73.5 19.5h94q54 0 67 -20t3 -68l-7 -35q-10 -46 -32 -67t-76 -21h-94q-54 0 -66 21.5t-2 66.5z" />
<glyph unicode="&#xdd;" horiz-adv-x="1501" d="M342 1374q4 17 12.5 27t23 14t24 5t24.5 1h135q58 0 91 -17.5t57 -66.5l159 -331q55 -109 76 -181q23 35 54.5 73.5t56 66t84.5 92.5l260 286q34 36 71.5 54.5t57.5 21t51 2.5h100q21 0 33 -1.5t24 -12.5t7 -33q-6 -20 -29 -43l-696 -764l-100 -471q-12 -56 -38 -76 t-81 -20h-99q-56 0 -72 21t-5 77l100 471l-373 764q-13 25 -8 41zM873 1559q-7 11 16 30l307 223h330q18 0 26 -9t3 -20t-21 -18l-492 -217h-137q-25 0 -32 11z" />
<glyph unicode="&#xde;" horiz-adv-x="1314" d="M209 102l258 1217q12 60 38.5 81t86.5 21h74q60 0 75.5 -21t3.5 -81l-22 -109h278q60 0 110.5 -8.5t98.5 -27.5t80.5 -50.5t55.5 -78t24 -109.5t-14 -145q-18 -85 -52.5 -153t-73 -111t-91.5 -74.5t-96.5 -47t-99.5 -24.5t-88.5 -10.5t-76.5 -1.5h-235l-56 -267 q-13 -61 -39.5 -81.5t-85.5 -20.5h-73q-61 0 -76.5 21t-3.5 81zM582 545h168q28 0 44.5 0.5t51 5t57.5 13t54 26.5t52.5 43t41 65t30.5 90q53 246 -225 246h-172z" />
<glyph unicode="&#xdf;" horiz-adv-x="1157" d="M145 98l224 1045q13 62 43.5 111.5t65.5 80t85.5 53t89 33t92 16.5t78.5 6.5t62 0.5q50 0 87 -2t109 -17.5t114.5 -43.5t69.5 -87.5t9 -142.5q-6 -32 -18.5 -64t-36 -74.5t-65 -83t-95.5 -69.5q185 -134 115 -479q-43 -203 -174.5 -303.5t-335.5 -100.5q-42 0 -87 7.5 t-77.5 23t-28.5 33.5q1 3 7.5 14.5t15.5 27.5t14 26q20 34 27 41.5t20 7.5q2 0 20 -6q49 -27 109 -27q44 0 78.5 16t55 39.5t36.5 59t24 65t17 66.5q0 2 0.5 3.5l1 3t0.5 3.5q15 73 21 128t1 108.5t-26 88t-63 57.5t-105 28q-25 1 -28.5 12t5.5 43l9 37q4 20 6.5 29.5t10 17 t20.5 8.5q38 1 63 4.5t57 16t54 34t42.5 60.5t32.5 94q18 81 -10.5 115t-134.5 34q-58 0 -97.5 -10t-62 -32t-34 -47.5t-19.5 -65.5l-221 -1043q-11 -55 -36 -76.5t-83 -21.5h-76q-56 0 -72.5 21t-5.5 77z" />
<glyph unicode="&#xe0;" horiz-adv-x="1075" d="M139 165.5q-12 52.5 2 106.5q11 48 38.5 89.5t64 70.5t85.5 53t96 38.5t101.5 25.5t96 16.5t86.5 8.5t65.5 3.5t40.5 0.5l14 71q24 91 1 140t-103 49q-187 0 -346 -138q-16 -12 -27 -12q-10 0 -16 7t-4 16q0 37 16 149q4 17 15.5 25t48.5 22q174 66 350 66q28 0 47 -0.5 t59.5 -4.5t65.5 -12.5t64.5 -24t56.5 -39t41.5 -58t19 -80.5t-9.5 -107l-117 -549q-11 -55 -36 -76.5t-83 -21.5h-75q-60 0 -74.5 22.5t-3.5 75.5l8 41q-44 -50 -96.5 -84.5t-101.5 -50t-85.5 -21.5t-68.5 -6q-65 0 -117 26t-79.5 68t-39.5 94.5zM410 276q-13 -61 16.5 -106 t91.5 -45q6 0 13.5 0.5t29.5 4t42 10t46 21t46.5 33.5t38.5 50.5t26 70.5l37 179q-23 -1 -46.5 -3.5t-69 -9t-84.5 -22t-79.5 -38t-69 -60t-38.5 -85.5zM516 1395q3 13 13 19t18.5 6.5t30.5 0.5h167q30 0 37.5 -3.5t18.5 -20.5l125 -240q6 -10 9 -18t3 -11v-2 q-3 -13 -12.5 -19t-18 -6.5t-30.5 -0.5h-76l-269 264q-21 17 -16 31z" />
<glyph unicode="&#xe1;" horiz-adv-x="1075" d="M139 165.5q-12 52.5 2 106.5q11 48 38.5 89.5t64 70.5t85.5 53t96 38.5t101.5 25.5t96 16.5t86.5 8.5t65.5 3.5t40.5 0.5l14 71q24 91 1 140t-103 49q-187 0 -346 -138q-16 -12 -27 -12q-10 0 -16 7t-4 16q0 37 16 149q4 17 15.5 25t48.5 22q174 66 350 66q28 0 47 -0.5 t59.5 -4.5t65.5 -12.5t64.5 -24t56.5 -39t41.5 -58t19 -80.5t-9.5 -107l-117 -549q-11 -55 -36 -76.5t-83 -21.5h-75q-60 0 -74.5 22.5t-3.5 75.5l8 41q-44 -50 -96.5 -84.5t-101.5 -50t-85.5 -21.5t-68.5 -6q-65 0 -117 26t-79.5 68t-39.5 94.5zM410 276q-13 -61 16.5 -106 t91.5 -45q6 0 13.5 0.5t29.5 4t42 10t46 21t46.5 33.5t38.5 50.5t26 70.5l37 179q-23 -1 -46.5 -3.5t-69 -9t-84.5 -22t-79.5 -38t-69 -60t-38.5 -85.5zM618 1110.5q-2 5.5 0 15.5q2 8 25 31l227 240q17 17 27 20.5t41 3.5h168q17 0 23 -0.5t15 -2.5t11 -7.5t0 -15.5 q-4 -11 -29 -31l-383 -264h-75q-17 0 -23.5 0.5t-15.5 2.5t-11 7.5z" />
<glyph unicode="&#xe2;" horiz-adv-x="1075" d="M139 165.5q-12 52.5 2 106.5q11 48 38.5 89.5t64 70.5t85.5 53t96 38.5t101.5 25.5t96 16.5t86.5 8.5t65.5 3.5t40.5 0.5l14 71q24 91 1 140t-103 49q-187 0 -346 -138q-16 -12 -27 -12q-10 0 -16 7t-4 16q0 37 16 149q4 17 15.5 25t48.5 22q174 66 350 66q28 0 47 -0.5 t59.5 -4.5t65.5 -12.5t64.5 -24t56.5 -39t41.5 -58t19 -80.5t-9.5 -107l-117 -549q-11 -55 -36 -76.5t-83 -21.5h-75q-60 0 -74.5 22.5t-3.5 75.5l8 41q-44 -50 -96.5 -84.5t-101.5 -50t-85.5 -21.5t-68.5 -6q-65 0 -117 26t-79.5 68t-39.5 94.5zM410 276q-13 -61 16.5 -106 t91.5 -45q6 0 13.5 0.5t29.5 4t42 10t46 21t46.5 33.5t38.5 50.5t26 70.5l37 179q-23 -1 -46.5 -3.5t-69 -9t-84.5 -22t-79.5 -38t-69 -60t-38.5 -85.5zM444 1109.5q-4 13.5 7 25.5l260 284q8 8 20 8h227q14 0 17 -8l137 -280q5 -12 -5.5 -27.5t-25.5 -15.5h-96q-8 2 -12 4 l-156 207l-246 -207l-12 -4h-96q-15 0 -19 13.5z" />
<glyph unicode="&#xe3;" horiz-adv-x="1075" d="M139 165.5q-12 52.5 2 106.5q11 48 38.5 89.5t64 70.5t85.5 53t96 38.5t101.5 25.5t96 16.5t86.5 8.5t65.5 3.5t40.5 0.5l14 71q24 91 1 140t-103 49q-187 0 -346 -138q-16 -12 -27 -12q-10 0 -16 7t-4 16q0 37 16 149q4 17 15.5 25t48.5 22q174 66 350 66q28 0 47 -0.5 t59.5 -4.5t65.5 -12.5t64.5 -24t56.5 -39t41.5 -58t19 -80.5t-9.5 -107l-117 -549q-11 -55 -36 -76.5t-83 -21.5h-75q-60 0 -74.5 22.5t-3.5 75.5l8 41q-44 -50 -96.5 -84.5t-101.5 -50t-85.5 -21.5t-68.5 -6q-65 0 -117 26t-79.5 68t-39.5 94.5zM410 276q-13 -61 16.5 -106 t91.5 -45q6 0 13.5 0.5t29.5 4t42 10t46 21t46.5 33.5t38.5 50.5t26 70.5l37 179q-23 -1 -46.5 -3.5t-69 -9t-84.5 -22t-79.5 -38t-69 -60t-38.5 -85.5zM412.5 1141q1.5 7 1.5 20q17 84 95 159t179 75q42 0 81.5 -14.5t56 -26t46.5 -35.5q53 -45 86 -45q14 0 29 5t36.5 27 t33.5 58q7 22 17.5 26.5t43.5 4.5h37q15 0 21 -0.5t15.5 -2t9.5 -5t3 -10.5t-2 -17q-17 -84 -95 -159t-179 -75q-42 0 -81.5 14.5t-57 26.5t-46.5 35q-53 45 -88 45q-14 0 -28.5 -5t-35.5 -26.5t-32 -58.5q-7 -22 -17.5 -26.5t-43.5 -4.5h-37q-18 0 -25 0.5t-16 4t-7.5 10.5 z" />
<glyph unicode="&#xe4;" horiz-adv-x="1075" d="M139 165.5q-12 52.5 2 106.5q11 48 38.5 89.5t64 70.5t85.5 53t96 38.5t101.5 25.5t96 16.5t86.5 8.5t65.5 3.5t40.5 0.5l14 71q24 91 1 140t-103 49q-187 0 -346 -138q-16 -12 -27 -12q-10 0 -16 7t-4 16q0 37 16 149q4 17 15.5 25t48.5 22q174 66 350 66q28 0 47 -0.5 t59.5 -4.5t65.5 -12.5t64.5 -24t56.5 -39t41.5 -58t19 -80.5t-9.5 -107l-117 -549q-11 -55 -36 -76.5t-83 -21.5h-75q-60 0 -74.5 22.5t-3.5 75.5l8 41q-44 -50 -96.5 -84.5t-101.5 -50t-85.5 -21.5t-68.5 -6q-65 0 -117 26t-79.5 68t-39.5 94.5zM410 276q-13 -61 16.5 -106 t91.5 -45q6 0 13.5 0.5t29.5 4t42 10t46 21t46.5 33.5t38.5 50.5t26 70.5l37 179q-23 -1 -46.5 -3.5t-69 -9t-84.5 -22t-79.5 -38t-69 -60t-38.5 -85.5zM420 1243l8 35q9 48 32.5 68t74.5 20h94q54 0 66.5 -20t2.5 -68l-8 -35q-10 -47 -31 -67.5t-75 -20.5h-95 q-54 0 -66.5 21.5t-2.5 66.5zM915 1243l9 35q9 48 32 68t74 20h94q54 0 67 -20t3 -68l-8 -35q-10 -46 -31.5 -67t-75.5 -21h-94q-54 0 -67 21.5t-3 66.5z" />
<glyph unicode="&#xe5;" horiz-adv-x="1075" d="M139 165.5q-12 52.5 2 106.5q11 48 38.5 89.5t64 70.5t85.5 53t96 38.5t101.5 25.5t96 16.5t86.5 8.5t65.5 3.5t40.5 0.5l14 71q24 91 1 140t-103 49q-187 0 -346 -138q-16 -12 -27 -12q-10 0 -16 7t-4 16q0 37 16 149q4 17 15.5 25t48.5 22q174 66 350 66q28 0 47 -0.5 t59.5 -4.5t65.5 -12.5t64.5 -24t56.5 -39t41.5 -58t19 -80.5t-9.5 -107l-117 -549q-11 -55 -36 -76.5t-83 -21.5h-75q-60 0 -74.5 22.5t-3.5 75.5l8 41q-44 -50 -96.5 -84.5t-101.5 -50t-85.5 -21.5t-68.5 -6q-65 0 -117 26t-79.5 68t-39.5 94.5zM410 276q-13 -61 16.5 -106 t91.5 -45q6 0 13.5 0.5t29.5 4t42 10t46 21t46.5 33.5t38.5 50.5t26 70.5l37 179q-23 -1 -46.5 -3.5t-69 -9t-84.5 -22t-79.5 -38t-69 -60t-38.5 -85.5zM549 1241q33 160 285 160q28 0 49 -1t61 -9.5t63.5 -24.5t38.5 -49.5t5 -79.5q-33 -160 -285 -160q-28 0 -49 1t-61 9.5 t-63.5 24.5t-38.5 49.5t-5 79.5zM688 1239q-10 -43 14.5 -56.5t81.5 -13.5q61 0 90 13t39 57q8 43 -16.5 56.5t-81.5 13.5q-61 0 -90 -13t-37 -57z" />
<glyph unicode="&#xe6;" horiz-adv-x="1626" d="M112.5 200.5q-2.5 29.5 4.5 51.5q8 39 31 73t52 58.5t72.5 44.5t83 33.5t93 23.5t92.5 15.5t92 9.5t81 5.5t70 2.5l27 131q12 57 11 99t-29 66t-84 24q-190 0 -349 -138q-16 -12 -26 -12t-16.5 7t-4.5 16q0 30 17 149q4 17 15 25t46 20q174 68 352 68q103 0 175 -17.5 t122 -66.5q135 84 324 84q205 0 279 -115t30 -323q-11 -58 -39 -77.5t-80 -19.5h-510q-14 -65 -11.5 -122t18.5 -99.5t59.5 -67t110.5 -24.5t149.5 27.5t159.5 91.5q25 20 37 20q14 0 16.5 -9t-0.5 -56q-11 -85 -12 -90q-3 -15 -13 -23.5t-57 -32.5q-155 -76 -319 -76 q-229 0 -344 113q-166 -113 -478 -113q-57 0 -101.5 14t-70.5 37t-45 52.5t-23.5 60t-7 60zM383 254q-9 -47 20 -88t99 -41q103 0 178 43.5t82 81.5q0 14 -2 24q-4 55 2 134q-348 -19 -379 -154zM1071 547h373q6 33 9 52.5t5.5 52.5t0.5 53.5t-9.5 45.5t-21 39.5t-37.5 24.5 t-56 10q-189 0 -264 -278z" />
<glyph unicode="&#xe7;" horiz-adv-x="1001" d="M176 471q107 502 602 502q101 0 159 -14.5t130 -51.5q26 -13 35 -21.5t6 -21.5q-1 -7 -25 -68t-30 -73q-13 -27 -33 -27q-13 0 -31 23q-51 51 -101 72.5t-143 21.5q-44 0 -80 -10.5t-62 -26.5t-48 -44.5t-36 -53t-27 -64.5t-20 -67.5t-17 -71.5q-7 -32 -9.5 -46.5t-8 -48 t-5.5 -52t1 -48t7.5 -46.5t18.5 -38t30 -32t45 -19t62 -8q172 0 324 115q25 20 36 20q21 0 21 -26q-4 -61 -19 -144q-3 -15 -13 -22t-58 -31q-156 -72 -330 -72q-237 0 -335.5 122t-45.5 372zM258 -412q3 8 98 120t133 155q27 31 37.5 37t42.5 6h37q21 0 29.5 -1t14.5 -7 t3 -19q0 -6 -16 -33l-158 -247q-17 -28 -26 -32.5t-43 -4.5h-103q-22 0 -29.5 0.5t-14.5 6.5t-5 19z" />
<glyph unicode="&#xe8;" horiz-adv-x="1046" d="M166 477q50 237 201 366.5t393 129.5q220 0 299.5 -116.5t34.5 -324.5q-5 -26 -15 -45t-20.5 -28t-27 -14t-27.5 -6t-29 -1h-557q-5 -34 -7.5 -59t-2.5 -60t6 -60t20 -51.5t36.5 -43.5t59 -28t84.5 -11q170 0 334 119q27 20 39 20q14 0 17 -9.5t0 -55.5q-10 -79 -13 -90 q-3 -16 -13.5 -24.5t-47.5 -25.5q-5 -3 -8 -4q-172 -78 -347 -78q-246 0 -354 126t-55 374zM444 547h426q12 81 12 143t-37.5 98.5t-115.5 36.5q-212 0 -285 -278zM502 1395q3 13 12.5 19t18 6.5t30.5 0.5h168q30 0 37 -3t18 -21l125 -240q6 -10 9.5 -18t3.5 -11v-2 q-3 -13 -13 -19t-18.5 -6.5t-30.5 -0.5h-76l-268 264q-21 17 -16 31z" />
<glyph unicode="&#xe9;" horiz-adv-x="1046" d="M166 477q50 237 201 366.5t393 129.5q220 0 299.5 -116.5t34.5 -324.5q-5 -26 -15 -45t-20.5 -28t-27 -14t-27.5 -6t-29 -1h-557q-5 -34 -7.5 -59t-2.5 -60t6 -60t20 -51.5t36.5 -43.5t59 -28t84.5 -11q170 0 334 119q27 20 39 20q14 0 17 -9.5t0 -55.5q-10 -79 -13 -90 q-3 -16 -13.5 -24.5t-47.5 -25.5q-5 -3 -8 -4q-172 -78 -347 -78q-246 0 -354 126t-55 374zM444 547h426q12 81 12 143t-37.5 98.5t-115.5 36.5q-212 0 -285 -278zM604 1110.5q-2 5.5 0 15.5q2 8 25 31l227 240q17 17 27 20.5t41 3.5h168q17 0 23 -0.5t15 -2.5t11 -7.5 t0 -15.5q-4 -11 -29 -31l-383 -264h-76q-17 0 -23 0.5t-15 2.5t-11 7.5z" />
<glyph unicode="&#xea;" horiz-adv-x="1046" d="M166 477q50 237 201 366.5t393 129.5q220 0 299.5 -116.5t34.5 -324.5q-5 -26 -15 -45t-20.5 -28t-27 -14t-27.5 -6t-29 -1h-557q-5 -34 -7.5 -59t-2.5 -60t6 -60t20 -51.5t36.5 -43.5t59 -28t84.5 -11q170 0 334 119q27 20 39 20q14 0 17 -9.5t0 -55.5q-10 -79 -13 -90 q-3 -16 -13.5 -24.5t-47.5 -25.5q-5 -3 -8 -4q-172 -78 -347 -78q-246 0 -354 126t-55 374zM429.5 1109.5q-4.5 13.5 6.5 25.5l260 284q8 8 21 8h227q14 0 17 -8l137 -280q5 -12 -5.5 -27.5t-25.5 -15.5h-96q-9 2 -13 4l-155 207l-246 -207l-12 -4h-96q-15 0 -19.5 13.5z M444 547h426q12 81 12 143t-37.5 98.5t-115.5 36.5q-212 0 -285 -278z" />
<glyph unicode="&#xeb;" horiz-adv-x="1046" d="M166 477q50 237 201 366.5t393 129.5q220 0 299.5 -116.5t34.5 -324.5q-5 -26 -15 -45t-20.5 -28t-27 -14t-27.5 -6t-29 -1h-557q-5 -34 -7.5 -59t-2.5 -60t6 -60t20 -51.5t36.5 -43.5t59 -28t84.5 -11q170 0 334 119q27 20 39 20q14 0 17 -9.5t0 -55.5q-10 -79 -13 -90 q-3 -16 -13.5 -24.5t-47.5 -25.5q-5 -3 -8 -4q-172 -78 -347 -78q-246 0 -354 126t-55 374zM406 1243l8 35q9 48 32 68t74 20h94q54 0 67 -20t3 -68l-8 -35q-10 -46 -31.5 -67t-75.5 -21h-94q-54 0 -66.5 21.5t-2.5 66.5zM444 547h426q12 81 12 143t-37.5 98.5t-115.5 36.5 q-212 0 -285 -278zM901 1243l8 35q9 48 32.5 68t74.5 20h94q54 0 67 -20t3 -68l-9 -35q-10 -47 -31 -67.5t-75 -20.5h-94q-54 0 -67 21.5t-3 66.5z" />
<glyph unicode="&#xec;" horiz-adv-x="524" d="M145 98l158 742q12 57 37.5 77.5t81.5 20.5h76q60 0 74 -22.5t3 -75.5l-157 -742q-11 -55 -36 -76.5t-83 -21.5h-76q-56 0 -72.5 21t-5.5 77zM215 1395q3 13 12.5 19t18 6.5t30.5 0.5h168q30 0 37.5 -3.5t18.5 -20.5l125 -240q6 -10 9 -18t3 -11v-2q-3 -13 -13 -19 t-18.5 -6.5t-30.5 -0.5h-75l-269 264q-21 17 -16 31z" />
<glyph unicode="&#xed;" horiz-adv-x="524" d="M145 98l158 742q12 57 37.5 77.5t81.5 20.5h76q60 0 74 -22.5t3 -75.5l-157 -742q-11 -55 -36 -76.5t-83 -21.5h-76q-56 0 -72.5 21t-5.5 77zM365 1110.5q-2 5.5 0 15.5q1 8 24 31l227 240q17 17 27 20.5t41 3.5h168q17 0 23 -0.5t15 -2.5t11 -7.5t0 -15.5 q-4 -11 -29 -31l-383 -264h-75q-17 0 -23 0.5t-15 2.5t-11 7.5z" />
<glyph unicode="&#xee;" horiz-adv-x="524" d="M145 98l158 742q12 57 37.5 77.5t81.5 20.5h76q60 0 74 -22.5t3 -75.5l-157 -742q-11 -55 -36 -76.5t-83 -21.5h-76q-56 0 -72.5 21t-5.5 77zM167 1109.5q-4 13.5 7 25.5l260 284q8 8 21 8h227q13 0 16 -8l138 -280q5 -12 -5.5 -27.5t-25.5 -15.5h-96q-9 2 -13 4 l-155 207l-246 -207l-12 -4h-97q-15 0 -19 13.5z" />
<glyph unicode="&#xef;" horiz-adv-x="524" d="M143 1243l9 35q9 48 32 68t74 20h94q54 0 67 -20t3 -68l-8 -35q-10 -46 -31.5 -67t-75.5 -21h-94q-54 0 -67 21.5t-3 66.5zM145 98l158 742q12 57 37.5 77.5t81.5 20.5h76q60 0 74 -22.5t3 -75.5l-157 -742q-11 -55 -36 -76.5t-83 -21.5h-76q-56 0 -72.5 21t-5.5 77z M639 1243l8 35q9 48 32.5 68t74.5 20h94q54 0 67 -20t3 -68l-9 -35q-10 -47 -31 -67.5t-75 -20.5h-94q-54 0 -67 21.5t-3 66.5z" />
<glyph unicode="&#xf0;" d="M162 461q55 257 210 384.5t398 127.5q53 0 104 -6q-51 134 -149 221l-217 -88q-16 -8 -35 -8q-31 0 -47 23.5t-10 53.5q10 45 59 66l115 47q-53 27 -111 43q-8 3 -11.5 9t-3.5 11l1 5q2 8 9 14t42 31l57 43q59 41 68 41q20 0 72 -19q85 -30 143 -69l203 82q16 8 35 8 q31 0 47 -24t10 -54q-10 -45 -59 -66l-111 -45q137 -138 187 -341.5t3 -430.5q-35 -163 -80 -253q-146 -290 -534 -290q-498 0 -395 484zM418.5 325q-0.5 -20 1 -49t9 -46t20 -37t32 -30.5t47.5 -18t64 -7.5q45 0 82.5 12t64 29t49 47t36 55.5t26 65t18.5 64.5t15 65 q9 39 14 66t9 67t2 67t-12 57.5t-29 49t-52 31t-78 12.5q-36 0 -67 -7.5t-54.5 -17.5t-44.5 -30t-35.5 -36.5t-28 -45.5t-21.5 -47.5t-17 -52.5t-13 -51.5t-12 -51.5q-7 -35 -11 -53.5t-9 -52.5t-5.5 -54z" />
<glyph unicode="&#xf1;" horiz-adv-x="1148" d="M143 98l160 754q12 56 38.5 77t82.5 21h70q59 0 72.5 -22t2.5 -76l-20 -102h2q16 22 34 43.5t54.5 54t75.5 55.5t96.5 40.5t118.5 17.5q158 0 213.5 -69t21.5 -226l-121 -568q-11 -55 -36 -76.5t-82 -21.5h-82q-60 0 -74.5 22.5t-3.5 75.5l121 564q18 78 0 114.5 t-88 36.5q-56 0 -111.5 -27.5t-103 -89t-66.5 -145.5l-96 -453q-11 -55 -36 -76.5t-83 -21.5h-82q-56 0 -72.5 21t-5.5 77zM449.5 1141q1.5 7 1.5 20q17 84 95 159t179 75q42 0 81.5 -14.5t56 -26t46.5 -35.5q53 -45 86 -45q14 0 29 5t36.5 27t33.5 58q7 22 17.5 26.5 t43.5 4.5h37q15 0 21 -0.5t15.5 -2t9.5 -5t3 -10.5t-2 -17q-17 -84 -95 -159t-179 -75q-42 0 -81.5 14.5t-57 26.5t-46.5 35q-53 45 -88 45q-14 0 -28.5 -5t-35.5 -26.5t-32 -58.5q-7 -22 -17.5 -26.5t-43.5 -4.5h-37q-18 0 -25 0.5t-16 4t-7.5 10.5z" />
<glyph unicode="&#xf2;" d="M162 461q109 512 608 512q249 0 346 -129.5t43 -382.5q-104 -484 -602 -484q-499 0 -395 484zM417.5 321q-0.5 -20 1 -48.5t9 -45t20.5 -36t32 -30t47.5 -17.5t64.5 -7q46 0 83.5 11.5t64.5 28.5t49 47t35.5 55t26.5 67t19 68t15 71q8 35 12 54.5t9 52.5t5.5 52.5 t-1 47.5t-9 44.5t-20.5 35.5t-32 29t-47.5 17t-64.5 7t-67 -7t-54.5 -17t-44.5 -29.5t-35 -35.5t-27.5 -45t-21.5 -47t-17.5 -53t-13.5 -52.5t-12 -53.5t-11.5 -55.5t-9 -54t-6 -54.5zM541 1395q3 13 12.5 19t18 6.5t30.5 0.5h168q30 0 37 -3t18 -21l125 -240q6 -10 9.5 -18 t3.5 -11v-2q-3 -13 -13 -19t-18.5 -6.5t-30.5 -0.5h-76l-268 264q-21 17 -16 31z" />
<glyph unicode="&#xf3;" d="M162 461q109 512 608 512q249 0 346 -129.5t43 -382.5q-104 -484 -602 -484q-499 0 -395 484zM417.5 321q-0.5 -20 1 -48.5t9 -45t20.5 -36t32 -30t47.5 -17.5t64.5 -7q46 0 83.5 11.5t64.5 28.5t49 47t35.5 55t26.5 67t19 68t15 71q8 35 12 54.5t9 52.5t5.5 52.5 t-1 47.5t-9 44.5t-20.5 35.5t-32 29t-47.5 17t-64.5 7t-67 -7t-54.5 -17t-44.5 -29.5t-35 -35.5t-27.5 -45t-21.5 -47t-17.5 -53t-13.5 -52.5t-12 -53.5t-11.5 -55.5t-9 -54t-6 -54.5zM643 1110.5q-2 5.5 0 15.5q2 8 25 31l227 240q17 17 27 20.5t41 3.5h167q17 0 23.5 -0.5 t15.5 -2.5t11 -7.5t0 -15.5q-4 -11 -29 -31l-383 -264h-76q-17 0 -23 0.5t-15 2.5t-11 7.5z" />
<glyph unicode="&#xf4;" d="M162 461q109 512 608 512q249 0 346 -129.5t43 -382.5q-104 -484 -602 -484q-499 0 -395 484zM417.5 321q-0.5 -20 1 -48.5t9 -45t20.5 -36t32 -30t47.5 -17.5t64.5 -7q46 0 83.5 11.5t64.5 28.5t49 47t35.5 55t26.5 67t19 68t15 71q8 35 12 54.5t9 52.5t5.5 52.5 t-1 47.5t-9 44.5t-20.5 35.5t-32 29t-47.5 17t-64.5 7t-67 -7t-54.5 -17t-44.5 -29.5t-35 -35.5t-27.5 -45t-21.5 -47t-17.5 -53t-13.5 -52.5t-12 -53.5t-11.5 -55.5t-9 -54t-6 -54.5zM468 1109.5q-4 13.5 7 25.5l260 284q8 8 21 8h227q13 0 16 -8l138 -280 q5 -12 -5.5 -27.5t-25.5 -15.5h-96q-9 2 -13 4l-155 207l-246 -207l-12 -4h-97q-15 0 -19 13.5z" />
<glyph unicode="&#xf5;" d="M162 461q109 512 608 512q249 0 346 -129.5t43 -382.5q-104 -484 -602 -484q-499 0 -395 484zM417.5 321q-0.5 -20 1 -48.5t9 -45t20.5 -36t32 -30t47.5 -17.5t64.5 -7q46 0 83.5 11.5t64.5 28.5t49 47t35.5 55t26.5 67t19 68t15 71q8 35 12 54.5t9 52.5t5.5 52.5 t-1 47.5t-9 44.5t-20.5 35.5t-32 29t-47.5 17t-64.5 7t-67 -7t-54.5 -17t-44.5 -29.5t-35 -35.5t-27.5 -45t-21.5 -47t-17.5 -53t-13.5 -52.5t-12 -53.5t-11.5 -55.5t-9 -54t-6 -54.5zM436.5 1141q1.5 7 1.5 20q17 84 95.5 159t179.5 75q42 0 81.5 -14.5t56 -26t46.5 -35.5 q53 -45 86 -45q14 0 29 5t36 26.5t33 58.5q7 22 18 26.5t44 4.5h37q15 0 21 -0.5t15.5 -2t9.5 -5t3 -10.5t-2 -17q-17 -84 -95.5 -159t-179.5 -75q-42 0 -81.5 14.5t-56 26t-46.5 35.5q-53 45 -88 45q-14 0 -28.5 -5t-35.5 -26.5t-32 -58.5q-7 -22 -17.5 -26.5t-44.5 -4.5 h-37q-18 0 -25 0.5t-16 4t-7.5 10.5z" />
<glyph unicode="&#xf6;" d="M162 461q109 512 608 512q249 0 346 -129.5t43 -382.5q-104 -484 -602 -484q-499 0 -395 484zM417.5 321q-0.5 -20 1 -48.5t9 -45t20.5 -36t32 -30t47.5 -17.5t64.5 -7q46 0 83.5 11.5t64.5 28.5t49 47t35.5 55t26.5 67t19 68t15 71q8 35 12 54.5t9 52.5t5.5 52.5 t-1 47.5t-9 44.5t-20.5 35.5t-32 29t-47.5 17t-64.5 7t-67 -7t-54.5 -17t-44.5 -29.5t-35 -35.5t-27.5 -45t-21.5 -47t-17.5 -53t-13.5 -52.5t-12 -53.5t-11.5 -55.5t-9 -54t-6 -54.5zM444 1243l9 35q9 48 32 68t74 20h94q54 0 67 -20t3 -68l-8 -35q-10 -46 -31.5 -67 t-75.5 -21h-94q-54 0 -67 21.5t-3 66.5zM940 1243l8 35q9 48 32.5 68t74.5 20h94q54 0 67 -20t3 -68l-9 -35q-10 -47 -31 -67.5t-75 -20.5h-94q-54 0 -67 21.5t-3 66.5z" />
<glyph unicode="&#xf7;" horiz-adv-x="1753" d="M233 512q18 86 127 86h1285q11 0 19.5 -0.5t25.5 -5t27.5 -13t16.5 -26t1 -41.5q-18 -86 -129 -86h-1280q-16 0 -28 1.5t-32.5 8.5t-29.5 26.5t-3 49.5zM736 -60q-6 8 3 48l33 157q9 40 18.5 48t49.5 8h157q40 0 46 -8t-3 -48l-32 -157q-9 -40 -18.5 -48t-49.5 -8h-158 q-40 0 -46 8zM925 829q-6 8 3 48l33 157q9 40 18.5 48t48.5 8h158q40 0 46 -8t-3 -48l-33 -157q-9 -40 -18.5 -48t-49.5 -8h-157q-40 0 -46 8z" />
<glyph unicode="&#xf8;" d="M70 -199q6 22 45 70l141 184q-160 115 -94 406q52 248 202 380t404 132q106 0 182 -23l164 213q34 49 82 49q30 0 47 -21t10 -52q-3 -23 -30 -56l-152 -194q153 -125 88 -428q-104 -484 -602 -484q-96 0 -176 19l-158 -201q-38 -46 -52 -56q-18 -11 -42 -11 q-30 0 -47.5 20.5t-11.5 52.5zM384 281.5q2 -25.5 9 -48.5l447 576q-48 16 -101 16q-41 0 -77 -8t-63 -19.5t-51 -33t-40.5 -39.5t-31.5 -49t-23.5 -51t-18.5 -55.5t-14 -53t-12 -53.5q-9 -43 -13 -65.5t-8.5 -56.5t-2.5 -59.5zM489 137q45 -12 99 -12q90 0 151 27 t95.5 87.5t47.5 99.5t30 121q1 2 1 3q9 41 13.5 64.5t9 59t3 65t-8.5 55.5z" />
<glyph unicode="&#xf9;" horiz-adv-x="1148" d="M178 258l123 582q12 57 37.5 77.5t81.5 20.5h82q60 0 74.5 -22.5t3.5 -75.5l-127 -600q-20 -82 -2.5 -110t100.5 -28q104 0 175.5 72t94.5 180l103 486q12 56 36.5 77t81.5 21h82q60 0 74.5 -22.5t3.5 -75.5l-158 -742q-11 -55 -36 -76.5t-82 -21.5h-76q-60 0 -74.5 22.5 t-3.5 75.5l12 54q-134 -175 -333 -175q-169 0 -238 62t-35 219zM553 1395q3 13 12.5 19t18 6.5t30.5 0.5h168q30 0 37.5 -3.5t18.5 -20.5l125 -240q6 -10 9 -18t3 -11v-2q-3 -13 -13 -19t-18.5 -6.5t-30.5 -0.5h-75l-269 264q-21 17 -16 31z" />
<glyph unicode="&#xfa;" horiz-adv-x="1148" d="M178 258l123 582q12 57 37.5 77.5t81.5 20.5h82q60 0 74.5 -22.5t3.5 -75.5l-127 -600q-20 -82 -2.5 -110t100.5 -28q104 0 175.5 72t94.5 180l103 486q12 56 36.5 77t81.5 21h82q60 0 74.5 -22.5t3.5 -75.5l-158 -742q-11 -55 -36 -76.5t-82 -21.5h-76q-60 0 -74.5 22.5 t-3.5 75.5l12 54q-134 -175 -333 -175q-169 0 -238 62t-35 219zM655 1110.5q-2 5.5 0 15.5q2 8 25 31l227 240q17 17 27 20.5t41 3.5h168q17 0 23 -0.5t15 -2.5t11 -7.5t0 -15.5q-4 -11 -29 -31l-383 -264h-75q-17 0 -23.5 0.5t-15.5 2.5t-11 7.5z" />
<glyph unicode="&#xfb;" horiz-adv-x="1148" d="M178 258l123 582q12 57 37.5 77.5t81.5 20.5h82q60 0 74.5 -22.5t3.5 -75.5l-127 -600q-20 -82 -2.5 -110t100.5 -28q104 0 175.5 72t94.5 180l103 486q12 56 36.5 77t81.5 21h82q60 0 74.5 -22.5t3.5 -75.5l-158 -742q-11 -55 -36 -76.5t-82 -21.5h-76q-60 0 -74.5 22.5 t-3.5 75.5l12 54q-134 -175 -333 -175q-169 0 -238 62t-35 219zM480.5 1109.5q-4.5 13.5 6.5 25.5l261 284q8 8 20 8h227q14 0 17 -8l137 -280q5 -12 -5.5 -27.5t-25.5 -15.5h-96q-8 2 -12 4l-156 207l-246 -207l-12 -4h-96q-15 0 -19.5 13.5z" />
<glyph unicode="&#xfc;" horiz-adv-x="1148" d="M178 258l123 582q12 57 37.5 77.5t81.5 20.5h82q60 0 74.5 -22.5t3.5 -75.5l-127 -600q-20 -82 -2.5 -110t100.5 -28q104 0 175.5 72t94.5 180l103 486q12 56 36.5 77t81.5 21h82q60 0 74.5 -22.5t3.5 -75.5l-158 -742q-11 -55 -36 -76.5t-82 -21.5h-76q-60 0 -74.5 22.5 t-3.5 75.5l12 54q-134 -175 -333 -175q-169 0 -238 62t-35 219zM457 1243l8 35q9 48 32 68t74 20h95q54 0 66.5 -20t2.5 -68l-8 -35q-10 -47 -31 -67.5t-75 -20.5h-95q-54 0 -66.5 21.5t-2.5 66.5zM952 1243l9 35q9 48 32 68t74 20h94q54 0 67 -20t3 -68l-8 -35 q-10 -46 -31.5 -67t-75.5 -21h-94q-54 0 -67 21.5t-3 66.5z" />
<glyph unicode="&#xfd;" horiz-adv-x="1024" d="M8 -391q-3 5 6 78t13 88q5 30 32 30q8 0 19 -8q55 -43 127 -43q39 0 72 14t58.5 42t40 49t34.5 55q18 37 47 86l-207 852q-5 23 -2 33q4 19 13.5 30.5t25 16t25.5 5.5t26 1h53q39 0 60.5 -5.5t37 -28t22.5 -45.5t21 -81q32 -141 45 -201t26 -149.5t7 -136.5h2 q17 61 94 210t143 265t73 125q19 22 42.5 33t38 12.5t37.5 1.5h45q21 0 34.5 -1.5t28 -15t9.5 -38.5q-2 -11 -20 -41l-539 -971q-12 -22 -31 -49.5t-60.5 -73t-88 -80.5t-114.5 -61.5t-140 -26.5q-44 0 -95.5 6.5t-60.5 22.5zM592 1110.5q-2 5.5 0 15.5q1 8 24 31l228 240 q17 17 26.5 20.5t40.5 3.5h168q17 0 23 -0.5t15 -2.5t11 -7.5t0 -15.5q-4 -12 -28 -31l-383 -264h-76q-17 0 -23 0.5t-15 2.5t-11 7.5z" />
<glyph unicode="&#xfe;" horiz-adv-x="1148" d="M61 -299l345 1622q12 56 38 77t82 21h76q59 0 73 -22t3 -76l-103 -481q153 119 330 119q76 0 132 -22.5t87 -56t48 -83t21 -91.5t-0.5 -95t-9.5 -80.5t-12 -59.5q-38 -169 -106 -273q-146 -223 -432 -223q-140 0 -213 103l-80 -379q-11 -55 -36 -76.5t-83 -21.5h-82 q-57 0 -73.5 21t-4.5 77zM452 200.5q5 -15.5 35 -40.5q39 -35 101 -35q48 0 89 15.5t69.5 37.5t53 57.5t38.5 63t27 67.5t17.5 57.5t10.5 45.5q5 26 7.5 41t7.5 48.5t3.5 56t-4 54t-14 52t-28.5 40.5t-46 30t-67 10q-101 0 -193 -68l-104 -491q-8 -26 -3 -41.5z" />
<glyph unicode="&#xff;" horiz-adv-x="1024" d="M8 -391q-3 5 6 78t13 88q5 30 32 30q8 0 19 -8q55 -43 127 -43q39 0 72 14t58.5 42t40 49t34.5 55q18 37 47 86l-207 852q-5 23 -2 33q4 19 13.5 30.5t25 16t25.5 5.5t26 1h53q39 0 60.5 -5.5t37 -28t22.5 -45.5t21 -81q32 -141 45 -201t26 -149.5t7 -136.5h2 q17 61 94 210t143 265t73 125q19 22 42.5 33t38 12.5t37.5 1.5h45q21 0 34.5 -1.5t28 -15t9.5 -38.5q-2 -11 -20 -41l-539 -971q-12 -22 -31 -49.5t-60.5 -73t-88 -80.5t-114.5 -61.5t-140 -26.5q-44 0 -95.5 6.5t-60.5 22.5zM393 1243l8 35q9 48 32.5 68t74.5 20h94 q54 0 67 -20t3 -68l-8 -35q-10 -46 -31.5 -67t-75.5 -21h-94q-54 0 -67 21.5t-3 66.5zM889 1243l8 35q9 48 32.5 68t74.5 20h94q54 0 66.5 -20t2.5 -68l-8 -35q-10 -47 -31 -67.5t-75 -20.5h-95q-54 0 -66.5 21.5t-2.5 66.5z" />
<glyph unicode="&#x152;" horiz-adv-x="2189" d="M203.5 297.5q-40.5 165.5 7.5 402.5q77 370 300.5 568t602.5 198q77 0 186 -20q147 -25 216 -25h751q59 0 73 -22t3 -76l-2 -16q-7 -29 -17.5 -48t-21 -29t-29.5 -15t-32.5 -6t-40.5 -1l-480 6h-102l-82 -383h541q55 0 72 -20t5 -76q-11 -58 -38.5 -77t-79.5 -19h-541 l-88 -422l301 4l317 4q19 0 28 -0.5t23.5 -2t21 -5t14.5 -10.5t10 -17.5t2 -26t-4 -36.5l-6 -29q-11 -55 -36 -76.5t-83 -21.5h-783q-67 0 -198 -23q-137 -22 -223 -22q-251 0 -399 88.5t-188.5 254zM512 735q-136 -633 332 -633q55 0 93 6t69.5 24.5t52 43t40 71.5t34 99 t32.5 135l49 230q76 359 80 419q9 110 -31 149.5t-163 39.5q-73 0 -137.5 -15t-114 -38.5t-93 -60t-74 -72.5t-57.5 -83.5t-43.5 -85.5t-31.5 -86t-22 -77t-15 -66z" />
<glyph unicode="&#x153;" horiz-adv-x="1753" d="M164 475q106 498 612 498q236 0 344 -115q149 115 371 115q204 0 279.5 -114.5t29.5 -323.5q-11 -58 -39 -77.5t-80 -19.5h-512q-13 -61 -11 -117.5t16.5 -100t58.5 -69.5t115 -26q74 0 156 29.5t153 89.5q25 20 37 20q14 0 16.5 -9t-0.5 -56q-11 -85 -12 -90 q-1 -9 -4.5 -15t-18.5 -15.5t-45 -23.5q-160 -78 -323 -78q-231 0 -346 119q-153 -119 -396 -119q-248 0 -351 124t-50 374zM407 324.5q0 -20.5 1.5 -50.5t9.5 -48.5t21.5 -40t34.5 -33t51 -19.5t69 -8q48 0 88 13t68 31t52 50.5t38 59t27 69.5t19 68.5t15 68.5q9 41 14 66 t9.5 65t1.5 65t-13.5 55.5t-31 47.5t-55.5 29t-83 12q-43 0 -80 -7.5t-65 -25.5t-49 -35t-38.5 -47.5t-28 -51.5t-21.5 -59.5t-15.5 -57t-13.5 -58.5q-7 -34 -10.5 -51.5t-9 -52t-5.5 -55zM1196 547h375q6 35 8.5 53.5t5.5 53t0.5 54t-9.5 45t-21 39t-38 23.5t-57 10 q-191 0 -264 -278z" />
<glyph unicode="&#x178;" horiz-adv-x="1501" d="M342 1374q4 17 12.5 27t23 14t24 5t24.5 1h135q58 0 91 -17.5t57 -66.5l159 -331q55 -109 76 -181q23 35 54.5 73.5t56 66t84.5 92.5l260 286q34 36 71.5 54.5t57.5 21t51 2.5h100q21 0 33 -1.5t24 -12.5t7 -33q-6 -20 -29 -43l-696 -764l-100 -471q-12 -56 -38 -76 t-81 -20h-99q-56 0 -72 21t-5 77l100 471l-373 764q-13 25 -8 41zM662.5 1569.5q-0.5 19.5 5.5 46.5l6 35q11 49 33 68.5t73 19.5h94q54 0 67 -20t3 -68l-6 -35q-10 -46 -32 -67t-77 -21h-94q-37 0 -54.5 11t-18 30.5zM1253 1616l7 35q11 49 33 68.5t73 19.5h94q54 0 67 -20 t3 -68l-6 -35q-10 -46 -32 -67t-77 -21h-94q-54 0 -66 21.5t-2 66.5z" />
<glyph unicode="&#x2c6;" d="M468 1109.5q-4 13.5 7 25.5l260 284q8 8 21 8h227q13 0 16 -8l138 -280q5 -12 -5.5 -27.5t-25.5 -15.5h-96q-9 2 -13 4l-155 207l-246 -207l-12 -4h-97q-15 0 -19 13.5z" />
<glyph unicode="&#x2dc;" d="M436.5 1141q1.5 7 1.5 20q17 84 95.5 159t179.5 75q42 0 81.5 -14.5t56 -26t46.5 -35.5q53 -45 86 -45q14 0 29 5t36 26.5t33 58.5q7 22 18 26.5t44 4.5h37q15 0 21 -0.5t15.5 -2t9.5 -5t3 -10.5t-2 -17q-17 -84 -95.5 -159t-179.5 -75q-42 0 -81.5 14.5t-56 26 t-46.5 35.5q-53 45 -88 45q-14 0 -28.5 -5t-35.5 -26.5t-32 -58.5q-7 -22 -17.5 -26.5t-44.5 -4.5h-37q-18 0 -25 0.5t-16 4t-7.5 10.5z" />
<glyph unicode="&#x2000;" horiz-adv-x="906" />
<glyph unicode="&#x2001;" horiz-adv-x="1812" />
<glyph unicode="&#x2002;" horiz-adv-x="906" />
<glyph unicode="&#x2003;" horiz-adv-x="1812" />
<glyph unicode="&#x2004;" horiz-adv-x="604" />
<glyph unicode="&#x2005;" horiz-adv-x="453" />
<glyph unicode="&#x2006;" horiz-adv-x="302" />
<glyph unicode="&#x2007;" horiz-adv-x="302" />
<glyph unicode="&#x2008;" horiz-adv-x="226" />
<glyph unicode="&#x2009;" horiz-adv-x="362" />
<glyph unicode="&#x200a;" horiz-adv-x="100" />
<glyph unicode="&#x2010;" horiz-adv-x="751" d="M122.5 447q-2.5 10 2.5 22q14 74 113 74h403q12 0 20 -0.5t23.5 -4.5t24.5 -11t14.5 -22t1.5 -36q-16 -74 -115 -74h-403h-10t-12.5 0.5t-13.5 2t-13.5 4t-13 6t-11 9t-7.5 13t-3.5 17.5z" />
<glyph unicode="&#x2011;" horiz-adv-x="751" d="M122.5 447q-2.5 10 2.5 22q14 74 113 74h403q12 0 20 -0.5t23.5 -4.5t24.5 -11t14.5 -22t1.5 -36q-16 -74 -115 -74h-403h-10t-12.5 0.5t-13.5 2t-13.5 4t-13 6t-11 9t-7.5 13t-3.5 17.5z" />
<glyph unicode="&#x2012;" horiz-adv-x="751" d="M122.5 447q-2.5 10 2.5 22q14 74 113 74h403q12 0 20 -0.5t23.5 -4.5t24.5 -11t14.5 -22t1.5 -36q-16 -74 -115 -74h-403h-10t-12.5 0.5t-13.5 2t-13.5 4t-13 6t-11 9t-7.5 13t-3.5 17.5z" />
<glyph unicode="&#x2013;" d="M123 580q16 73 115 73h927h11.5t14 -1t15.5 -2.5t15.5 -5t13.5 -9t9.5 -13t4.5 -18t-2 -24.5q-14 -74 -112 -74h-928q-12 0 -20 0.5t-23.5 4.5t-24.5 11t-14.5 22t-1.5 36z" />
<glyph unicode="&#x2014;" horiz-adv-x="2252" d="M123 580q16 73 115 73h2054h11.5t14 -1t15.5 -2.5t15.5 -5t13.5 -9t9.5 -13t4.5 -18t-2 -24.5q-14 -74 -113 -74h-2054q-12 0 -20 0.5t-23.5 4.5t-24.5 11t-14.5 22t-1.5 36z" />
<glyph unicode="&#x2018;" horiz-adv-x="626" d="M386 943.5q-6 7.5 3 47.5l41 195l174 209q15 18 25 22t41 4h24h3q20 0 28 -1t13.5 -7t2.5 -18q-4 -14 -12 -27l-96 -164q51 0 58.5 -7.5t-1.5 -47.5l-33 -158q-9 -40 -18 -47.5t-49 -7.5h-158q-40 0 -46 7.5z" />
<glyph unicode="&#x2019;" horiz-adv-x="626" d="M385 963q3 13 12 26l97 164q-51 0 -59.5 7.5t-0.5 47.5l35 158q7 39 17.5 47t50.5 8h157q39 0 45 -7.5t-2 -47.5l-41 -195l-174 -208q-18 -19 -26.5 -23t-38.5 -4h-25q-21 0 -29.5 1t-14.5 7t-3 19z" />
<glyph unicode="&#x201a;" horiz-adv-x="626" d="M139 -195q3 12 13 27l96 164q-51 0 -59.5 7.5t-0.5 47.5l35 158q7 40 16.5 47.5t49.5 7.5h157q40 0 46.5 -7.5t-0.5 -47.5l-43 -195l-173 -209q-17 -19 -26 -22.5t-39 -3.5h-25h-3q-20 0 -28 1t-13.5 7t-2.5 18z" />
<glyph unicode="&#x201c;" horiz-adv-x="1083" d="M386 943.5q-6 7.5 3 47.5l41 195l174 209q15 18 25 22t41 4h24h3q20 0 28 -1t13.5 -7t2.5 -18q-4 -14 -12 -27l-96 -164q51 0 58.5 -7.5t-1.5 -47.5l-33 -158q-9 -40 -18 -47.5t-49 -7.5h-158q-40 0 -46 7.5zM843 943.5q-6 7.5 3 47.5l41 195l174 209q15 19 24.5 22.5 t40.5 3.5h25h3q20 0 28 -1t13.5 -7t2.5 -18q-4 -14 -12 -27l-96 -164q51 0 58.5 -7.5t-1.5 -47.5l-33 -158q-9 -40 -18 -47.5t-49 -7.5h-158q-40 0 -46 7.5z" />
<glyph unicode="&#x201d;" horiz-adv-x="1083" d="M387 963q3 13 12 26l97 164q-51 0 -59.5 7.5t-0.5 47.5l35 158q7 39 17.5 47t50.5 8h157q39 0 45 -7.5t-2 -47.5l-41 -195l-174 -208q-18 -19 -26.5 -23t-38.5 -4h-25q-21 0 -29.5 1t-14.5 7t-3 19zM844 963q3 13 12 26l96 164q-51 0 -59 7.5t0 47.5l35 158q7 39 17 47 t50 8h158q39 0 45 -7.5t-2 -47.5l-41 -195l-174 -208q-18 -19 -27 -23t-39 -4h-24q-21 0 -29.5 1t-14.5 7t-3 19z" />
<glyph unicode="&#x201e;" horiz-adv-x="1083" d="M141 -195q3 12 13 27l96 164q-51 0 -59.5 7.5t-0.5 47.5l35 158q7 40 16.5 47.5t49.5 7.5h158q40 0 46 -7.5t-1 -47.5l-43 -195l-172 -209q-17 -19 -26 -22.5t-40 -3.5h-25h-3q-20 0 -28 1t-13.5 7t-2.5 18zM598 -195q4 14 12 27l97 164q-51 0 -59.5 7.5t-0.5 47.5 l35 158q7 40 16.5 47.5t49.5 7.5h157q40 0 46 -7.5t-1 -47.5l-43 -195l-172 -209q-17 -19 -26 -22.5t-39 -3.5h-25h-3q-20 0 -28 1t-13.5 7t-2.5 18z" />
<glyph unicode="&#x2022;" horiz-adv-x="1753" d="M629.5 273.5q-1.5 18.5 2 35t11.5 53.5l76 365q8 36 12 53.5t13.5 35t16.5 23.5t26 11t36.5 5.5t53.5 0.5h364q36 0 53 -0.5t33.5 -6t21 -10.5t6 -23.5t-2 -35t-11.5 -53.5l-75 -365q-8 -36 -12 -53.5t-13.5 -35t-16.5 -23.5t-26 -11t-36.5 -5.5t-53.5 -0.5h-365 q-36 0 -53 0.5t-33.5 6t-21 10.5t-6 23.5z" />
<glyph unicode="&#x2026;" horiz-adv-x="1572" d="M190 7.5q-6 7.5 3 47.5l32 158q9 40 18.5 47.5t49.5 7.5h158q40 0 46 -7.5t-3 -47.5l-33 -158q-9 -40 -18.5 -47.5t-49.5 -7.5h-157q-40 0 -46 7.5zM663 7.5q-6 7.5 3 47.5l32 158q9 40 18.5 47.5t49.5 7.5h158q40 0 46 -7.5t-3 -47.5l-33 -158q-9 -40 -18.5 -47.5 t-49.5 -7.5h-157q-40 0 -46 7.5zM1136 7.5q-6 7.5 3 47.5l32 158q9 40 18.5 47.5t49.5 7.5h158q40 0 46 -7.5t-3 -47.5l-33 -158q-9 -40 -18.5 -47.5t-49.5 -7.5h-157q-40 0 -46 7.5z" />
<glyph unicode="&#x202f;" horiz-adv-x="362" />
<glyph unicode="&#x2039;" horiz-adv-x="653" d="M264 506q-4 11 2 20l332 486q6 12 23 12h94q13 0 21 -11.5t3 -25.5l-198 -481l-6 -479q0 -10 -9 -18.5t-18 -8.5h-94q-20 0 -27 20z" />
<glyph unicode="&#x203a;" horiz-adv-x="653" d="M133 37l197 481l8 479q0 11 8 19t19 8h94q21 0 24 -20l125 -486q3 -9 -4 -20l-330 -486q-9 -12 -22 -12h-94q-15 0 -23 12t-2 25z" />
<glyph unicode="&#x205f;" horiz-adv-x="453" />
<glyph unicode="&#x20ac;" horiz-adv-x="1347" d="M217 485l49 123q7 23 31 23h88l16 80l19 80h-111q-11 0 -17 8.5t-3 21.5l49 123q7 23 31 23h108q73 182 205 309q103 98 239.5 144t282.5 46q162 0 289 -71q15 -11 8 -29l-86 -219q-3 -9 -12.5 -16t-18.5 -7q-11 0 -20 13q-25 58 -79.5 91.5t-123.5 33.5 q-77 0 -152 -34.5t-128 -97.5q-62 -73 -101 -163h506q12 0 18 -9t3 -22l-47 -123q-11 -22 -31 -22h-506l-18 -80l-17 -80h469q11 0 16.5 -9t2.5 -22l-48 -123q-11 -22 -30 -22h-426q0 -89 30 -162q27 -63 87.5 -98t138.5 -35q80 0 160.5 34t146.5 95q10 10 20 10t17.5 -8 t5.5 -17l-23 -176q0 -12 -14 -22q-169 -121 -358 -121q-147 0 -263.5 46.5t-177.5 145.5q-76 118 -73 308h-131q-11 0 -17.5 8.5t-3.5 21.5z" />
<glyph unicode="&#x2122;" horiz-adv-x="2103" d="M333 1329q2 10 3 25l4 10q6 33 21.5 45t50.5 12h682q36 0 44.5 -12.5t2.5 -44.5l-4 -10q-4 -21 -11 -34t-19 -18.5t-20.5 -6.5t-25.5 -1l-244 4l-141 -663q-8 -33 -22.5 -45t-49.5 -12h-61q-35 0 -45 12t-2 45l141 663l-250 -4q-11 0 -17 0.5t-14.5 2t-11.5 5.5t-8 10.5 t-3 16.5zM1098 635l155 735q8 34 23 47t49 13h100q62 0 74 -52l74 -387q3 -14 14.5 -73.5t18 -98.5t6.5 -59h2q13 35 127 219l246 397q22 34 43.5 44t50.5 10h102q36 0 45 -14t2 -46l-155 -735q-8 -33 -22.5 -45t-49.5 -12h-33q-36 0 -44.5 12.5t-2.5 44.5l135 637h-2 q-17 -39 -135 -230l-240 -385q-12 -19 -23.5 -30.5t-25.5 -16t-24 -5.5t-31 -1q-16 0 -23.5 0.5t-19 3t-17.5 8t-12 16t-10 25.5l-68 351q-41 211 -43 264l-135 -637q-8 -33 -22 -45t-49 -12h-33q-35 0 -45 12t-2 45z" />
<glyph unicode="&#x25fc;" horiz-adv-x="942" d="M0 0v942h942v-942h-942z" />
<glyph unicode="&#xfb03;" horiz-adv-x="1826" d="M197 98l147 693h-14t-14.5 0.5t-15.5 1.5t-14 2.5t-14 4.5t-11.5 6.5t-9 9t-5.5 12.5t-2.5 16t2.5 20q5 26 19 42.5t36 22.5t36.5 7.5t37.5 1.5l37 166q70 340 434 340q66 0 117 -12q41 -10 48 -19.5t-1 -46.5l-21 -94q-5 -28 -12.5 -40.5t-26.5 -12.5q-11 0 -20 14 q-10 18 -20.5 30t-34 22.5t-56.5 10.5q-34 0 -57.5 -10.5t-37.5 -32t-21 -40.5t-13 -48l-49 -227h121q12 0 20 -0.5t23.5 -4.5t24.5 -11t14.5 -22t1.5 -36q-16 -73 -115 -73h-115l-147 -693q-11 -55 -36 -76.5t-83 -21.5h-76q-56 0 -72 21t-5 77zM823 98l215 1008 q35 167 137.5 252.5t266.5 85.5q53 0 98 -10q38 -7 43.5 -16t-4.5 -46l-23 -106q-4 -21 -6 -29.5t-9.5 -16.5t-20.5 -8q-16 0 -21 21q-4 11 -7.5 18t-12.5 19.5t-26 19t-40 6.5q-39 0 -61 -32t-33 -93l-51 -233h121q12 0 20 -0.5t23.5 -4.5t24.5 -11t14.5 -22t1.5 -36 q-16 -73 -115 -73h-115l-147 -693q-11 -55 -36 -76.5t-83 -21.5h-76q-56 0 -72.5 21t-5.5 77zM1448 98l158 742q12 56 36.5 77t81.5 21h76q60 0 74.5 -22.5t3.5 -75.5l-158 -742q-11 -55 -36 -76.5t-82 -21.5h-76q-60 0 -74.5 22.5t-3.5 75.5zM1688 1243l18 82 q11 55 36 76.5t83 21.5h82q59 0 73.5 -22t4.5 -76l-19 -82q-11 -55 -36 -76.5t-83 -21.5h-82q-60 0 -74 22.5t-3 75.5z" />
</font>
</defs>
</svg>
